<svg width="44" height="45" viewBox="0 0 44 45" fill="none" xmlns="http://www.w3.org/2000/svg">
<path d="M39.7645 9.68261C39.7674 8.34463 39.3376 7.04157 38.5391 5.96798C37.7406 4.89439 36.6162 4.10786 35.334 3.7258C34.0517 3.34375 32.6802 3.38667 31.4243 3.84815C30.1684 4.30964 29.0955 5.16494 28.3657 6.28636C24.2749 4.67302 19.724 4.67302 15.6332 6.28636C15.1486 5.54169 14.5096 4.90984 13.7596 4.43361C13.0095 3.95738 12.1659 3.64788 11.2858 3.52608C10.4057 3.40428 9.5097 3.47301 8.65849 3.72763C7.80728 3.98224 7.02072 4.4168 6.35207 5.00186C5.68343 5.58693 5.14831 6.30884 4.78295 7.11872C4.4176 7.9286 4.23054 8.80753 4.23443 9.69599C4.23833 10.5845 4.4331 11.4617 4.80555 12.2684C5.17801 13.075 5.71944 13.7922 6.3932 14.3714C4.47593 17.8868 3.80865 21.949 4.50055 25.8931C5.19245 29.8372 7.20256 33.4296 10.2019 36.0826V40.5926C10.2019 40.9573 10.3468 41.307 10.6047 41.5649C10.8625 41.8227 11.2123 41.9676 11.5769 41.9676C11.9416 41.9676 12.2914 41.8227 12.5492 41.5649C12.8071 41.307 12.9519 40.9573 12.9519 40.5926V38.0901C15.6825 39.737 18.8107 40.6074 21.9994 40.6074C25.1882 40.6074 28.3164 39.737 31.047 38.0901V40.5926C31.047 40.9573 31.1918 41.307 31.4497 41.5649C31.7075 41.8227 32.0573 41.9676 32.422 41.9676C32.7866 41.9676 33.1364 41.8227 33.3942 41.5649C33.6521 41.307 33.797 40.9573 33.797 40.5926V36.0826C36.7963 33.4296 38.8064 29.8372 39.4983 25.8931C40.1903 21.949 39.523 17.8868 37.6057 14.3714C38.2812 13.7907 38.8236 13.0714 39.1961 12.2623C39.5686 11.4532 39.7625 10.5733 39.7645 9.68261ZM33.5494 6.21761C34.2261 6.21074 34.8897 6.40373 35.4571 6.77239C36.0246 7.14106 36.4706 7.66899 36.7393 8.29004C37.0079 8.91109 37.0873 9.59762 36.9675 10.2636C36.8477 10.9296 36.534 11.5454 36.0657 12.0339C34.6461 10.1979 32.8861 8.65269 30.8819 7.48261C31.206 7.08832 31.6131 6.77048 32.0742 6.5518C32.5354 6.33312 33.0391 6.21901 33.5494 6.21761ZM6.98445 9.68261C6.9868 8.97075 7.20835 8.27689 7.61897 7.69539C8.02959 7.11389 8.60934 6.67297 9.27939 6.43259C9.94944 6.19222 10.6773 6.16405 11.3639 6.35192C12.0505 6.53979 12.6626 6.93458 13.1169 7.48261C11.1128 8.65269 9.35278 10.1979 7.9332 12.0339C7.3289 11.3996 6.98954 10.5586 6.98445 9.68261ZM21.9994 37.8426C19.0292 37.8426 16.1256 36.9616 13.6561 35.3112C11.1866 33.6607 9.26213 31.3148 8.12608 28.5704C6.99004 25.826 6.6935 22.8063 7.27397 19.8933C7.85444 16.9803 9.28585 14.3049 11.3871 12.2055C13.4884 10.1062 16.1651 8.67725 19.0786 8.09944C21.9921 7.52164 25.0116 7.82095 27.755 8.95951C30.4984 10.0981 32.8424 12.0247 34.4907 14.4957C36.1389 16.9667 37.0172 19.8711 37.0145 22.8414C37.0072 26.8201 35.4225 30.6336 32.6078 33.4457C29.7931 36.2578 25.9782 37.839 21.9994 37.8426ZM30.2495 22.7176C30.2495 23.0823 30.1046 23.432 29.8467 23.6899C29.5889 23.9477 29.2391 24.0926 28.8745 24.0926L24.7494 24.1751C23.6554 24.1751 22.6062 23.7405 21.8326 22.9669C21.059 22.1933 20.6244 21.1441 20.6244 20.0501V13.0926C20.6244 12.7279 20.7693 12.3782 21.0272 12.1203C21.285 11.8625 21.6348 11.7176 21.9994 11.7176C22.3641 11.7176 22.7139 11.8625 22.9717 12.1203C23.2296 12.3782 23.3744 12.7279 23.3744 13.0926V20.0501C23.3752 20.232 23.4121 20.412 23.4829 20.5796C23.5537 20.7471 23.657 20.899 23.7869 21.0264C24.054 21.2721 24.4005 21.4136 24.7632 21.4251L28.8745 21.3426C29.2391 21.3426 29.5889 21.4875 29.8467 21.7453C30.1046 22.0032 30.2495 22.3529 30.2495 22.7176Z" fill="#9F9F9F"/>
</svg>
