<svg width="44" height="45" viewBox="0 0 44 45" fill="none" xmlns="http://www.w3.org/2000/svg">
<path d="M31.6321 20.3457C32.4504 20.3457 33.1138 19.6788 33.1138 18.8562C33.1138 18.0335 32.4504 17.3666 31.6321 17.3666C30.8138 17.3666 30.1504 18.0335 30.1504 18.8562C30.1504 19.6788 30.8138 20.3457 31.6321 20.3457Z" fill="#9F9F9F"/>
<path d="M35.0395 6.19474H33.1133V4.70516C33.1133 3.88246 32.4499 3.21558 31.6316 3.21558C30.8133 3.21558 30.1499 3.88246 30.1499 4.70516V6.19474H23.4083V4.70516C23.4083 3.88246 22.7449 3.21558 21.9266 3.21558C21.1083 3.21558 20.4449 3.88246 20.4449 4.70516V6.19474H13.7773V4.70516C13.7773 3.88246 13.114 3.21558 12.2957 3.21558C11.4773 3.21558 10.814 3.88246 10.814 4.70516V6.19474H8.96188C5.69388 6.19474 3.03516 8.86765 3.03516 12.1531V35.3906C3.03516 38.676 5.69388 41.3489 8.96188 41.3489H20.2967C21.1151 41.3489 21.7784 40.682 21.7784 39.8593C21.7784 39.0366 21.1151 38.3697 20.2967 38.3697H8.96188C7.32788 38.3697 5.99852 37.0333 5.99852 35.3906V12.1531C5.99852 10.5104 7.32788 9.17391 8.96188 9.17391H10.814V10.6635C10.814 11.4862 11.4773 12.1531 12.2957 12.1531C13.114 12.1531 13.7773 11.4862 13.7773 10.6635V9.17391H20.4449V10.6635C20.4449 11.4862 21.1083 12.1531 21.9266 12.1531C22.7449 12.1531 23.4083 11.4862 23.4083 10.6635V9.17391H30.1499V10.6635C30.1499 11.4862 30.8133 12.1531 31.6316 12.1531C32.4499 12.1531 33.1133 11.4862 33.1133 10.6635V9.17391H35.0395C36.6735 9.17391 38.0028 10.5104 38.0028 12.1531V20.6437C38.0028 21.4664 38.6662 22.1333 39.4845 22.1333C40.3028 22.1333 40.9662 21.4664 40.9662 20.6437V12.1531C40.9662 8.86765 38.3075 6.19474 35.0395 6.19474Z" fill="#9F9F9F"/>
<path d="M32.0013 23.325C27.0584 23.325 23.0371 27.3677 23.0371 32.3369C23.0371 37.3062 27.0584 41.3489 32.0013 41.3489C36.9442 41.3489 40.9654 37.3062 40.9654 32.3369C40.9654 27.3677 36.9442 23.325 32.0013 23.325ZM32.0013 38.3697C28.6925 38.3697 26.0005 35.6635 26.0005 32.3369C26.0005 29.0104 28.6925 26.3041 32.0013 26.3041C35.3101 26.3041 38.0021 29.0104 38.0021 32.3369C38.0021 35.6635 35.3101 38.3697 32.0013 38.3697Z" fill="#9F9F9F"/>
<path d="M34.1496 30.8473H33.4829V29.2833C33.4829 28.4606 32.8195 27.7937 32.0012 27.7937C31.1829 27.7937 30.5195 28.4606 30.5195 29.2833V32.3369C30.5195 33.1596 31.1829 33.8265 32.0012 33.8265H34.1496C34.968 33.8265 35.6313 33.1596 35.6313 32.3369C35.6313 31.5142 34.968 30.8473 34.1496 30.8473Z" fill="#9F9F9F"/>
<path d="M25.1868 20.3457C26.0051 20.3457 26.6684 19.6788 26.6684 18.8562C26.6684 18.0335 26.0051 17.3666 25.1868 17.3666C24.3684 17.3666 23.7051 18.0335 23.7051 18.8562C23.7051 19.6788 24.3684 20.3457 25.1868 20.3457Z" fill="#9F9F9F"/>
<path d="M18.7414 26.8255C19.5598 26.8255 20.2231 26.1586 20.2231 25.3359C20.2231 24.5132 19.5598 23.8463 18.7414 23.8463C17.9231 23.8463 17.2598 24.5132 17.2598 25.3359C17.2598 26.1586 17.9231 26.8255 18.7414 26.8255Z" fill="#9F9F9F"/>
<path d="M12.2961 20.3457C13.1144 20.3457 13.7778 19.6788 13.7778 18.8562C13.7778 18.0335 13.1144 17.3666 12.2961 17.3666C11.4778 17.3666 10.8145 18.0335 10.8145 18.8562C10.8145 19.6788 11.4778 20.3457 12.2961 20.3457Z" fill="#9F9F9F"/>
<path d="M12.2961 26.8255C13.1144 26.8255 13.7778 26.1586 13.7778 25.3359C13.7778 24.5132 13.1144 23.8463 12.2961 23.8463C11.4778 23.8463 10.8145 24.5132 10.8145 25.3359C10.8145 26.1586 11.4778 26.8255 12.2961 26.8255Z" fill="#9F9F9F"/>
<path d="M12.2961 33.3052C13.1144 33.3052 13.7778 32.6383 13.7778 31.8156C13.7778 30.993 13.1144 30.326 12.2961 30.326C11.4778 30.326 10.8145 30.993 10.8145 31.8156C10.8145 32.6383 11.4778 33.3052 12.2961 33.3052Z" fill="#9F9F9F"/>
<path d="M18.7414 33.3052C19.5598 33.3052 20.2231 32.6383 20.2231 31.8156C20.2231 30.993 19.5598 30.326 18.7414 30.326C17.9231 30.326 17.2598 30.993 17.2598 31.8156C17.2598 32.6383 17.9231 33.3052 18.7414 33.3052Z" fill="#9F9F9F"/>
<path d="M18.7414 20.3457C19.5598 20.3457 20.2231 19.6788 20.2231 18.8562C20.2231 18.0335 19.5598 17.3666 18.7414 17.3666C17.9231 17.3666 17.2598 18.0335 17.2598 18.8562C17.2598 19.6788 17.9231 20.3457 18.7414 20.3457Z" fill="#9F9F9F"/>
</svg>
