<svg width="69" height="68" viewBox="0 0 69 68" fill="none" xmlns="http://www.w3.org/2000/svg">
<path fill-rule="evenodd" clip-rule="evenodd" d="M34.3913 1.03035C40.521 1.10029 46.0587 2.60683 51.0042 5.54995C55.8907 8.43425 59.9555 12.5239 62.8099 17.4279C65.7351 22.4031 67.2326 27.9743 67.3023 34.1414C67.1286 42.5794 64.4672 49.7863 59.318 55.762C54.1689 61.7379 47.5741 65.4347 40.7473 66.8519V43.1946H47.2016L48.6612 33.8977H38.8879V27.8085C38.8337 26.5462 39.2329 25.3061 40.0134 24.3125C40.7949 23.3161 42.1713 22.7925 44.1425 22.7415H50.0441V14.5977C49.9594 14.5704 49.1559 14.4626 47.6336 14.2744C45.9071 14.0724 44.1709 13.9645 42.4327 13.9511C38.4985 13.9693 35.3871 15.0791 33.0985 17.2805C30.8097 19.4812 29.6405 22.6651 29.591 26.8324V33.8977H22.1535V43.1946H29.591V66.8521C21.2086 65.435 14.6138 61.738 9.46462 55.7622C4.31548 49.7865 1.65419 42.5794 1.48047 34.1414C1.54997 27.9741 3.04739 22.4029 5.97272 17.4279C8.82719 12.5239 12.892 8.43416 17.7786 5.54982C22.724 2.60732 28.2615 1.10091 34.3913 1.03035Z" fill="white"/>
<path fill-rule="evenodd" clip-rule="evenodd" d="M34.3913 1.03035C40.521 1.10029 46.0587 2.60683 51.0042 5.54995C55.8907 8.43425 59.9555 12.5239 62.8099 17.4279C65.7351 22.4031 67.2326 27.9743 67.3023 34.1414C67.1286 42.5794 64.4672 49.7863 59.318 55.762C54.1689 61.7379 47.5741 65.4347 40.7473 66.8519V43.1946H47.2016L48.6612 33.8977H38.8879V27.8085C38.8337 26.5462 39.2329 25.3061 40.0134 24.3125C40.7949 23.3161 42.1713 22.7925 44.1425 22.7415H50.0441V14.5977C49.9594 14.5704 49.1559 14.4626 47.6336 14.2744C45.9071 14.0724 44.1709 13.9645 42.4327 13.9511C38.4985 13.9693 35.3871 15.0791 33.0985 17.2805C30.8097 19.4812 29.6405 22.6651 29.591 26.8324V33.8977H22.1535V43.1946H29.591V66.8521C21.2086 65.435 14.6138 61.738 9.46462 55.7622C4.31548 49.7865 1.65419 42.5794 1.48047 34.1414C1.54997 27.9741 3.04739 22.4029 5.97272 17.4279C8.82719 12.5239 12.892 8.43416 17.7786 5.54982C22.724 2.60732 28.2615 1.10091 34.3913 1.03035Z" fill="url(#paint0_linear_2152_757)"/>
<defs>
<linearGradient id="paint0_linear_2152_757" x1="69.6531" y1="8.9801" x2="18.571" y2="57.297" gradientUnits="userSpaceOnUse">
<stop stop-color="#9DE8EE"/>
<stop offset="0.0001" stop-color="#9DE8EE"/>
<stop offset="0.490049" stop-color="#FA7C0B"/>
<stop offset="1" stop-color="#9F8CED"/>
</linearGradient>
</defs>
</svg>
