<svg width="40" height="40" viewBox="0 0 40 40" fill="none" xmlns="http://www.w3.org/2000/svg">
<path fill-rule="evenodd" clip-rule="evenodd" d="M0 6.72439C0 3.00188 3.04471 0 6.78095 0H11.0552C11.5812 0 12.0076 0.426395 12.0076 0.952381C12.0076 1.47837 11.5812 1.90476 11.0552 1.90476H6.78095C4.07913 1.90476 1.90476 4.07132 1.90476 6.72439V10.9572C1.90476 11.4832 1.47837 11.9096 0.952381 11.9096C0.426395 11.9096 0 11.4832 0 10.9572V6.72439ZM27.9924 0.952381C27.9924 0.426395 28.4188 0 28.9448 0H33.219C36.9553 0 40 3.00188 40 6.72439V10.9572C40 11.4832 39.5736 11.9096 39.0476 11.9096C38.5216 11.9096 38.0952 11.4832 38.0952 10.9572V6.72439C38.0952 4.07132 35.9209 1.90476 33.219 1.90476H28.9448C28.4188 1.90476 27.9924 1.47837 27.9924 0.952381ZM0.952381 28.0904C1.47837 28.0904 1.90476 28.5168 1.90476 29.0428V33.2756C1.90476 35.9287 4.07913 38.0952 6.78095 38.0952H11.0552C11.5812 38.0952 12.0076 38.5216 12.0076 39.0476C12.0076 39.5736 11.5812 40 11.0552 40H6.78095C3.04471 40 0 36.9981 0 33.2756V29.0428C0 28.5168 0.426395 28.0904 0.952381 28.0904ZM39.0476 28.0904C39.5736 28.0904 40 28.5168 40 29.0428V33.2756C40 36.9981 36.9553 40 33.219 40H28.9448C28.4188 40 27.9924 39.5736 27.9924 39.0476C27.9924 38.5216 28.4188 38.0952 28.9448 38.0952H33.219C35.9209 38.0952 38.0952 35.9287 38.0952 33.2756V29.0428C38.0952 28.5168 38.5216 28.0904 39.0476 28.0904Z" fill="#D94540" style="fill:#D94540;fill:color(display-p3 0.8510 0.2706 0.2510);fill-opacity:1;"/>
<path d="M24.4177 30.5953C25.9804 31.718 27.738 32.5264 29.5965 32.9775C29.6706 32.9918 29.7459 32.999 29.8213 32.9992C30.1146 32.9991 30.3973 32.8874 30.6143 32.6857C30.8313 32.484 30.9669 32.207 30.9947 31.9086C31.0225 31.6103 30.9404 31.312 30.7646 31.0721C30.5888 30.8323 30.3317 30.668 30.0437 30.6114C28.4974 30.2137 27.0354 29.5299 25.7303 28.5938C25.6341 28.5282 25.5552 28.4395 25.5004 28.3354C25.4456 28.2314 25.4166 28.1152 25.4159 27.9971V25.2832C29.3167 21.0987 28.7649 12.7763 28.7359 12.3819C28.4474 6.54288 22.8968 5 20.0021 5C17.1073 5 11.5568 6.54288 11.2707 12.3522C11.2392 12.7714 10.6875 21.0979 14.5883 25.2832V27.9971C14.5876 28.1152 14.5586 28.2314 14.5038 28.3354C14.449 28.4395 14.37 28.5282 14.2739 28.5938C12.9687 29.5299 11.5068 30.2137 9.96045 30.6114C9.67219 30.6669 9.41455 30.8303 9.23786 31.0696C9.06117 31.3089 8.97812 31.6069 9.00494 31.9054C9.03175 32.2039 9.16651 32.4815 9.38287 32.6839C9.59924 32.8863 9.88168 32.999 10.175 33C10.2504 32.9998 10.3257 32.9926 10.3998 32.9783C12.258 32.5273 14.0152 31.7191 15.5778 30.5969C15.9968 30.3118 16.3403 29.9254 16.5781 29.472C16.8158 29.0186 16.9404 28.5123 16.9407 27.9979V26.9762C17.0932 27.0437 17.2449 27.112 17.4052 27.1706C17.6985 27.2711 18.0187 27.2498 18.2967 27.1112C18.5748 26.9727 18.7884 26.728 18.8915 26.43C18.9946 26.132 18.979 25.8045 18.848 25.5181C18.717 25.2318 18.4811 25.0095 18.1912 24.8993C12.9259 22.9917 13.6121 12.6357 13.6207 12.5032C13.8683 7.49865 19.7514 7.41111 19.9966 7.4095C20.2418 7.40789 26.1311 7.49865 26.3803 12.5321C26.3874 12.6357 27.0719 22.9917 21.8028 24.9009C21.5128 25.0111 21.2769 25.2334 21.1459 25.5197C21.0149 25.8061 20.9993 26.1336 21.1024 26.4316C21.2056 26.7296 21.4192 26.9743 21.6972 27.1128C21.9753 27.2514 22.2954 27.2727 22.5887 27.1722C22.7459 27.1136 22.9031 27.0453 23.0532 26.9779V27.9971C23.0537 28.5115 23.1785 29.0178 23.4165 29.4711C23.6546 29.9244 23.9985 30.3105 24.4177 30.5953Z" fill="#3A499C" style="fill:#3A499C;fill:color(display-p3 0.2275 0.2863 0.6118);fill-opacity:1;"/>
</svg>
