<svg width="150" height="40" viewBox="0 0 150 40" fill="none" xmlns="http://www.w3.org/2000/svg">
<path d="M59.2828 11.5288H56.1406V25.6211H64.8392V22.8598H59.2828V11.5288Z" fill="white"/>
<path d="M65.1406 20.8412C65.1406 23.8501 67.1716 25.8497 70.2371 25.8497C73.2835 25.8497 75.3145 23.8501 75.3145 20.8412C75.3145 17.8323 73.2835 15.8136 70.2371 15.8136C67.1716 15.8136 65.1406 17.8323 65.1406 20.8412ZM68.1104 20.8221C68.1104 19.3939 68.9534 18.4417 70.2371 18.4417C71.5017 18.4417 72.3447 19.3939 72.3447 20.8221C72.3447 22.2695 71.5017 23.2217 70.2371 23.2217C68.9534 23.2217 68.1104 22.2695 68.1104 20.8221Z" fill="white"/>
<path d="M75.7864 20.6889C75.7864 23.5645 77.6641 25.5069 80.3273 25.5069C81.611 25.5069 82.7223 25.0499 83.2779 24.3072V25.6212C83.2779 26.9352 82.454 27.8112 80.9979 27.8112C79.695 27.8112 78.7944 27.2018 78.737 26.1164H75.748C76.0163 28.7254 78.0473 30.4773 80.8254 30.4773C84.1017 30.4773 86.171 28.3635 86.171 25.0118V16.0994H83.5078L83.3545 17.0705C82.818 16.2898 81.6876 15.7756 80.3848 15.7756C77.7023 15.7756 75.7864 17.7752 75.7864 20.6889ZM78.7753 20.6127C78.7753 19.2415 79.695 18.3274 80.8637 18.3274C82.2241 18.3274 83.2204 19.2225 83.2204 20.6127C83.2204 22.0029 82.2432 22.9551 80.8829 22.9551C79.7142 22.9551 78.7753 22.0029 78.7753 20.6127Z" fill="white"/>
<path d="M87.0312 20.8411C87.0312 23.8501 89.0623 25.8496 92.1281 25.8496C95.1746 25.8496 97.2053 23.8501 97.2053 20.8411C97.2053 17.8322 95.1746 15.8135 92.1281 15.8135C89.0623 15.8135 87.0312 17.8322 87.0312 20.8411ZM90.0009 20.822C90.0009 19.3938 90.8439 18.4416 92.1281 18.4416C93.3921 18.4416 94.2351 19.3938 94.2351 20.822C94.2351 22.2694 93.3921 23.2216 92.1281 23.2216C90.8439 23.2216 90.0009 22.2694 90.0009 20.822Z" fill="white"/>
<path d="M99.7504 14.6138C100.67 14.6138 101.417 13.8711 101.417 12.938C101.417 12.0048 100.67 11.2812 99.7504 11.2812C98.8118 11.2812 98.0645 12.0048 98.0645 12.938C98.0645 13.8711 98.8118 14.6138 99.7504 14.6138ZM98.2557 25.6211H101.226V16.0993H98.2557V25.6211Z" fill="white"/>
<path d="M102.953 30.1916H105.865V24.669C106.421 25.3926 107.686 25.8878 109.008 25.8878C111.862 25.8878 113.586 23.7168 113.51 20.7079C113.433 17.6418 111.651 15.7946 108.988 15.7946C107.628 15.7946 106.344 16.3849 105.808 17.261L105.654 16.0993H102.953V30.1916ZM105.922 20.8602C105.922 19.432 106.88 18.4798 108.26 18.4798C109.658 18.4798 110.54 19.451 110.54 20.8602C110.54 22.2695 109.658 23.2407 108.26 23.2407C106.88 23.2407 105.922 22.2885 105.922 20.8602Z" fill="white"/>
<path d="M113.826 22.6122C113.902 24.5357 115.436 25.8687 117.85 25.8687C120.168 25.8687 121.778 24.6499 121.778 22.6884C121.778 21.2792 120.935 20.346 119.363 19.9651L117.659 19.5462C117.045 19.3938 116.662 19.2414 116.662 18.7463C116.662 18.2512 117.064 17.9274 117.659 17.9274C118.329 17.9274 118.769 18.3655 118.751 19.0129H121.414C121.337 17.0324 119.824 15.7946 117.716 15.7946C115.589 15.7946 113.999 17.0515 113.999 18.9558C113.999 20.2317 114.708 21.2792 116.604 21.7743L118.29 22.2123C118.788 22.3456 118.999 22.5741 118.999 22.8978C118.999 23.374 118.559 23.6787 117.811 23.6787C116.949 23.6787 116.489 23.2788 116.489 22.6122H113.826Z" fill="white"/>
<path d="M126.293 25.8687C127.462 25.8687 128.631 25.3354 129.225 24.5547L129.417 25.6212H132.195V16.0993H129.244V21.0507C129.244 22.4789 128.823 23.2597 127.462 23.2597C126.408 23.2597 125.718 22.7836 125.718 21.0126V16.0993H122.768V22.079C122.768 24.3452 124.032 25.8687 126.293 25.8687Z" fill="white"/>
<path d="M136.873 25.6212V20.4223C136.873 18.8226 137.735 18.3655 138.578 18.3655C139.516 18.3655 140.13 18.9369 140.13 20.1176V25.6212H143.042V20.4223C143.042 18.8036 143.885 18.3465 144.728 18.3465C145.666 18.3465 146.299 18.9178 146.299 20.1176V25.6212H149.173V19.3939C149.173 17.2229 148.023 15.7756 145.551 15.7756C144.173 15.7756 143.042 16.4421 142.544 17.4705C141.969 16.4421 140.973 15.7756 139.382 15.7756C138.329 15.7756 137.351 16.2517 136.777 17.0134L136.662 16.0994H133.902V25.6212H136.873Z" fill="white"/>
<path d="M0 20.0001C0 12.2957 6.28372 6.05003 14.0351 6.05003H32.4561C40.2075 6.05003 46.4912 12.2957 46.4912 20.0001V33.9501H14.0351C6.28372 33.9501 0 27.7045 0 20.0001Z" fill="white"/>
<path d="M32.4547 11.2812H14.0336C9.18905 11.2812 5.26172 15.1847 5.26172 19.9999C5.26172 24.8152 9.18905 28.7187 14.0336 28.7187H32.4547C37.2993 28.7187 41.2266 24.8152 41.2266 19.9999C41.2266 15.1847 37.2993 11.2812 32.4547 11.2812Z" fill="#4B5567"/>
<path d="M14.0344 24.3594C16.4567 24.3594 18.4204 22.4077 18.4204 20C18.4204 17.5924 16.4567 15.6406 14.0344 15.6406C11.6121 15.6406 9.64844 17.5924 9.64844 20C9.64844 22.4077 11.6121 24.3594 14.0344 24.3594Z" fill="white"/>
<path d="M12.2819 19.1282C12.7666 19.1282 13.1595 18.7378 13.1595 18.2563C13.1595 17.7748 12.7666 17.3844 12.2819 17.3844C11.7972 17.3844 11.4043 17.7748 11.4043 18.2563C11.4043 18.7378 11.7972 19.1282 12.2819 19.1282Z" fill="#0D0D0D"/>
<path d="M33.3352 24.3594C35.7575 24.3594 37.7211 22.4076 37.7211 20C37.7211 17.5924 35.7575 15.6406 33.3352 15.6406C30.9129 15.6406 28.9492 17.5924 28.9492 20C28.9492 22.4076 30.9129 24.3594 33.3352 24.3594Z" fill="white"/>
<path d="M31.5807 19.1281C32.0654 19.1281 32.4583 18.7378 32.4583 18.2562C32.4583 17.7747 32.0654 17.3844 31.5807 17.3844C31.096 17.3844 30.7031 17.7747 30.7031 18.2562C30.7031 18.7378 31.096 19.1281 31.5807 19.1281Z" fill="#0D0D0D"/>
</svg>
