<svg width="69" height="68" viewBox="0 0 69 68" fill="none" xmlns="http://www.w3.org/2000/svg">
<path d="M34.5 40.9727C38.3509 40.9727 41.4727 37.8509 41.4727 34C41.4727 30.1491 38.3509 27.0273 34.5 27.0273C30.6491 27.0273 27.5273 30.1491 27.5273 34C27.5273 37.8509 30.6491 40.9727 34.5 40.9727Z" fill="white"/>
<path d="M34.5 40.9727C38.3509 40.9727 41.4727 37.8509 41.4727 34C41.4727 30.1491 38.3509 27.0273 34.5 27.0273C30.6491 27.0273 27.5273 30.1491 27.5273 34C27.5273 37.8509 30.6491 40.9727 34.5 40.9727Z" fill="url(#paint0_linear_2152_761)"/>
<path d="M34.5 0.796875C16.1624 0.796875 1.29688 15.6624 1.29688 34C1.29688 52.3376 16.1624 67.2031 34.5 67.2031C52.8376 67.2031 67.7031 52.3376 67.7031 34C67.7031 15.6624 52.8376 0.796875 34.5 0.796875ZM55.014 42.4389C54.8546 45.5956 53.9675 48.7085 51.6671 50.9845C49.3443 53.2821 46.2167 54.1382 43.0296 54.296H25.9705C22.783 54.1382 19.6558 53.2826 17.3331 50.9845C15.0325 48.7085 14.1456 45.5956 13.9862 42.4389V25.5611C14.1456 22.4044 15.0326 19.2915 17.3331 17.0154C19.6558 14.7177 22.7834 13.8616 25.9705 13.704H43.0295C46.217 13.8616 49.3442 14.7174 51.6669 17.0154C53.9675 19.2915 54.8544 22.4044 55.0138 25.5611L55.014 42.4389Z" fill="white"/>
<path d="M34.5 0.796875C16.1624 0.796875 1.29688 15.6624 1.29688 34C1.29688 52.3376 16.1624 67.2031 34.5 67.2031C52.8376 67.2031 67.7031 52.3376 67.7031 34C67.7031 15.6624 52.8376 0.796875 34.5 0.796875ZM55.014 42.4389C54.8546 45.5956 53.9675 48.7085 51.6671 50.9845C49.3443 53.2821 46.2167 54.1382 43.0296 54.296H25.9705C22.783 54.1382 19.6558 53.2826 17.3331 50.9845C15.0325 48.7085 14.1456 45.5956 13.9862 42.4389V25.5611C14.1456 22.4044 15.0326 19.2915 17.3331 17.0154C19.6558 14.7177 22.7834 13.8616 25.9705 13.704H43.0295C46.217 13.8616 49.3442 14.7174 51.6669 17.0154C53.9675 19.2915 54.8544 22.4044 55.0138 25.5611L55.014 42.4389Z" fill="url(#paint1_linear_2152_761)"/>
<path d="M42.8133 17.5496C38.6581 17.4356 30.3414 17.4356 26.1862 17.5496C24.0239 17.6089 21.5726 18.1472 20.032 19.7928C18.431 21.5033 17.8261 23.5698 17.7647 25.8817C17.6569 29.9394 17.7647 42.1183 17.7647 42.1183C17.835 44.4299 18.431 46.4967 20.032 48.2072C21.5726 49.8533 24.0239 50.391 26.1862 50.4504C30.3414 50.5644 38.6581 50.5644 42.8133 50.4504C44.9756 50.391 47.4269 49.8527 48.9676 48.2072C50.5685 46.4967 51.1734 44.4301 51.2348 42.1183V25.8817C51.1734 23.5698 50.5685 21.5033 48.9676 19.7928C47.4264 18.1467 44.9751 17.6089 42.8133 17.5496ZM34.4992 44.8076C32.3617 44.8076 30.2721 44.1737 28.4948 42.9862C26.7175 41.7986 25.3323 40.1107 24.5143 38.1359C23.6963 36.161 23.4823 33.988 23.8993 31.8915C24.3163 29.7951 25.3456 27.8693 26.8571 26.3579C28.3686 24.8464 30.2943 23.8171 32.3908 23.4C34.4872 22.983 36.6603 23.1971 38.6351 24.0151C40.61 24.8331 42.2979 26.2183 43.4854 27.9956C44.673 29.7729 45.3069 31.8624 45.3069 34C45.3069 36.8663 44.1682 39.6153 42.1414 41.6421C40.1145 43.6689 37.3656 44.8076 34.4992 44.8076ZM45.3528 25.4232C44.9253 25.4231 44.5075 25.2963 44.1521 25.0587C43.7967 24.8211 43.5197 24.4835 43.3562 24.0885C43.1927 23.6935 43.1499 23.2589 43.2334 22.8397C43.3169 22.4204 43.5228 22.0353 43.8251 21.7331C44.1274 21.4308 44.5126 21.225 44.9318 21.1417C45.3511 21.0583 45.7857 21.1012 46.1806 21.2648C46.5756 21.4284 46.9131 21.7054 47.1506 22.0609C47.3881 22.4163 47.5149 22.8342 47.5149 23.2617C47.5149 23.5456 47.4589 23.8267 47.3503 24.089C47.2416 24.3513 47.0823 24.5896 46.8816 24.7903C46.6808 24.991 46.4425 25.1502 46.1801 25.2588C45.9178 25.3674 45.6367 25.4233 45.3528 25.4232Z" fill="white"/>
<path d="M42.8133 17.5496C38.6581 17.4356 30.3414 17.4356 26.1862 17.5496C24.0239 17.6089 21.5726 18.1472 20.032 19.7928C18.431 21.5033 17.8261 23.5698 17.7647 25.8817C17.6569 29.9394 17.7647 42.1183 17.7647 42.1183C17.835 44.4299 18.431 46.4967 20.032 48.2072C21.5726 49.8533 24.0239 50.391 26.1862 50.4504C30.3414 50.5644 38.6581 50.5644 42.8133 50.4504C44.9756 50.391 47.4269 49.8527 48.9676 48.2072C50.5685 46.4967 51.1734 44.4301 51.2348 42.1183V25.8817C51.1734 23.5698 50.5685 21.5033 48.9676 19.7928C47.4264 18.1467 44.9751 17.6089 42.8133 17.5496ZM34.4992 44.8076C32.3617 44.8076 30.2721 44.1737 28.4948 42.9862C26.7175 41.7986 25.3323 40.1107 24.5143 38.1359C23.6963 36.161 23.4823 33.988 23.8993 31.8915C24.3163 29.7951 25.3456 27.8693 26.8571 26.3579C28.3686 24.8464 30.2943 23.8171 32.3908 23.4C34.4872 22.983 36.6603 23.1971 38.6351 24.0151C40.61 24.8331 42.2979 26.2183 43.4854 27.9956C44.673 29.7729 45.3069 31.8624 45.3069 34C45.3069 36.8663 44.1682 39.6153 42.1414 41.6421C40.1145 43.6689 37.3656 44.8076 34.4992 44.8076ZM45.3528 25.4232C44.9253 25.4231 44.5075 25.2963 44.1521 25.0587C43.7967 24.8211 43.5197 24.4835 43.3562 24.0885C43.1927 23.6935 43.1499 23.2589 43.2334 22.8397C43.3169 22.4204 43.5228 22.0353 43.8251 21.7331C44.1274 21.4308 44.5126 21.225 44.9318 21.1417C45.3511 21.0583 45.7857 21.1012 46.1806 21.2648C46.5756 21.4284 46.9131 21.7054 47.1506 22.0609C47.3881 22.4163 47.5149 22.8342 47.5149 23.2617C47.5149 23.5456 47.4589 23.8267 47.3503 24.089C47.2416 24.3513 47.0823 24.5896 46.8816 24.7903C46.6808 24.991 46.4425 25.1502 46.1801 25.2588C45.9178 25.3674 45.6367 25.4233 45.3528 25.4232Z" fill="url(#paint2_linear_2152_761)"/>
<defs>
<linearGradient id="paint0_linear_2152_761" x1="41.9707" y1="28.7116" x2="31.1482" y2="38.9483" gradientUnits="userSpaceOnUse">
<stop stop-color="#9DE8EE"/>
<stop offset="0.0001" stop-color="#9DE8EE"/>
<stop offset="0.490049" stop-color="#FA7C0B"/>
<stop offset="1" stop-color="#9F8CED"/>
</linearGradient>
<linearGradient id="paint1_linear_2152_761" x1="70.0748" y1="8.81734" x2="18.5391" y2="57.5632" gradientUnits="userSpaceOnUse">
<stop stop-color="#9DE8EE"/>
<stop offset="0.0001" stop-color="#9DE8EE"/>
<stop offset="0.490049" stop-color="#FA7C0B"/>
<stop offset="1" stop-color="#9F8CED"/>
</linearGradient>
<linearGradient id="paint2_linear_2152_761" x1="52.4319" y1="21.4585" x2="26.7492" y2="46.0787" gradientUnits="userSpaceOnUse">
<stop stop-color="#9DE8EE"/>
<stop offset="0.0001" stop-color="#9DE8EE"/>
<stop offset="0.490049" stop-color="#FA7C0B"/>
<stop offset="1" stop-color="#9F8CED"/>
</linearGradient>
</defs>
</svg>
