<svg width="41" height="43" viewBox="0 0 41 43" fill="none" xmlns="http://www.w3.org/2000/svg">
<path d="M37.0729 12.4755C36.8557 8.86266 33.8389 6.03223 30.2055 6.03223H28.4366V4.65723C28.4366 4.29255 28.2917 3.94282 28.0338 3.68495C27.776 3.42709 27.4262 3.28223 27.0616 3.28223C26.6969 3.28223 26.3472 3.42709 26.0893 3.68495C25.8314 3.94282 25.6866 4.29255 25.6866 4.65723V6.03223H14.6866V4.65723C14.6866 4.29255 14.5417 3.94282 14.2838 3.68495C14.026 3.42709 13.6762 3.28223 13.3116 3.28223C12.9469 3.28223 12.5972 3.42709 12.3393 3.68495C12.0814 3.94282 11.9366 4.29255 11.9366 4.65723V6.03223H10.1676C6.53351 6.03223 3.51676 8.86266 3.3002 12.4755C2.89251 19.2707 2.90007 26.1636 3.32288 32.9623C3.53738 36.4149 6.3032 39.1807 9.75582 39.3952C13.216 39.6104 16.7009 39.7177 20.1859 39.7177C23.6701 39.7177 27.1558 39.6104 30.6159 39.3952C34.0686 39.1807 36.8344 36.4149 37.0489 32.9623C37.4724 26.167 37.4799 19.2749 37.0729 12.4755ZM34.3051 32.7918C34.2414 33.7944 33.8143 34.7393 33.104 35.4496C32.3936 36.16 31.4487 36.587 30.4461 36.6507C23.6385 37.0735 16.7346 37.0735 9.92701 36.6507C8.92445 36.587 7.9795 36.16 7.26915 35.4496C6.5588 34.7393 6.13178 33.7944 6.06807 32.7918C5.74579 27.545 5.67306 22.2859 5.85013 17.0322H34.5237C34.6969 22.2847 34.6303 27.5668 34.3051 32.7918ZM13.3116 11.5322C13.6762 11.5322 14.026 11.3874 14.2838 11.1295C14.5417 10.8716 14.6866 10.5219 14.6866 10.1572V8.78223H25.6866V10.1572C25.6866 10.5219 25.8314 10.8716 26.0893 11.1295C26.3472 11.3874 26.6969 11.5322 27.0616 11.5322C27.4262 11.5322 27.776 11.3874 28.0338 11.1295C28.2917 10.8716 28.4366 10.5219 28.4366 10.1572V8.78223H30.2055C32.3869 8.78223 34.1978 10.4769 34.3278 12.6398C34.3601 13.1857 34.3738 13.735 34.4006 14.2822H5.97251C6.00001 13.735 6.01307 13.1857 6.04538 12.6398C6.17532 10.4769 7.98551 8.78223 10.1676 8.78223H11.9366V10.1572C11.9366 10.5219 12.0814 10.8716 12.3393 11.1295C12.5972 11.3874 12.9469 11.5322 13.3116 11.5322Z" fill="#9F9F9F"/>
<path d="M12.1139 25.9051C13.4519 25.9051 14.5365 24.8296 14.5365 23.503C14.5365 22.1763 13.4519 21.1008 12.1139 21.1008C10.776 21.1008 9.69141 22.1763 9.69141 23.503C9.69141 24.8296 10.776 25.9051 12.1139 25.9051Z" fill="#9F9F9F"/>
<path d="M20.1862 25.9051C21.5241 25.9051 22.6087 24.8296 22.6087 23.503C22.6087 22.1763 21.5241 21.1008 20.1862 21.1008C18.8483 21.1008 17.7637 22.1763 17.7637 23.503C17.7637 24.8296 18.8483 25.9051 20.1862 25.9051Z" fill="#9F9F9F"/>
<path d="M12.1139 33.9122C13.4519 33.9122 14.5365 32.8367 14.5365 31.5101C14.5365 30.1834 13.4519 29.1079 12.1139 29.1079C10.776 29.1079 9.69141 30.1834 9.69141 31.5101C9.69141 32.8367 10.776 33.9122 12.1139 33.9122Z" fill="#9F9F9F"/>
<path d="M28.2624 25.9051C29.6003 25.9051 30.6849 24.8296 30.6849 23.503C30.6849 22.1763 29.6003 21.1008 28.2624 21.1008C26.9244 21.1008 25.8398 22.1763 25.8398 23.503C25.8398 24.8296 26.9244 25.9051 28.2624 25.9051Z" fill="#9F9F9F"/>
<path d="M28.2624 33.9122C29.6003 33.9122 30.6849 32.8367 30.6849 31.5101C30.6849 30.1834 29.6003 29.1079 28.2624 29.1079C26.9244 29.1079 25.8398 30.1834 25.8398 31.5101C25.8398 32.8367 26.9244 33.9122 28.2624 33.9122Z" fill="#9F9F9F"/>
<path d="M20.1862 33.9122C21.5241 33.9122 22.6087 32.8367 22.6087 31.5101C22.6087 30.1834 21.5241 29.1079 20.1862 29.1079C18.8483 29.1079 17.7637 30.1834 17.7637 31.5101C17.7637 32.8367 18.8483 33.9122 20.1862 33.9122Z" fill="#9F9F9F"/>
</svg>
