<svg width="126" height="28" viewBox="0 0 126 28" fill="none" xmlns="http://www.w3.org/2000/svg">
<g opacity="0.8">
<path d="M118.272 27.8287V25.7809L114.74 21.7538H116.22L118.862 24.8298L121.513 21.7538H122.975L119.452 25.7809V27.8287H118.272Z" fill="#F2F2F2"/>
<path d="M100.172 27.8287V21.7538H101.951L104.849 26.5863L107.738 21.7538H109.508V27.8287H108.336V22.8506L105.395 27.8287H104.294L101.352 22.8506V27.8287H100.172Z" fill="#F2F2F2"/>
<path d="M88.4059 27.8287V21.7538H94.5535V22.6364H89.5861V24.3757H94.3773V25.1983H89.5861V26.9376H94.5535V27.8287H88.4059Z" fill="#F2F2F2"/>
<path d="M75.4184 27.8287V21.7538H79.4875C81.381 21.7538 82.7814 23.0391 82.7814 24.787C82.7814 26.5349 81.381 27.8287 79.4875 27.8287H75.4184ZM76.5986 26.8519H79.0295C80.5708 26.8519 81.566 26.0379 81.566 24.787C81.566 23.5446 80.5708 22.7306 79.0295 22.7306H76.5986V26.8519Z" fill="#F2F2F2"/>
<path d="M61.6462 27.8287L65.1075 21.7538H66.6048L70.0485 27.8287H68.789L68.0228 26.4406H63.6807L62.9145 27.8287H61.6462ZM64.1563 25.5838H67.5472L65.8562 22.5078L64.1563 25.5838Z" fill="#F2F2F2"/>
<path d="M53.1922 28.0001C50.8054 28.0001 49.1232 26.732 49.1232 24.787C49.1232 22.8506 50.8054 21.5996 53.1922 21.5996C55.3236 21.5996 56.8913 22.6535 57.0763 24.0587H55.8344C55.6847 23.339 54.7159 22.5678 53.1922 22.5678C51.466 22.5678 50.3474 23.4932 50.3474 24.787C50.3474 26.0893 51.466 27.0233 53.1922 27.0233C54.7159 27.0233 55.6847 26.2436 55.8344 25.5153H57.0763C56.9001 26.9376 55.3236 28.0001 53.1922 28.0001Z" fill="#F2F2F2"/>
<path d="M36.1443 27.8287L39.6056 21.7538H41.1029L44.5466 27.8287H43.2871L42.5209 26.4406H38.1788L37.4126 27.8287H36.1443ZM38.6544 25.5838H42.0453L40.3543 22.5078L38.6544 25.5838Z" fill="#F2F2F2"/>
<path d="M15.4418 22.7306V21.7538H22.6462V22.7306H19.6341V27.8287H18.4627V22.7306H15.4418Z" fill="#F2F2F2"/>
<path d="M8.8125 27.8287V21.7538H9.99269V27.8287H8.8125Z" fill="#F2F2F2"/>
</g>
<path d="M94.6227 16.5592C87.3413 16.5592 84.2207 13.6153 84.2207 8.25659C84.2207 2.92086 87.3413 0 94.6227 0C101.88 0 105.025 2.94386 105.025 8.25659C105.025 13.5923 101.88 16.5592 94.6227 16.5592ZM94.6227 13.0864C99.0436 13.0864 100.769 11.5454 100.769 8.25659C100.769 4.99076 99.0672 3.47283 94.6227 3.47283C90.1782 3.47283 88.4761 4.96776 88.4761 8.25659C88.4761 11.5684 90.2019 13.0864 94.6227 13.0864Z" fill="url(#paint0_linear_2126_631)"/>
<path d="M83.843 0.229986V3.70282H75.8051V16.3292H71.5497V3.70282H63.5118V0.229986H83.843Z" fill="url(#paint1_linear_2126_631)"/>
<path d="M42.5259 8.25659C42.5259 2.92086 45.6465 0 52.9279 0C59.5237 0 62.8335 2.43788 63.259 7.08365H58.9327C58.5308 4.48478 56.4741 3.47283 52.9279 3.47283C48.6016 3.47283 46.7813 4.96776 46.7813 8.25659C46.7813 11.5684 48.6253 13.0864 52.9279 13.0864C56.4504 13.0864 58.5308 12.0514 58.9327 9.42954H63.259C62.8335 14.0983 59.5237 16.5592 52.9279 16.5592C45.6465 16.5592 42.5259 13.6153 42.5259 8.25659Z" fill="url(#paint2_linear_2126_631)"/>
<path d="M41.3485 3.51883H28.1096V6.78466H41.3485V9.77452H28.1096V13.0404H41.3485V16.3292H23.8542V0.229986H41.3485V3.51883Z" fill="url(#paint3_linear_2126_631)"/>
<path d="M18.0617 0.229986H22.8371L14.3264 16.3292H8.51073L0 0.229986H4.77546L11.4186 13.2703L18.0617 0.229986Z" fill="url(#paint4_linear_2126_631)"/>
<path fill-rule="evenodd" clip-rule="evenodd" d="M122.982 0.0947043H106.531V16.3292H110.892V7.99491L118.831 16.3292H126L114.627 4.33299H120.944V8.21195H126V3.56732C126 1.64945 124.649 0.0947043 122.982 0.0947043Z" fill="url(#paint5_linear_2126_631)"/>
<defs>
<linearGradient id="paint0_linear_2126_631" x1="126" y1="1" x2="122.981" y2="25.2663" gradientUnits="userSpaceOnUse">
<stop stop-color="#EBC600"/>
<stop offset="0.25" stop-color="#CC680E"/>
<stop offset="0.504983" stop-color="#F87500"/>
<stop offset="1" stop-color="#9F8CED"/>
</linearGradient>
<linearGradient id="paint1_linear_2126_631" x1="126" y1="1" x2="122.981" y2="25.2663" gradientUnits="userSpaceOnUse">
<stop stop-color="#EBC600"/>
<stop offset="0.25" stop-color="#CC680E"/>
<stop offset="0.504983" stop-color="#F87500"/>
<stop offset="1" stop-color="#9F8CED"/>
</linearGradient>
<linearGradient id="paint2_linear_2126_631" x1="126" y1="1" x2="122.981" y2="25.2663" gradientUnits="userSpaceOnUse">
<stop stop-color="#EBC600"/>
<stop offset="0.25" stop-color="#CC680E"/>
<stop offset="0.504983" stop-color="#F87500"/>
<stop offset="1" stop-color="#9F8CED"/>
</linearGradient>
<linearGradient id="paint3_linear_2126_631" x1="126" y1="1" x2="122.981" y2="25.2663" gradientUnits="userSpaceOnUse">
<stop stop-color="#EBC600"/>
<stop offset="0.25" stop-color="#CC680E"/>
<stop offset="0.504983" stop-color="#F87500"/>
<stop offset="1" stop-color="#9F8CED"/>
</linearGradient>
<linearGradient id="paint4_linear_2126_631" x1="126" y1="1" x2="122.981" y2="25.2663" gradientUnits="userSpaceOnUse">
<stop stop-color="#EBC600"/>
<stop offset="0.25" stop-color="#CC680E"/>
<stop offset="0.504983" stop-color="#F87500"/>
<stop offset="1" stop-color="#9F8CED"/>
</linearGradient>
<linearGradient id="paint5_linear_2126_631" x1="126" y1="1" x2="122.981" y2="25.2663" gradientUnits="userSpaceOnUse">
<stop stop-color="#EBC600"/>
<stop offset="0.25" stop-color="#CC680E"/>
<stop offset="0.504983" stop-color="#F87500"/>
<stop offset="1" stop-color="#9F8CED"/>
</linearGradient>
</defs>
</svg>
