<svg width="150" height="40" viewBox="0 0 150 40" fill="none" xmlns="http://www.w3.org/2000/svg">
<path d="M0.863281 28.9471L0.863284 10.6393L10.073 15.7248V23.9124L17.4408 28.0317L24.8086 23.9124V15.7248L34.0184 10.6393V28.9471L17.4408 38.101L0.863281 28.9471Z" fill="white"/>
<path fill-rule="evenodd" clip-rule="evenodd" d="M5.46816 13.1822L0.863281 10.6394L17.4408 1.48547L34.0184 10.6394L29.4135 13.1822V26.6587L17.4408 33.5242L5.46815 26.6587L5.46816 13.1822ZM28.9147 13.4577L24.8086 15.7249V15.6741L17.4408 11.5548L10.073 15.6741V15.7249L5.96701 13.4577V26.3771L17.4408 32.9565L28.9147 26.3771V13.4577Z" fill="#A1AEBF"/>
<path d="M42.8438 27.5003V12.1217H45.7614V24.8639H52.8345V27.5003H42.8438Z" fill="white"/>
<path d="M59.1336 27.8079C58.0432 27.8079 57.0633 27.5882 56.1939 27.1487C55.3245 26.7094 54.6393 26.0723 54.1383 25.2375C53.6372 24.4026 53.3867 23.3993 53.3867 22.2277V21.8761C53.3867 20.7044 53.6372 19.7011 54.1383 18.8663C54.6393 18.0315 55.3245 17.3944 56.1939 16.955C57.0633 16.5155 58.0432 16.2959 59.1336 16.2959C60.2241 16.2959 61.204 16.5155 62.0734 16.955C62.9428 17.3944 63.628 18.0315 64.129 18.8663C64.63 19.7011 64.8805 20.7044 64.8805 21.8761V22.2277C64.8805 23.3993 64.63 24.4026 64.129 25.2375C63.628 26.0723 62.9428 26.7094 62.0734 27.1487C61.204 27.5882 60.2241 27.8079 59.1336 27.8079ZM59.1336 25.3473C59.9883 25.3473 60.6956 25.0764 61.2555 24.5344C61.8155 23.9779 62.0954 23.1869 62.0954 22.1617V21.9421C62.0954 20.9168 61.8155 20.1332 61.2555 19.5913C60.7103 19.0348 60.003 18.7565 59.1336 18.7565C58.279 18.7565 57.5716 19.0348 57.0117 19.5913C56.4517 20.1332 56.1718 20.9168 56.1718 21.9421V22.1617C56.1718 23.1869 56.4517 23.9779 57.0117 24.5344C57.5716 25.0764 58.279 25.3473 59.1336 25.3473Z" fill="white"/>
<path d="M65.9258 22.0958V21.7443C65.9258 20.6019 66.1541 19.6279 66.611 18.8224C67.0677 18.0022 67.672 17.3797 68.4234 16.955C69.1897 16.5155 70.0223 16.2959 70.9211 16.2959C71.9231 16.2959 72.6821 16.4717 73.1977 16.8232C73.7135 17.1747 74.0893 17.5409 74.325 17.9217H74.7229V16.6034H77.4637V29.4336C77.4637 30.1805 77.2426 30.7737 76.8006 31.2132C76.3585 31.6672 75.7691 31.8942 75.0323 31.8942H67.694V29.4776H74.0598C74.4724 29.4776 74.6787 29.2578 74.6787 28.8185V25.9844H74.2808C74.1334 26.2187 73.9272 26.4604 73.662 26.7094C73.3967 26.9437 73.043 27.1414 72.601 27.3026C72.1589 27.4637 71.5989 27.5443 70.9211 27.5443C70.0223 27.5443 69.1897 27.3318 68.4234 26.9071C67.672 26.4677 67.0677 25.8452 66.611 25.0397C66.1541 24.2195 65.9258 23.2383 65.9258 22.0958ZM71.7169 25.1276C72.5715 25.1276 73.2862 24.8566 73.8609 24.3147C74.4356 23.7729 74.7229 23.0112 74.7229 22.03V21.8102C74.7229 20.8142 74.4356 20.0527 73.8609 19.5254C73.3009 18.9835 72.5863 18.7125 71.7169 18.7125C70.8622 18.7125 70.1474 18.9835 69.5728 19.5254C68.9981 20.0527 68.7108 20.8142 68.7108 21.8102V22.03C68.7108 23.0112 68.9981 23.7729 69.5728 24.3147C70.1474 24.8566 70.8622 25.1276 71.7169 25.1276Z" fill="white"/>
<path d="M84.7742 27.8079C83.6837 27.8079 82.7038 27.5883 81.8344 27.1488C80.965 26.7094 80.2798 26.0723 79.7788 25.2375C79.2778 24.4027 79.0273 23.3994 79.0273 22.2277V21.8761C79.0273 20.7045 79.2778 19.7012 79.7788 18.8663C80.2798 18.0315 80.965 17.3944 81.8344 16.9551C82.7038 16.5156 83.6837 16.2959 84.7742 16.2959C85.8646 16.2959 86.8445 16.5156 87.7139 16.9551C88.5833 17.3944 89.2685 18.0315 89.7695 18.8663C90.2706 19.7012 90.5211 20.7045 90.5211 21.8761V22.2277C90.5211 23.3994 90.2706 24.4027 89.7695 25.2375C89.2685 26.0723 88.5833 26.7094 87.7139 27.1488C86.8445 27.5883 85.8646 27.8079 84.7742 27.8079ZM84.7742 25.3473C85.6288 25.3473 86.3362 25.0764 86.8961 24.5344C87.4561 23.9779 87.7361 23.187 87.7361 22.1617V21.9421C87.7361 20.9169 87.4561 20.1332 86.8961 19.5913C86.3509 19.0348 85.6436 18.7565 84.7742 18.7565C83.9195 18.7565 83.2122 19.0348 82.6522 19.5913C82.0923 20.1332 81.8123 20.9169 81.8123 21.9421V22.1617C81.8123 23.187 82.0923 23.9779 82.6522 24.5344C83.2122 25.0764 83.9195 25.3473 84.7742 25.3473Z" fill="white"/>
<path d="M92.0971 27.5003V16.6034H94.8821V27.5003H92.0971ZM93.4895 15.3292C92.9885 15.3292 92.5612 15.1681 92.2075 14.8459C91.8686 14.5236 91.6992 14.0989 91.6992 13.5717C91.6992 13.0444 91.8686 12.6197 92.2075 12.2974C92.5612 11.9753 92.9885 11.8141 93.4895 11.8141C94.0053 11.8141 94.4326 11.9753 94.7716 12.2974C95.1105 12.6197 95.2799 13.0444 95.2799 13.5717C95.2799 14.0989 95.1105 14.5236 94.7716 14.8459C94.4326 15.1681 94.0053 15.3292 93.4895 15.3292Z" fill="white"/>
<path d="M96.9727 31.8943V16.6035H99.7136V17.9217H100.112C100.362 17.497 100.752 17.1234 101.283 16.8012C101.814 16.4643 102.572 16.2959 103.56 16.2959C104.444 16.2959 105.262 16.5156 106.013 16.9551C106.765 17.3797 107.369 18.0095 107.825 18.8444C108.282 19.6792 108.511 20.6898 108.511 21.8761V22.2277C108.511 23.414 108.282 24.4246 107.825 25.2594C107.369 26.0943 106.765 26.7314 106.013 27.1708C105.262 27.5956 104.444 27.8079 103.56 27.8079C102.896 27.8079 102.336 27.7273 101.879 27.5662C101.437 27.4198 101.076 27.2294 100.797 26.995C100.531 26.746 100.318 26.4971 100.156 26.2481H99.7578V31.8943H96.9727ZM102.72 25.3913C103.589 25.3913 104.304 25.1203 104.864 24.5784C105.438 24.0219 105.725 23.2163 105.725 22.1617V21.9421C105.725 20.8876 105.438 20.0893 104.864 19.5474C104.289 18.9909 103.574 18.7126 102.72 18.7126C101.865 18.7126 101.15 18.9909 100.575 19.5474C100.001 20.0893 99.7136 20.8876 99.7136 21.9421V22.1617C99.7136 23.2163 100.001 24.0219 100.575 24.5784C101.15 25.1203 101.865 25.3913 102.72 25.3913Z" fill="white"/>
<path d="M114.628 27.8079C113.198 27.8079 112.027 27.5003 111.113 26.8852C110.2 26.27 109.647 25.3912 109.455 24.2488L112.02 23.5898C112.123 24.1023 112.292 24.5052 112.528 24.7981C112.779 25.091 113.081 25.3033 113.434 25.4352C113.802 25.5523 114.2 25.611 114.628 25.611C115.276 25.611 115.755 25.501 116.065 25.2814C116.374 25.047 116.529 24.7614 116.529 24.4246C116.529 24.0877 116.382 23.8314 116.086 23.6556C115.792 23.4652 115.321 23.3115 114.672 23.1943L114.053 23.0844C113.286 22.9379 112.586 22.7402 111.953 22.4913C111.32 22.2277 110.811 21.8688 110.428 21.4148C110.045 20.9607 109.853 20.3748 109.853 19.6572C109.853 18.5734 110.251 17.7459 111.047 17.1747C111.842 16.5888 112.889 16.2959 114.185 16.2959C115.409 16.2959 116.426 16.5669 117.235 17.1088C118.046 17.6507 118.577 18.3611 118.828 19.2398L116.241 20.0307C116.124 19.4742 115.881 19.0786 115.512 18.8444C115.158 18.61 114.716 18.4928 114.185 18.4928C113.655 18.4928 113.25 18.588 112.97 18.7784C112.69 18.9542 112.55 19.2032 112.55 19.5254C112.55 19.8769 112.697 20.1405 112.992 20.3163C113.286 20.4774 113.684 20.6019 114.185 20.6898L114.804 20.7996C115.63 20.9461 116.374 21.1438 117.037 21.3928C117.715 21.6271 118.245 21.9713 118.629 22.4254C119.027 22.8648 119.226 23.4652 119.226 24.2269C119.226 25.3693 118.805 26.2554 117.965 26.8852C117.14 27.5003 116.028 27.8079 114.628 27.8079Z" fill="white"/>
<path d="M124.848 27.676C123.994 27.676 123.242 27.4856 122.594 27.1049C121.96 26.7093 121.466 26.1674 121.112 25.4791C120.759 24.7907 120.582 23.9998 120.582 23.1064V16.6034H123.367V22.8867C123.367 23.7068 123.566 24.322 123.964 24.7321C124.376 25.1422 124.959 25.3472 125.71 25.3472C126.564 25.3472 127.228 25.0689 127.7 24.5124C128.171 23.9412 128.407 23.1503 128.407 22.1397V16.6034H131.192V27.5003H128.451V26.0722H128.054C127.876 26.4384 127.545 26.7972 127.059 27.1487C126.572 27.5003 125.835 27.676 124.848 27.676Z" fill="white"/>
<path d="M133.297 27.5004V16.6035H136.037V17.7899H136.435C136.626 17.4237 136.944 17.1088 137.385 16.8451C137.827 16.5669 138.41 16.4278 139.132 16.4278C139.913 16.4278 140.539 16.5815 141.011 16.8891C141.482 17.182 141.843 17.5701 142.094 18.0535H142.491C142.742 17.5848 143.096 17.1967 143.553 16.8891C144.01 16.5815 144.658 16.4278 145.498 16.4278C146.175 16.4278 146.787 16.5742 147.332 16.8672C147.892 17.1454 148.334 17.5774 148.659 18.1634C148.997 18.7345 149.166 19.4595 149.166 20.3383V27.5004H146.381V20.5361C146.381 19.9355 146.227 19.4888 145.917 19.1959C145.608 18.8884 145.173 18.7345 144.614 18.7345C143.98 18.7345 143.486 18.9396 143.132 19.3497C142.794 19.7451 142.624 20.3163 142.624 21.0633V27.5004H139.839V20.5361C139.839 19.9355 139.684 19.4888 139.375 19.1959C139.065 18.8884 138.631 18.7345 138.07 18.7345C137.437 18.7345 136.944 18.9396 136.59 19.3497C136.251 19.7451 136.081 20.3163 136.081 21.0633V27.5004H133.297Z" fill="white"/>
</svg>
