<svg width="200" height="36" viewBox="0 0 200 36" fill="none" xmlns="http://www.w3.org/2000/svg">
<path fill-rule="evenodd" clip-rule="evenodd" d="M11.8804 14.2968C17.5975 12.8437 18.7124 8.34099 16.88 5.34638C16.0477 3.94586 14.6806 2.90778 13.0653 2.44975C11.4501 1.99172 9.71203 2.14932 8.21562 2.88951C0.398652 6.77079 -1.38123 20.4007 0.953614 23.2209C2.20353 18.2713 6.14826 15.7475 11.8679 14.2968H11.8804ZM25.8019 21.7056C20.0823 23.1563 18.9674 27.659 20.7873 30.6536C21.62 32.0537 22.9872 33.0913 24.6025 33.5489C26.2177 34.0064 27.9555 33.8485 29.4517 33.1081C37.2686 29.2196 39.0485 15.5969 36.7162 12.7792C35.4663 17.7287 31.519 20.2525 25.8019 21.7056ZM14.9677 24.6548C16.4851 30.1231 19.1249 33.8944 24.302 35.0894C21.3522 37.3192 7.09569 35.6199 3.03597 28.1442C2.26167 26.7142 2.09652 25.0531 2.57515 23.5092C3.05378 21.9654 4.139 20.6586 5.6033 19.863C8.73308 18.1207 13.4453 19.1866 14.9652 24.6429L14.9677 24.6548ZM22.7171 11.3452C21.1997 5.87696 18.5599 2.1056 13.3828 0.910626C16.3301 -1.3192 30.5891 0.380055 34.6463 7.85583C35.4206 9.28583 35.5858 10.9469 35.1071 12.4908C34.6285 14.0346 33.5433 15.3414 32.079 16.137C28.9467 17.8793 24.237 16.8134 22.7171 11.3571V11.3452Z" fill="#FD5009"/>
<path fill-rule="evenodd" clip-rule="evenodd" d="M48.7704 16.2018H50.6602C52.4418 16.2018 53.6342 15.8831 54.2375 15.2458C54.8408 14.6085 55.1399 13.3338 55.1349 11.4219C55.1349 9.64217 54.8225 8.42726 54.1975 7.7772C53.5775 7.12952 52.4026 6.80448 50.6602 6.80448H48.7704V16.1946V16.2018ZM59.5196 18.9335C57.9997 20.2384 55.0449 20.8893 50.6552 20.8861H48.7654V33.3139H42.1008V2.12735H51.9802C55.5182 2.12735 58.0414 2.83397 59.5496 4.24723C61.0579 5.66049 61.8078 8.02655 61.7995 11.3454C61.7995 13.7497 61.5495 17.1888 59.5146 18.9335H59.5196ZM69.194 33.94C72.1938 33.94 74.4344 33.3394 75.916 32.138C77.3976 30.9367 78.1117 29.1362 78.0584 26.7367V26.0962H72.1313V26.7367C72.1938 28.0942 72.0363 29.0597 71.6663 29.6405C71.2963 30.2213 70.6489 30.5152 69.7114 30.5152C68.7265 30.5152 68.0716 30.1089 67.7566 29.3011C67.4416 28.4933 67.2841 26.8204 67.2841 24.3013V23.6369H78.0634V20.4774C78.0634 16.9243 77.4801 14.5081 76.3135 13.2287C75.1469 11.9493 72.9462 11.3048 69.7114 11.2952C66.6467 11.2952 64.4876 12.0369 63.2344 13.5203C61.9811 15.0036 61.3528 17.5513 61.3495 21.1633V25.4652C61.3495 28.4638 61.9636 30.6284 63.1919 31.9588C64.4201 33.2892 66.42 33.9528 69.1915 33.9496L69.194 33.94ZM72.1263 20.3173H67.2841V20.0066C67.2841 17.956 67.4516 16.5603 67.7841 15.8289C68.1165 15.0976 68.7615 14.72 69.7064 14.72C70.6514 14.72 71.2813 15.0283 71.6213 15.6401C71.9613 16.252 72.1213 17.4063 72.1213 19.1032V20.3173H72.1263ZM79.6483 11.7732H85.3479V14.579C85.5468 14.2003 85.7758 13.8368 86.0328 13.4916C87.0961 12.201 88.8976 11.4792 91.4375 11.3263V16.1922C91.0119 16.1134 90.5781 16.0829 90.145 16.1014C88.4202 16.1014 87.2227 16.5101 86.5453 17.3155C85.8678 18.1209 85.5604 19.5262 85.6229 21.5171V33.4668H79.6483V11.7732ZM101.539 15.6186V33.4716H95.5597V15.6186H92.3999V11.7732H95.5597V8.25758C95.5597 6.13769 96.0596 4.56271 97.0796 3.54459C98.0995 2.52647 99.6644 2.00546 101.767 2.00546C102.825 2.00286 103.883 2.06032 104.934 2.17753V5.91781L104.077 5.89869C103.154 5.89869 102.499 6.07077 102.114 6.42448C101.729 6.77819 101.539 7.38047 101.539 8.25758V11.7732H104.934V15.6186H101.539ZM172.557 11.7732H178.167V13.8692L178.192 13.8477C179.356 12.1484 181.091 11.2952 183.376 11.2952C185.346 11.2952 186.822 11.7955 187.803 12.7961C188.197 13.2042 188.509 13.6771 188.726 14.1918C188.86 13.9227 189.028 13.67 189.226 13.439C190.384 12.005 192.051 11.288 194.225 11.288C196.149 11.288 197.593 11.8258 198.558 12.9013C199.52 13.9815 200 15.5947 200 17.7672V33.4549H194.02V18.2261C194.02 17.2534 193.838 16.5053 193.468 15.9724C193.301 15.7199 193.068 15.5138 192.791 15.3745C192.515 15.2353 192.205 15.1678 191.893 15.1789C191.511 15.1575 191.13 15.2318 190.787 15.3945C190.444 15.5571 190.152 15.8024 189.938 16.1062C189.498 16.726 189.277 17.6469 189.276 18.869V33.4764H183.296V18.2667C183.296 17.2797 183.116 16.5173 182.746 15.9819C182.58 15.726 182.345 15.5167 182.067 15.3749C181.789 15.233 181.476 15.1638 181.161 15.1741C180.129 15.1741 179.411 15.5517 179.034 16.2974C178.656 17.0431 178.477 18.3504 178.534 20.1906V33.4716H172.557V11.7732ZM160.245 26.9781C160.245 28.0727 160.41 28.8566 160.745 29.3465C161.08 29.8365 161.635 30.0635 162.385 30.0635C163.4 30.0635 164.102 29.6859 164.497 28.9403C164.892 28.1946 165.057 26.8873 164.997 25.0494V11.7732H170.977V33.4716H165.365V31.3206C163.782 33.0478 161.948 33.9177 159.865 33.9305C157.99 33.9305 156.58 33.4095 155.651 32.3627C154.721 31.3159 154.258 29.7337 154.258 27.6545V11.7732H160.238V26.9781H160.245ZM152.681 33.67C151.356 33.8543 150.019 33.9422 148.681 33.9329C146.791 33.9329 145.368 33.3951 144.411 32.3196C143.455 31.2442 142.977 29.6373 142.979 27.4991V15.6186H139.799V11.7732H142.984V8.30299L148.964 5.94171V11.7732H152.681V15.6186H148.964V27.5063C148.964 28.5531 149.081 29.2414 149.308 29.564C149.536 29.8867 150.043 30.042 150.808 30.042C151.433 30.0298 152.056 29.9875 152.676 29.9153V33.6724L152.681 33.67ZM138.889 15.6115C139.163 16.6136 139.294 17.6468 139.277 18.6826V19.5884H133.345V18.9431C133.405 17.6621 133.29 16.7037 132.99 16.0751C132.881 15.7892 132.681 15.5432 132.418 15.3717C132.155 15.2001 131.843 15.1118 131.525 15.1191C130.781 15.1191 130.269 15.4059 129.987 15.9795C129.706 16.5531 129.564 17.5991 129.562 19.1175V25.2286C129.562 27.2195 129.687 28.534 129.932 29.1649C130.177 29.7959 130.682 30.1209 131.452 30.1209C132.222 30.1209 132.702 29.8484 132.997 29.3131C133.292 28.7777 133.405 27.8791 133.345 26.6292V25.3458H139.277V26.6292C139.322 29.0717 138.691 30.904 137.384 32.1261C136.078 33.3481 134.1 33.9568 131.452 33.952C128.687 33.952 126.692 33.3035 125.465 32.0066C124.239 30.7096 123.627 28.6025 123.63 25.6851V19.5716C123.63 16.6527 124.242 14.5455 125.465 13.2502C126.688 11.9548 128.684 11.3032 131.452 11.2952C134.202 11.2952 136.202 11.9046 137.452 13.1283C138.184 13.8333 138.569 14.6842 138.884 15.6091L138.889 15.6115ZM116.111 20.3197V19.1056C116.111 17.4087 115.946 16.252 115.611 15.6425C115.276 15.0331 114.636 14.7224 113.698 14.7224C112.761 14.7224 112.114 15.0928 111.776 15.8313C111.439 16.5698 111.276 17.9584 111.276 20.009V20.3197H116.111ZM113.181 33.9424C110.413 33.9424 108.413 33.2788 107.181 31.9516C105.95 30.6244 105.338 28.4591 105.347 25.4557V21.1538C105.347 17.5402 105.974 14.9957 107.229 13.5203C108.484 12.0449 110.639 11.3032 113.693 11.2952C116.923 11.2952 119.121 11.9365 120.285 13.2191C121.45 14.5017 122.034 16.918 122.035 20.4679V23.6274H111.266V24.2918C111.266 26.8108 111.424 28.4774 111.739 29.2916C112.054 30.0994 112.709 30.5057 113.693 30.5057C114.631 30.5057 115.286 30.2117 115.646 29.6309C116.006 29.0502 116.173 28.0846 116.111 26.7272V26.0866H122.045V26.7272C122.093 29.1171 121.373 30.9287 119.9 32.1284C118.428 33.3282 116.183 33.94 113.181 33.94V33.9424Z" fill="#414141"/>
</svg>
