<svg width="250" height="41" viewBox="0 0 250 41" fill="none" xmlns="http://www.w3.org/2000/svg">
<g clip-path="url(#clip0_1107_625)">
<path fill-rule="evenodd" clip-rule="evenodd" d="M21.1843 16.8364H25.4211H38.1314V20.8205H25.4211V32.7731H29.6579V28.7889V24.8048H33.8949H38.1314V28.7889H33.8949V32.7731H38.1314V36.7574H21.1843V36.7572V32.7731V20.8205V16.8364Z" fill="white"/>
<path fill-rule="evenodd" clip-rule="evenodd" d="M38.1313 0.900391V4.88449H0V0.900391H38.1313Z" fill="white"/>
<path fill-rule="evenodd" clip-rule="evenodd" d="M38.1313 8.86865V12.8528H21.1841V8.86865H38.1313ZM16.9472 12.8528V36.7575H12.7104V12.8528H8.47358V36.7575H4.23679V12.8528H0V8.86865H4.23679H8.47358H12.7104H16.9472V12.8528V12.8528Z" fill="white"/>
<path d="M50.8901 14.5682V3.04795H45.0598V1.55044H58.441V3.04795H52.6107V14.5682H50.8901ZM59.1857 14.5682V1.55044H70.0756V3.04795H60.9065V6.86378H66.4542V8.36129H60.9065V13.0709H70.6406V14.5682H59.1857V14.5682ZM84.2486 10.4142L85.6355 11.3803C85.0019 12.5113 84.1288 13.3847 83.0243 13.9926C81.9242 14.6005 80.6701 14.9064 79.2617 14.9064C77.1898 14.9064 75.4776 14.2623 74.125 12.9783C72.7766 11.6941 72.1003 10.064 72.1003 8.08762C72.1003 6.1071 72.7766 4.47285 74.1292 3.18884C75.4862 1.90464 77.1942 1.26074 79.2575 1.26074C80.5373 1.26074 81.706 1.52234 82.7589 2.04967C83.8119 2.57701 84.6681 3.32972 85.3272 4.30386L83.8847 5.26989C83.4523 4.49303 82.8231 3.8812 82.0056 3.44232C81.1879 3.00363 80.2719 2.78221 79.2617 2.78221C77.7079 2.78221 76.4195 3.2854 75.4006 4.28764C74.3819 5.29006 73.8725 6.55786 73.8725 8.08762C73.8725 9.62116 74.3819 10.8891 75.4006 11.8874C76.4195 12.8857 77.7079 13.3847 79.2617 13.3847C80.3489 13.3847 81.3121 13.1313 82.1554 12.6281C82.9986 12.1249 83.6964 11.3882 84.2486 10.4142V10.4142ZM88.7174 14.5682V1.55044H90.4639V6.69479H98.6313V1.55044H100.352V14.5682H98.6313V8.19211H90.4639V14.5682H88.7174ZM104.543 14.5682V1.55044H105.446L114.431 11.2795V1.55044H116.152V14.5682H115.274L106.263 4.83912V14.5682H104.543ZM126.343 13.3847C127.897 13.3847 129.186 12.8857 130.209 11.8874C131.228 10.8891 131.737 9.62116 131.737 8.08762C131.737 6.54994 131.228 5.27799 130.213 4.27972C129.199 3.28144 127.906 2.78221 126.343 2.78221C124.79 2.78221 123.501 3.2854 122.478 4.28764C121.46 5.29006 120.95 6.55786 120.95 8.08762C120.95 9.62116 121.46 10.8891 122.478 11.8874C123.501 12.8857 124.79 13.3847 126.343 13.3847V13.3847ZM126.339 14.9064C124.263 14.9064 122.551 14.2623 121.203 12.9783C119.854 11.6941 119.178 10.064 119.178 8.08762C119.178 6.1071 119.854 4.47285 121.211 3.18884C122.564 1.90464 124.272 1.26074 126.339 1.26074C128.411 1.26074 130.128 1.90464 131.493 3.19676C132.854 4.48492 133.535 6.11521 133.535 8.08762C133.535 10.064 132.854 11.6941 131.497 12.9783C130.14 14.2623 128.42 14.9064 126.339 14.9064V14.9064ZM147.605 10.4142L148.992 11.3803C148.359 12.5113 147.486 13.3847 146.381 13.9926C145.281 14.6005 144.027 14.9064 142.618 14.9064C140.547 14.9064 138.834 14.2623 137.482 12.9783C136.133 11.6941 135.457 10.064 135.457 8.08762C135.457 6.1071 136.133 4.47285 137.486 3.18884C138.843 1.90464 140.551 1.26074 142.614 1.26074C143.894 1.26074 145.063 1.52234 146.116 2.04967C147.169 2.57701 148.025 3.32972 148.684 4.30386L147.241 5.26989C146.809 4.49303 146.18 3.8812 145.362 3.44232C144.545 3.00363 143.629 2.78221 142.618 2.78221C141.065 2.78221 139.776 3.2854 138.757 4.28764C137.739 5.29006 137.229 6.55786 137.229 8.08762C137.229 9.62116 137.739 10.8891 138.757 11.8874C139.776 12.8857 141.065 13.3847 142.618 13.3847C143.706 13.3847 144.669 13.1313 145.512 12.6281C146.355 12.1249 147.053 11.3882 147.605 10.4142ZM158.135 13.3847C159.689 13.3847 160.978 12.8857 162.001 11.8874C163.02 10.8891 163.529 9.62116 163.529 8.08762C163.529 6.54994 163.02 5.27799 162.005 4.27972C160.991 3.28144 159.698 2.78221 158.135 2.78221C156.582 2.78221 155.293 3.2854 154.27 4.28764C153.251 5.29006 152.742 6.55786 152.742 8.08762C152.742 9.62116 153.251 10.8891 154.27 11.8874C155.293 12.8857 156.582 13.3847 158.135 13.3847ZM158.131 14.9064C156.055 14.9064 154.343 14.2623 152.994 12.9783C151.646 11.6941 150.97 10.064 150.97 8.08762C150.97 6.1071 151.646 4.47285 153.003 3.18884C154.356 1.90464 156.064 1.26074 158.131 1.26074C160.203 1.26074 161.919 1.90464 163.285 3.19676C164.646 4.48492 165.327 6.11521 165.327 8.08762C165.327 10.064 164.646 11.6941 163.289 12.9783C161.932 14.2623 160.212 14.9064 158.131 14.9064V14.9064ZM169.997 7.34697H176.11C176.979 7.34697 177.638 7.16573 178.083 6.80343C178.532 6.44526 178.755 5.91397 178.755 5.2135C178.755 4.5332 178.532 3.99794 178.083 3.61942C177.638 3.23712 177.009 3.04795 176.195 3.04795H169.997V7.34697V7.34697ZM168.276 14.5682V1.55044H176.221C177.574 1.55044 178.631 1.87257 179.401 2.51251C180.168 3.15262 180.553 4.03812 180.553 5.16918C180.553 6.11106 180.253 6.91621 179.654 7.58839C179.05 8.26058 178.259 8.67927 177.274 8.8443L180.733 14.5682H178.832L175.369 8.86844H169.997V14.5682H168.276V14.5682ZM185.334 7.34697H191.447C192.316 7.34697 192.975 7.16573 193.42 6.80343C193.87 6.44526 194.092 5.91397 194.092 5.2135C194.092 4.5332 193.87 3.99794 193.42 3.61942C192.975 3.23712 192.346 3.04795 191.533 3.04795H185.334V7.34697V7.34697ZM183.613 14.5682V1.55044H191.558C192.902 1.55044 193.96 1.86446 194.73 2.49251C195.505 3.12037 195.89 3.98173 195.89 5.07261C195.89 6.20367 195.518 7.12141 194.769 7.81792C194.024 8.51821 193.026 8.86844 191.785 8.86844H185.334V14.5682H183.613V14.5682Z" fill="white"/>
<path fill-rule="evenodd" clip-rule="evenodd" d="M79.2572 1.32918C77.2119 1.32918 75.523 1.96673 74.1807 3.23701C72.843 4.50686 72.173 6.1231 72.173 8.08742C72.173 10.0475 72.843 11.6597 74.1766 12.9298C75.5144 14.1997 77.2074 14.8375 79.2614 14.8375C80.658 14.8375 81.8992 14.5343 82.987 13.9332L82.9871 13.9332C84.0622 13.3415 84.9161 12.4953 85.5412 11.4L84.2725 10.5163C83.7218 11.4645 83.0293 12.1875 82.1942 12.6858C81.3383 13.1965 80.3614 13.4532 79.2614 13.4532C77.689 13.4532 76.3811 12.9474 75.3476 11.9347C74.3144 10.9222 73.7992 9.63655 73.7992 8.08742C73.7992 6.542 74.3145 5.25659 75.3475 4.24001C76.3809 3.22346 77.6888 2.71336 79.2614 2.71336C80.2834 2.71336 81.212 2.9375 82.0415 3.3825L82.0415 3.38251C82.8465 3.81468 83.4722 4.41272 83.9097 5.16847L85.2278 4.28571C84.5805 3.34777 83.746 2.6217 82.7243 2.11005C81.6828 1.58844 80.526 1.32918 79.2572 1.32918ZM84.2482 10.414L84.2917 10.3589L85.7289 11.3599L85.6997 11.412C85.0602 12.5537 84.1779 13.4369 83.0609 14.0516C81.9485 14.6663 80.6814 14.9748 79.2614 14.9748C77.1717 14.9748 75.4403 14.3245 74.0728 13.0264L74.0728 13.0263C72.7096 11.728 72.027 10.08 72.027 8.08742C72.027 6.09073 72.7095 4.4385 74.0771 3.14032L74.0771 3.14025C75.4489 1.84214 77.176 1.19189 79.2572 1.19189C80.5479 1.19189 81.7286 1.45583 82.793 1.98888C83.8574 2.52198 84.7229 3.28303 85.3885 4.26681L85.4257 4.32177L83.8586 5.37126L83.8197 5.30151C83.3939 4.53641 82.7746 3.93417 81.9691 3.50174C81.1632 3.06935 80.2598 2.85065 79.2614 2.85065C77.7264 2.85065 76.4574 3.34694 75.4531 4.33487C74.4488 5.32313 73.9452 6.57332 73.9452 8.08742C73.9452 9.60536 74.4488 10.8556 75.453 11.8397C76.4572 12.8236 77.7262 13.3159 79.2614 13.3159C80.3359 13.3159 81.2853 13.0656 82.116 12.5699C82.9469 12.0741 83.6366 11.347 84.1838 10.3817L84.2482 10.414ZM126.339 1.32918C124.289 1.32918 122.601 1.96676 121.263 3.23693L121.263 3.23702C119.921 4.50685 119.251 6.12307 119.251 8.08742C119.251 10.0476 119.921 11.6598 121.254 12.9299C122.588 14.1997 124.281 14.8375 126.339 14.8375C128.402 14.8375 130.103 14.1997 131.445 12.9297C132.787 11.6596 133.462 10.0474 133.462 8.08742C133.462 6.13141 132.787 4.51907 131.441 3.24494C130.09 1.96678 128.393 1.32918 126.339 1.32918ZM121.159 3.14033C122.526 1.84211 124.254 1.19189 126.339 1.19189C128.429 1.19189 130.164 1.84209 131.544 3.14817C132.92 4.45036 133.608 6.09859 133.608 8.08742C133.608 10.0802 132.921 11.7282 131.549 13.0265C130.177 14.3245 128.437 14.9748 126.339 14.9748C124.245 14.9748 122.514 14.3245 121.15 13.0263C119.787 11.728 119.105 10.08 119.105 8.08742C119.105 6.09076 119.787 4.43851 121.159 3.14033ZM142.614 1.32918C140.569 1.32918 138.88 1.96673 137.537 3.23701C136.2 4.50686 135.53 6.1231 135.53 8.08742C135.53 10.0475 136.2 11.6597 137.533 12.9298C138.871 14.1997 140.564 14.8375 142.618 14.8375C144.015 14.8375 145.256 14.5343 146.344 13.9332L146.344 13.9332C147.419 13.3415 148.273 12.4953 148.898 11.4L147.629 10.5163C147.078 11.4645 146.386 12.1875 145.551 12.6858C144.695 13.1965 143.718 13.4532 142.618 13.4532C141.046 13.4532 139.738 12.9474 138.704 11.9347C137.671 10.9222 137.156 9.63655 137.156 8.08742C137.156 6.542 137.671 5.25659 138.704 4.24001C139.738 3.22346 141.045 2.71336 142.618 2.71336C143.64 2.71336 144.569 2.9375 145.398 3.3825L145.362 3.44212L145.398 3.38251C146.203 3.81468 146.829 4.41272 147.266 5.16848L148.584 4.28571C147.937 3.34777 147.103 2.6217 146.081 2.11005C145.039 1.58844 143.883 1.32918 142.614 1.32918ZM137.434 3.14025C138.805 1.84214 140.533 1.19189 142.614 1.19189C143.905 1.19189 145.085 1.45583 146.15 1.98888C147.214 2.52198 148.079 3.28303 148.745 4.26681L148.782 4.32177L147.215 5.37126L147.176 5.30151C146.75 4.53641 146.131 3.93416 145.326 3.50174C144.52 3.06935 143.616 2.85065 142.618 2.85065C141.083 2.85065 139.814 3.34694 138.81 4.33487C137.805 5.32313 137.302 6.57332 137.302 8.08742C137.302 9.60536 137.805 10.8556 138.81 11.8397C139.814 12.8236 141.083 13.3159 142.618 13.3159C143.693 13.3159 144.642 13.0656 145.473 12.5699C146.303 12.0741 146.993 11.347 147.54 10.3817L147.58 10.3115L149.086 11.3599L149.056 11.412C148.417 12.5537 147.535 13.4368 146.418 14.0516C145.305 14.6662 144.038 14.9748 142.618 14.9748C140.528 14.9748 138.797 14.3245 137.429 13.0264L137.429 13.0263C136.066 11.728 135.384 10.08 135.384 8.08742C135.384 6.09073 136.066 4.4385 137.434 3.14032L137.434 3.14025ZM158.131 1.32918C156.081 1.32918 154.392 1.96676 153.055 3.23693L153.054 3.23702C151.712 4.50685 151.042 6.12307 151.042 8.08742C151.042 10.0476 151.712 11.6598 153.046 12.9299C154.38 14.1997 156.072 14.8375 158.131 14.8375C160.193 14.8375 161.895 14.1997 163.237 12.9297C164.579 11.6596 165.253 10.0474 165.253 8.08742C165.253 6.13141 164.579 4.51907 163.233 3.24494C161.882 1.96678 160.185 1.32918 158.131 1.32918ZM152.951 3.14024C154.318 1.84208 156.045 1.19189 158.131 1.19189C160.22 1.19189 161.956 1.84209 163.336 3.14817C164.712 4.45036 165.399 6.09859 165.399 8.08742C165.399 10.0802 164.712 11.7282 163.341 13.0265C161.969 14.3245 160.229 14.9748 158.131 14.9748C156.037 14.9748 154.305 14.3245 152.942 13.0263C151.579 11.728 150.896 10.08 150.896 8.08742C150.896 6.09072 151.579 4.43844 152.951 3.14024ZM44.9866 1.48159H58.5137V3.11638H52.6834V14.6367H50.8168V3.11638H44.9866V1.48159ZM45.1326 1.61888V2.9791H50.9628V14.4994H52.5375V2.9791H58.3677V1.61888H45.1326ZM59.1124 1.48159H70.1483V3.11638H60.9792V6.79493H66.5269V8.42972H60.9792V13.0021H70.7133V14.6367H59.1854V14.568H59.1124V1.48159ZM59.2584 14.4994H70.5673V13.1393H60.8332V8.29244H66.3809V6.93222H60.8332V2.9791H70.0023V1.61888H59.2584V14.4994ZM88.644 1.48159H90.5366V6.62594H98.558V1.48159H100.425V14.6367H98.558V8.26055H90.5366V14.6367H88.644V1.48159ZM88.79 1.61888V14.4994H90.3906V8.12327H98.704V14.4994H100.279V1.61888H98.704V6.76322H90.3906V1.61888H88.79ZM104.469 1.48159H105.479L114.358 11.0956V1.48159H116.224V14.6367H115.24L106.336 5.02225V14.6367H104.469V1.48159ZM104.615 1.61888V14.4994H106.19V4.65558L115.307 14.4994H116.078V1.61888H114.504V11.4631L105.412 1.61888H104.615ZM168.203 1.48159H176.221C177.585 1.48159 178.662 1.80681 179.449 2.46086L179.449 2.46098C180.234 3.11636 180.626 4.02193 180.626 5.16897C180.626 6.12574 180.321 6.94682 179.71 7.63229L179.709 7.63248C179.115 8.29448 178.341 8.71481 177.387 8.89372L180.858 14.6367H178.789L175.326 8.93688H170.07V14.6367H168.276V14.568H168.203V1.48159ZM168.349 14.4994H169.924V8.7996H175.411L178.874 14.4994H180.607L177.159 8.79356L177.261 8.77652C178.23 8.61411 179.006 8.20301 179.598 7.5439C180.185 6.88503 180.48 6.09589 180.48 5.16897C180.48 4.05393 180.101 3.18853 179.352 2.56368C178.599 1.93789 177.561 1.61888 176.221 1.61888H168.349V14.4994ZM183.54 1.48159H191.558C192.914 1.48159 193.99 1.79853 194.778 2.44043C195.571 3.08325 195.963 3.96476 195.963 5.0724C195.963 6.21865 195.585 7.15492 194.82 7.86626C194.059 8.58174 193.041 8.93688 191.785 8.93688H185.407V14.6367H183.613V14.568H183.54V1.48159ZM183.686 14.4994H185.261V8.7996H191.785C193.01 8.7996 193.988 8.45427 194.717 7.76917L194.717 7.76904L194.717 7.7689C195.45 7.08726 195.817 6.18813 195.817 5.0724C195.817 3.99836 195.438 3.15721 194.682 2.5443L194.682 2.54417C193.928 1.92999 192.89 1.61888 191.558 1.61888H183.686V14.4994ZM122.425 4.2399C123.463 3.22347 124.771 2.71336 126.343 2.71336C127.924 2.71336 129.236 3.21928 130.266 4.23209C131.295 5.24462 131.81 6.53423 131.81 8.08742C131.81 9.63655 131.294 10.9222 130.261 11.9347L130.261 11.9348C129.224 12.9473 127.916 13.4532 126.343 13.4532C124.771 13.4532 123.463 12.9473 122.425 11.9348L122.425 11.9347C121.392 10.9222 120.877 9.63655 120.877 8.08742C120.877 6.542 121.392 5.25659 122.425 4.24001L122.425 4.2399ZM122.531 4.33486C121.526 5.32313 121.023 6.57332 121.023 8.08742C121.023 9.6053 121.526 10.8556 122.53 11.8396C123.539 12.8236 124.808 13.3159 126.343 13.3159C127.878 13.3159 129.147 12.8237 130.156 11.8397C131.16 10.8556 131.664 9.60536 131.664 8.08742C131.664 6.56524 131.16 5.31096 130.16 4.32693C129.16 3.34319 127.887 2.85065 126.343 2.85065C124.808 2.85065 123.539 3.34689 122.531 4.33486ZM154.217 4.2399C155.255 3.22347 156.562 2.71336 158.135 2.71336C159.716 2.71336 161.028 3.21928 162.057 4.23209C163.086 5.24462 163.602 6.53423 163.602 8.08742C163.602 9.63655 163.086 10.9222 162.053 11.9347L162.053 11.9348C161.015 12.9473 159.708 13.4532 158.135 13.4532C156.563 13.4532 155.255 12.9473 154.217 11.9348L154.217 11.9347C153.184 10.9222 152.669 9.63655 152.669 8.08742C152.669 6.542 153.184 5.25659 154.217 4.24001L154.217 4.2399ZM154.322 4.33497C153.318 5.32322 152.815 6.57337 152.815 8.08742C152.815 9.60536 153.318 10.8556 154.322 11.8397C155.331 12.8237 156.6 13.3159 158.135 13.3159C159.67 13.3159 160.939 12.8237 161.948 11.8397C162.952 10.8556 163.456 9.60536 163.456 8.08742C163.456 6.56524 162.952 5.31096 161.952 4.32693C160.952 3.34319 159.679 2.85065 158.135 2.85065C156.6 2.85065 155.331 3.34693 154.322 4.33497ZM169.924 2.9791H176.195C177.019 2.9791 177.668 3.17092 178.131 3.56808C178.6 3.96242 178.828 4.5181 178.828 5.21329C178.828 5.92782 178.6 6.4808 178.13 6.85545C177.666 7.23248 176.987 7.41541 176.109 7.41541H169.997V7.34677H169.924V2.9791ZM170.07 7.27813H176.109C176.969 7.27813 177.608 7.09868 178.035 6.75131L178.035 6.75108L178.035 6.75085C178.464 6.40918 178.682 5.89961 178.682 5.21329C178.682 4.5479 178.465 4.03306 178.034 3.67035L178.034 3.67013L178.033 3.66991C177.606 3.30276 176.997 3.11638 176.195 3.11638H170.07V7.27813ZM185.261 2.9791H191.532C192.357 2.9791 193.006 3.17092 193.469 3.56808C193.937 3.96242 194.165 4.5181 194.165 5.21329C194.165 5.92782 193.937 6.4808 193.467 6.85545C193.004 7.23248 192.325 7.41541 191.446 7.41541H185.334V7.34677H185.261V2.9791ZM185.407 7.27813H191.446C192.306 7.27813 192.945 7.09868 193.372 6.75131L193.372 6.75108L193.373 6.75085C193.801 6.40918 194.019 5.89961 194.019 5.21329C194.019 4.5479 193.802 4.03306 193.371 3.67035L193.371 3.67013L193.371 3.66991C192.943 3.30276 192.334 3.11638 191.532 3.11638H185.407V7.27813Z" fill="white"/>
<path d="M44.9396 26.6888L45.9842 28.528H45.3954L44.1088 26.6888L45.3954 24.8497H45.9923L44.9396 26.6888ZM46.5005 26.6888L47.5653 28.528H46.9522L45.6898 26.6888L46.9522 24.8497H47.5653L46.5005 26.6888ZM48.1541 28.8184L50.4248 22.9057H51.2677L53.6877 28.8184H52.7963L52.1067 27.0276H49.6343L48.985 28.8184H48.1541ZM49.8602 26.3904H51.8647L51.2476 24.7529C51.0594 24.2555 50.9195 23.8468 50.8281 23.5268C50.7528 23.9059 50.6466 24.2824 50.5095 24.6561L49.8602 26.3904ZM53.7119 28.8184L55.9987 25.737L53.9821 22.9057H54.9138L55.9866 24.4222C56.2098 24.7368 56.3684 24.9787 56.4625 25.1481C56.5943 24.933 56.7502 24.7085 56.9304 24.4746L58.1202 22.9057H58.9712L56.8941 25.6926L59.1325 28.8184H58.1645L56.6763 26.709C56.5929 26.588 56.5069 26.4562 56.4181 26.3137C56.2864 26.5288 56.1923 26.6767 56.1358 26.7574L54.6516 28.8184H53.7119ZM59.7899 28.8184V22.9057H62.0082C62.4599 22.9057 62.8215 22.9662 63.0931 23.0872C63.3674 23.2055 63.5811 23.3897 63.7344 23.6397C63.8903 23.8871 63.9683 24.1466 63.9683 24.4181C63.9683 24.6709 63.8997 24.9088 63.7626 25.132C63.6255 25.3552 63.4184 25.5353 63.1415 25.6725C63.4991 25.7773 63.7734 25.9561 63.9643 26.2089C64.1579 26.4616 64.2547 26.7601 64.2547 27.1042C64.2547 27.3812 64.1955 27.6393 64.0772 27.8786C63.9616 28.1152 63.8177 28.2981 63.6456 28.4271C63.4736 28.5562 63.2571 28.6543 62.9963 28.7216C62.7382 28.7861 62.4209 28.8184 62.0445 28.8184H59.7899ZM60.5723 25.3901H61.8509C62.1977 25.3901 62.4464 25.3673 62.597 25.3216C62.796 25.2624 62.9452 25.1643 63.0447 25.0271C63.1469 24.89 63.198 24.7179 63.198 24.5109C63.198 24.3146 63.1509 24.1425 63.0568 23.9946C62.9627 23.8441 62.8282 23.7419 62.6535 23.6881C62.4787 23.6317 62.1789 23.6034 61.7541 23.6034H60.5723V25.3901ZM60.5723 28.1206H62.0445C62.2972 28.1206 62.4747 28.1112 62.5768 28.0924C62.757 28.0601 62.9076 28.0063 63.0286 27.9311C63.1496 27.8558 63.249 27.7469 63.327 27.6044C63.405 27.4592 63.444 27.2925 63.444 27.1042C63.444 26.8838 63.3875 26.6929 63.2746 26.5315C63.1617 26.3675 63.0044 26.2532 62.8027 26.1887C62.6037 26.1215 62.316 26.0879 61.9396 26.0879H60.5723V28.1206ZM65.0936 25.9387C65.0936 24.9572 65.3571 24.1896 65.8841 23.6357C66.4111 23.0791 67.0913 22.8008 67.9249 22.8008C68.4707 22.8008 68.9628 22.9312 69.401 23.192C69.8393 23.4529 70.1727 23.8172 70.4013 24.285C70.6325 24.7502 70.7481 25.2786 70.7481 25.8701C70.7481 26.4697 70.6271 27.0061 70.3851 27.4793C70.1431 27.9526 69.8003 28.3115 69.3567 28.5562C68.913 28.7982 68.4344 28.9192 67.9208 28.9192C67.3643 28.9192 66.8668 28.7847 66.4286 28.5159C65.9903 28.247 65.6582 27.88 65.4324 27.4148C65.2065 26.9496 65.0936 26.4576 65.0936 25.9387ZM65.9002 25.9508C65.9002 26.6633 66.0911 27.2252 66.4729 27.6366C66.8574 28.0453 67.3387 28.2497 67.9168 28.2497C68.5057 28.2497 68.9896 28.0426 69.3688 27.6286C69.7506 27.2145 69.9415 26.627 69.9415 25.8661C69.9415 25.3848 69.8595 24.9653 69.6955 24.6077C69.5341 24.2474 69.2962 23.9691 68.9816 23.7728C68.6697 23.5739 68.3188 23.4744 67.9289 23.4744C67.375 23.4744 66.8978 23.6653 66.4971 24.0471C66.0992 24.4262 65.9002 25.0608 65.9002 25.9508ZM71.7725 28.8184V22.9057H74.3941C74.9211 22.9057 75.3218 22.9595 75.596 23.067C75.8703 23.1719 76.0894 23.3587 76.2534 23.6276C76.4175 23.8965 76.4995 24.1936 76.4995 24.519C76.4995 24.9384 76.3637 25.292 76.0921 25.5797C75.8205 25.8674 75.4011 26.0502 74.8338 26.1282C75.0408 26.2277 75.1981 26.3258 75.3056 26.4226C75.5342 26.6324 75.7506 26.8945 75.955 27.2091L76.9834 28.8184H75.9993L75.2169 27.5882C74.9884 27.2333 74.8001 26.9617 74.6523 26.7735C74.5044 26.5853 74.3713 26.4536 74.253 26.3783C74.1374 26.303 74.019 26.2506 73.898 26.221C73.8093 26.2022 73.6641 26.1927 73.4625 26.1927H72.555V28.8184H71.7725ZM72.555 25.5152H74.2368C74.5944 25.5152 74.8741 25.4789 75.0757 25.4063C75.2774 25.331 75.4307 25.2127 75.5355 25.0513C75.6404 24.8873 75.6928 24.7099 75.6928 24.519C75.6928 24.2393 75.5906 24.0094 75.3863 23.8293C75.1846 23.6491 74.8647 23.5591 74.4264 23.5591H72.555V25.5152ZM77.4916 25.9387C77.4916 24.9572 77.7551 24.1896 78.2821 23.6357C78.8091 23.0791 79.4894 22.8008 80.3229 22.8008C80.8688 22.8008 81.3608 22.9312 81.7991 23.192C82.2374 23.4529 82.5708 23.8172 82.7993 24.285C83.0306 24.7502 83.1462 25.2786 83.1462 25.8701C83.1462 26.4697 83.0252 27.0061 82.7832 27.4793C82.5412 27.9526 82.1984 28.3115 81.7547 28.5562C81.3111 28.7982 80.8325 28.9192 80.3189 28.9192C79.7623 28.9192 79.2649 28.7847 78.8266 28.5159C78.3883 28.247 78.0563 27.88 77.8304 27.4148C77.6046 26.9496 77.4916 26.4576 77.4916 25.9387ZM78.2983 25.9508C78.2983 26.6633 78.4892 27.2252 78.871 27.6366C79.2555 28.0453 79.7368 28.2497 80.3149 28.2497C80.9037 28.2497 81.3877 28.0426 81.7668 27.6286C82.1486 27.2145 82.3395 26.627 82.3395 25.8661C82.3395 25.3848 82.2575 24.9653 82.0935 24.6077C81.9322 24.2474 81.6942 23.9691 81.3796 23.7728C81.0677 23.5739 80.7169 23.4744 80.327 23.4744C79.7731 23.4744 79.2958 23.6653 78.8952 24.0471C78.4972 24.4262 78.2983 25.0608 78.2983 25.9508ZM85.6629 28.8184V23.6034H83.7149V22.9057H88.4014V23.6034H86.4453V28.8184H85.6629ZM92.7049 28.8184V23.6034H90.7568V22.9057H95.4434V23.6034H93.4873V28.8184H92.7049ZM96.2662 28.8184V22.9057H100.541V23.6034H97.0486V25.4143H100.32V26.108H97.0486V28.1206H100.679V28.8184H96.2662ZM101.158 28.8184L103.445 25.737L101.429 22.9057H102.36L103.433 24.4222C103.656 24.7368 103.815 24.9787 103.909 25.1481C104.041 24.933 104.197 24.7085 104.377 24.4746L105.567 22.9057H106.418L104.341 25.6926L106.579 28.8184H105.611L104.123 26.709C104.04 26.588 103.953 26.4562 103.865 26.3137C103.733 26.5288 103.639 26.6767 103.582 26.7574L102.098 28.8184H101.158ZM107.261 28.8184V22.9057H108.063L111.169 27.5479V22.9057H111.919V28.8184H111.116L108.011 24.1721V28.8184H107.261ZM113 25.9387C113 24.9572 113.263 24.1896 113.79 23.6357C114.317 23.0791 114.998 22.8008 115.831 22.8008C116.377 22.8008 116.869 22.9312 117.307 23.192C117.746 23.4529 118.079 23.8172 118.308 24.285C118.539 24.7502 118.655 25.2786 118.655 25.8701C118.655 26.4697 118.534 27.0061 118.292 27.4793C118.05 27.9526 117.707 28.3115 117.263 28.5562C116.819 28.7982 116.341 28.9192 115.827 28.9192C115.271 28.9192 114.773 28.7847 114.335 28.5159C113.897 28.247 113.565 27.88 113.339 27.4148C113.113 26.9496 113 26.4576 113 25.9387ZM113.807 25.9508C113.807 26.6633 113.998 27.2252 114.379 27.6366C114.764 28.0453 115.245 28.2497 115.823 28.2497C116.412 28.2497 116.896 28.0426 117.275 27.6286C117.657 27.2145 117.848 26.627 117.848 25.8661C117.848 25.3848 117.766 24.9653 117.602 24.6077C117.441 24.2474 117.203 23.9691 116.888 23.7728C116.576 23.5739 116.225 23.4744 115.835 23.4744C115.281 23.4744 114.804 23.6653 114.404 24.0471C114.006 24.4262 113.807 25.0608 113.807 25.9508ZM119.635 28.8184V22.9057H120.417V28.1206H123.329V28.8184H119.635ZM124.027 25.9387C124.027 24.9572 124.29 24.1896 124.817 23.6357C125.344 23.0791 126.025 22.8008 126.858 22.8008C127.404 22.8008 127.896 22.9312 128.334 23.192C128.772 23.4529 129.106 23.8172 129.334 24.285C129.566 24.7502 129.681 25.2786 129.681 25.8701C129.681 26.4697 129.56 27.0061 129.318 27.4793C129.076 27.9526 128.733 28.3115 128.29 28.5562C127.846 28.7982 127.368 28.9192 126.854 28.9192C126.297 28.9192 125.8 28.7847 125.362 28.5159C124.923 28.247 124.591 27.88 124.366 27.4148C124.14 26.9496 124.027 26.4576 124.027 25.9387ZM124.833 25.9508C124.833 26.6633 125.024 27.2252 125.406 27.6366C125.791 28.0453 126.272 28.2497 126.85 28.2497C127.439 28.2497 127.923 28.0426 128.302 27.6286C128.684 27.2145 128.875 26.627 128.875 25.8661C128.875 25.3848 128.793 24.9653 128.629 24.6077C128.467 24.2474 128.229 23.9691 127.915 23.7728C127.603 23.5739 127.252 23.4744 126.862 23.4744C126.308 23.4744 125.831 23.6653 125.43 24.0471C125.032 24.4262 124.833 25.0608 124.833 25.9508ZM133.46 26.4993V25.8056L135.965 25.8015V27.9956C135.581 28.3021 135.184 28.5333 134.775 28.6893C134.367 28.8426 133.947 28.9192 133.517 28.9192C132.936 28.9192 132.408 28.7955 131.932 28.5481C131.459 28.2981 131.101 27.9378 130.859 27.4672C130.617 26.9967 130.496 26.471 130.496 25.8903C130.496 25.3149 130.616 24.7784 130.855 24.281C131.097 23.7809 131.444 23.4098 131.896 23.1678C132.347 22.9258 132.868 22.8049 133.456 22.8049C133.884 22.8049 134.27 22.8748 134.614 23.0146C134.961 23.1517 135.232 23.344 135.429 23.5913C135.625 23.8387 135.774 24.1614 135.876 24.5593L135.17 24.7529C135.082 24.4517 134.972 24.2151 134.84 24.043C134.708 23.871 134.52 23.7338 134.275 23.6317C134.03 23.5268 133.759 23.4744 133.46 23.4744C133.103 23.4744 132.794 23.5295 132.533 23.6397C132.272 23.7473 132.061 23.8898 131.9 24.0672C131.741 24.2447 131.617 24.4396 131.528 24.6521C131.378 25.0177 131.303 25.4143 131.303 25.8419C131.303 26.3689 131.393 26.8098 131.573 27.1647C131.756 27.5197 132.021 27.7832 132.367 27.9553C132.714 28.1273 133.083 28.2134 133.472 28.2134C133.811 28.2134 134.142 28.1488 134.465 28.0198C134.787 27.888 135.032 27.7482 135.199 27.6003V26.4993H133.46ZM137.256 28.8184V22.9057H138.038V28.8184H137.256ZM141.087 28.8184V26.3137L138.808 22.9057H139.76L140.926 24.6884C141.141 25.0218 141.341 25.3552 141.527 25.6886C141.704 25.3794 141.919 25.0312 142.172 24.644L143.318 22.9057H144.229L141.87 26.3137V28.8184H141.087ZM143.668 28.8184L145.939 22.9057H146.782L149.202 28.8184H148.311L147.621 27.0276H145.149L144.499 28.8184H143.668ZM145.374 26.3904H147.379L146.762 24.7529C146.574 24.2555 146.434 23.8468 146.342 23.5268C146.267 23.9059 146.161 24.2824 146.024 24.6561L145.374 26.3904ZM149.795 28.8184V22.9057H150.577V28.1206H153.489V28.8184H149.795ZM153.776 28.8184L156.046 22.9057H156.889L159.309 28.8184H158.418L157.728 27.0276H155.256L154.606 28.8184H153.776ZM155.482 26.3904H157.486L156.869 24.7529C156.681 24.2555 156.541 23.8468 156.45 23.5268C156.374 23.9059 156.268 24.2824 156.131 24.6561L155.482 26.3904ZM159.946 28.8184V22.9057H162.568C163.095 22.9057 163.496 22.9595 163.77 23.067C164.044 23.1719 164.263 23.3587 164.427 23.6276C164.591 23.8965 164.673 24.1936 164.673 24.519C164.673 24.9384 164.538 25.292 164.266 25.5797C163.994 25.8674 163.575 26.0502 163.008 26.1282C163.215 26.2277 163.372 26.3258 163.48 26.4226C163.708 26.6324 163.925 26.8945 164.129 27.2091L165.157 28.8184H164.173L163.391 27.5882C163.162 27.2333 162.974 26.9617 162.826 26.7735C162.678 26.5853 162.545 26.4536 162.427 26.3783C162.311 26.303 162.193 26.2506 162.072 26.221C161.983 26.2022 161.838 26.1927 161.636 26.1927H160.729V28.8184H159.946ZM160.729 25.5152H162.411C162.768 25.5152 163.048 25.4789 163.25 25.4063C163.451 25.331 163.605 25.2127 163.709 25.0513C163.814 24.8873 163.867 24.7099 163.867 24.519C163.867 24.2393 163.765 24.0094 163.56 23.8293C163.359 23.6491 163.039 23.5591 162.6 23.5591H160.729V25.5152ZM166.037 28.8184V22.9057H166.819V28.8184H166.037ZM172.191 28.8184L169.9 22.9057H170.747L172.284 27.201C172.408 27.5452 172.511 27.8679 172.595 28.169C172.686 27.8464 172.792 27.5237 172.913 27.201L174.51 22.9057H175.309L172.994 28.8184H172.191ZM174.748 28.8184L177.019 22.9057H177.862L180.282 28.8184H179.391L178.701 27.0276H176.228L175.579 28.8184H174.748ZM176.454 26.3904H178.459L177.842 24.7529C177.654 24.2555 177.514 23.8468 177.422 23.5268C177.347 23.9059 177.241 24.2824 177.104 24.6561L176.454 26.3904ZM181.637 28.8184L183.908 22.9057H184.751L187.171 28.8184H186.279L185.59 27.0276H183.117L182.468 28.8184H181.637ZM183.343 26.3904H185.348L184.73 24.7529C184.542 24.2555 184.402 23.8468 184.311 23.5268C184.236 23.9059 184.13 24.2824 183.992 24.6561L183.343 26.3904ZM187.195 28.8184L189.482 25.737L187.465 22.9057H188.397L189.469 24.4222C189.693 24.7368 189.851 24.9787 189.945 25.1481C190.077 24.933 190.233 24.7085 190.413 24.4746L191.603 22.9057H192.454L190.377 25.6926L192.615 28.8184H191.647L190.159 26.709C190.076 26.588 189.99 26.4562 189.901 26.3137C189.769 26.5288 189.675 26.6767 189.619 26.7574L188.134 28.8184H187.195ZM193.273 28.8184V22.9057H195.491C195.943 22.9057 196.304 22.9662 196.576 23.0872C196.85 23.2055 197.064 23.3897 197.217 23.6397C197.373 23.8871 197.451 24.1466 197.451 24.4181C197.451 24.6709 197.383 24.9088 197.246 25.132C197.108 25.3552 196.901 25.5353 196.624 25.6725C196.982 25.7773 197.256 25.9561 197.447 26.2089C197.641 26.4616 197.738 26.7601 197.738 27.1042C197.738 27.3812 197.678 27.6393 197.56 27.8786C197.444 28.1152 197.301 28.2981 197.129 28.4271C196.956 28.5562 196.74 28.6543 196.479 28.7216C196.221 28.7861 195.904 28.8184 195.527 28.8184H193.273ZM194.055 25.3901H195.334C195.681 25.3901 195.929 25.3673 196.08 25.3216C196.279 25.2624 196.428 25.1643 196.528 25.0271C196.63 24.89 196.681 24.7179 196.681 24.5109C196.681 24.3146 196.634 24.1425 196.54 23.9946C196.446 23.8441 196.311 23.7419 196.136 23.6881C195.962 23.6317 195.662 23.6034 195.237 23.6034H194.055V25.3901ZM194.055 28.1206H195.527C195.78 28.1206 195.958 28.1112 196.06 28.0924C196.24 28.0601 196.39 28.0063 196.511 27.9311C196.632 27.8558 196.732 27.7469 196.81 27.6044C196.888 27.4592 196.927 27.2925 196.927 27.1042C196.927 26.8838 196.87 26.6929 196.757 26.5315C196.645 26.3675 196.487 26.2532 196.286 26.1887C196.087 26.1215 195.799 26.0879 195.422 26.0879H194.055V28.1206ZM198.576 25.9387C198.576 24.9572 198.84 24.1896 199.367 23.6357C199.894 23.0791 200.574 22.8008 201.408 22.8008C201.954 22.8008 202.446 22.9312 202.884 23.192C203.322 23.4529 203.656 23.8172 203.884 24.285C204.115 24.7502 204.231 25.2786 204.231 25.8701C204.231 26.4697 204.11 27.0061 203.868 27.4793C203.626 27.9526 203.283 28.3115 202.84 28.5562C202.396 28.7982 201.917 28.9192 201.404 28.9192C200.847 28.9192 200.35 28.7847 199.911 28.5159C199.473 28.247 199.141 27.88 198.915 27.4148C198.689 26.9496 198.576 26.4576 198.576 25.9387ZM199.383 25.9508C199.383 26.6633 199.574 27.2252 199.956 27.6366C200.34 28.0453 200.822 28.2497 201.4 28.2497C201.989 28.2497 202.473 28.0426 202.852 27.6286C203.233 27.2145 203.424 26.627 203.424 25.8661C203.424 25.3848 203.342 24.9653 203.178 24.6077C203.017 24.2474 202.779 23.9691 202.464 23.7728C202.153 23.5739 201.802 23.4744 201.412 23.4744C200.858 23.4744 200.381 23.6653 199.98 24.0471C199.582 24.4262 199.383 25.0608 199.383 25.9508ZM205.255 28.8184V22.9057H207.877C208.404 22.9057 208.805 22.9595 209.079 23.067C209.353 23.1719 209.572 23.3587 209.736 23.6276C209.9 23.8965 209.982 24.1936 209.982 24.519C209.982 24.9384 209.847 25.292 209.575 25.5797C209.303 25.8674 208.884 26.0502 208.317 26.1282C208.524 26.2277 208.681 26.3258 208.789 26.4226C209.017 26.6324 209.234 26.8945 209.438 27.2091L210.466 28.8184H209.482L208.7 27.5882C208.471 27.2333 208.283 26.9617 208.135 26.7735C207.987 26.5853 207.854 26.4536 207.736 26.3783C207.62 26.303 207.502 26.2506 207.381 26.221C207.292 26.2022 207.147 26.1927 206.945 26.1927H206.038V28.8184H205.255ZM206.038 25.5152H207.72C208.077 25.5152 208.357 25.4789 208.559 25.4063C208.76 25.331 208.914 25.2127 209.018 25.0513C209.123 24.8873 209.176 24.7099 209.176 24.519C209.176 24.2393 209.074 24.0094 208.869 23.8293C208.668 23.6491 208.348 23.5591 207.909 23.5591H206.038V25.5152ZM210.975 25.9387C210.975 24.9572 211.238 24.1896 211.765 23.6357C212.292 23.0791 212.972 22.8008 213.806 22.8008C214.352 22.8008 214.844 22.9312 215.282 23.192C215.72 23.4529 216.054 23.8172 216.282 24.285C216.513 24.7502 216.629 25.2786 216.629 25.8701C216.629 26.4697 216.508 27.0061 216.266 27.4793C216.024 27.9526 215.681 28.3115 215.238 28.5562C214.794 28.7982 214.315 28.9192 213.802 28.9192C213.245 28.9192 212.748 28.7847 212.31 28.5159C211.871 28.247 211.539 27.88 211.313 27.4148C211.087 26.9496 210.975 26.4576 210.975 25.9387ZM211.781 25.9508C211.781 26.6633 211.972 27.2252 212.354 27.6366C212.738 28.0453 213.22 28.2497 213.798 28.2497C214.387 28.2497 214.871 28.0426 215.25 27.6286C215.632 27.2145 215.822 26.627 215.822 25.8661C215.822 25.3848 215.74 24.9653 215.576 24.6077C215.415 24.2474 215.177 23.9691 214.863 23.7728C214.551 23.5739 214.2 23.4744 213.81 23.4744C213.256 23.4744 212.779 23.6653 212.378 24.0471C211.98 24.4262 211.781 25.0608 211.781 25.9508ZM219.146 28.8184V23.6034H217.198V22.9057H221.884V23.6034H219.928V28.8184H219.146ZM44.2177 37.8184V31.9057H46.8393C47.3663 31.9057 47.7669 31.9595 48.0412 32.067C48.3154 32.1719 48.5346 32.3587 48.6986 32.6276C48.8626 32.8965 48.9446 33.1936 48.9446 33.519C48.9446 33.9384 48.8088 34.292 48.5373 34.5797C48.2657 34.8674 47.8462 35.0502 47.2789 35.1282C47.4859 35.2277 47.6432 35.3258 47.7508 35.4226C47.9793 35.6324 48.1958 35.8945 48.4001 36.2091L49.4286 37.8184H48.4445L47.6621 36.5882C47.4335 36.2333 47.2453 35.9617 47.0974 35.7735C46.9495 35.5853 46.8164 35.4536 46.6981 35.3783C46.5825 35.303 46.4642 35.2506 46.3432 35.221C46.2545 35.2022 46.1093 35.1927 45.9076 35.1927H45.0001V37.8184H44.2177ZM45.0001 34.5152H46.682C47.0396 34.5152 47.3192 34.4789 47.5209 34.4063C47.7226 34.331 47.8758 34.2127 47.9807 34.0513C48.0855 33.8873 48.138 33.7099 48.138 33.519C48.138 33.2393 48.0358 33.0094 47.8315 32.8293C47.6298 32.6491 47.3098 32.5591 46.8716 32.5591H45.0001V34.5152ZM50.1909 37.8184V31.9057H54.4661V32.6034H50.9733V34.4143H54.2442V35.108H50.9733V37.1206H54.6032V37.8184H50.1909ZM55.4179 35.9187L56.156 35.8542C56.1909 36.15 56.2716 36.3933 56.398 36.5842C56.527 36.7724 56.726 36.9257 56.9949 37.044C57.2638 37.1596 57.5663 37.2174 57.9024 37.2174C58.2008 37.2174 58.4643 37.173 58.6929 37.0843C58.9214 36.9956 59.0908 36.8746 59.2011 36.7213C59.314 36.5654 59.3704 36.396 59.3704 36.2131C59.3704 36.0276 59.3167 35.8663 59.2091 35.7292C59.1016 35.5893 58.9241 35.4724 58.6767 35.3783C58.5181 35.3164 58.1672 35.221 57.6241 35.0919C57.0809 34.9602 56.7005 34.8365 56.4827 34.7209C56.2004 34.573 55.9893 34.3901 55.8495 34.1723C55.7123 33.9519 55.6438 33.7058 55.6438 33.4343C55.6438 33.1358 55.7285 32.8575 55.8979 32.5994C56.0673 32.3386 56.3146 32.141 56.64 32.0065C56.9653 31.8721 57.327 31.8049 57.7249 31.8049C58.1632 31.8049 58.549 31.8761 58.8824 32.0186C59.2185 32.1584 59.4767 32.3655 59.6568 32.6397C59.837 32.914 59.9338 33.2245 59.9472 33.5714L59.197 33.6279C59.1567 33.2541 59.0196 32.9718 58.7856 32.7809C58.5544 32.59 58.2116 32.4945 57.7572 32.4945C57.2839 32.4945 56.9384 32.5819 56.7206 32.7567C56.5055 32.9288 56.398 33.1372 56.398 33.3818C56.398 33.5943 56.4746 33.769 56.6279 33.9062C56.7784 34.0433 57.171 34.1844 57.8056 34.3296C58.4428 34.4721 58.8797 34.5972 59.1164 34.7047C59.4605 34.8634 59.7146 35.065 59.8786 35.3097C60.0427 35.5517 60.1247 35.8313 60.1247 36.1486C60.1247 36.4632 60.0346 36.7603 59.8544 37.04C59.6743 37.3169 59.4148 37.5333 59.076 37.6893C58.7399 37.8426 58.3608 37.9192 57.9387 37.9192C57.4036 37.9192 56.9546 37.8412 56.5916 37.6853C56.2313 37.5293 55.9476 37.2954 55.7406 36.9835C55.5362 36.6689 55.4287 36.314 55.4179 35.9187ZM65.0734 31.9057H65.8558V35.3218C65.8558 35.916 65.7886 36.3879 65.6542 36.7375C65.5197 37.087 65.2764 37.372 64.9242 37.5925C64.5746 37.8103 64.1148 37.9192 63.5448 37.9192C62.9909 37.9192 62.5379 37.8237 62.1856 37.6328C61.8334 37.4419 61.582 37.1663 61.4314 36.806C61.2808 36.443 61.2056 35.9483 61.2056 35.3218V31.9057H61.988V35.3178C61.988 35.8313 62.0351 36.2105 62.1292 36.4551C62.226 36.6971 62.39 36.884 62.6212 37.0158C62.8551 37.1475 63.1402 37.2134 63.4763 37.2134C64.0517 37.2134 64.4617 37.083 64.7064 36.8222C64.9511 36.5613 65.0734 36.0599 65.0734 35.3178V31.9057ZM67.1747 37.8184V31.9057H69.7963C70.3233 31.9057 70.7239 31.9595 70.9982 32.067C71.2724 32.1719 71.4916 32.3587 71.6556 32.6276C71.8196 32.8965 71.9016 33.1936 71.9016 33.519C71.9016 33.9384 71.7658 34.292 71.4943 34.5797C71.2227 34.8674 70.8032 35.0502 70.2359 35.1282C70.4429 35.2277 70.6002 35.3258 70.7078 35.4226C70.9363 35.6324 71.1528 35.8945 71.3571 36.2091L72.3856 37.8184H71.4015L70.6191 36.5882C70.3905 36.2333 70.2023 35.9617 70.0544 35.7735C69.9065 35.5853 69.7734 35.4536 69.6551 35.3783C69.5395 35.303 69.4212 35.2506 69.3002 35.221C69.2115 35.2022 69.0663 35.1927 68.8646 35.1927H67.9571V37.8184H67.1747ZM67.9571 34.5152H69.639C69.9966 34.5152 70.2762 34.4789 70.4779 34.4063C70.6796 34.331 70.8328 34.2127 70.9377 34.0513C71.0425 33.8873 71.095 33.7099 71.095 33.519C71.095 33.2393 70.9928 33.0094 70.7884 32.8293C70.5868 32.6491 70.2668 32.5591 69.8285 32.5591H67.9571V34.5152ZM72.8655 35.9187L73.6036 35.8542C73.6386 36.15 73.7192 36.3933 73.8456 36.5842C73.9747 36.7724 74.1737 36.9257 74.4425 37.044C74.7114 37.1596 75.0139 37.2174 75.35 37.2174C75.6485 37.2174 75.912 37.173 76.1405 37.0843C76.3691 36.9956 76.5385 36.8746 76.6487 36.7213C76.7616 36.5654 76.8181 36.396 76.8181 36.2131C76.8181 36.0276 76.7643 35.8663 76.6568 35.7292C76.5492 35.5893 76.3717 35.4724 76.1244 35.3783C75.9657 35.3164 75.6148 35.221 75.0717 35.0919C74.5286 34.9602 74.1481 34.8365 73.9303 34.7209C73.648 34.573 73.4369 34.3901 73.2971 34.1723C73.16 33.9519 73.0914 33.7058 73.0914 33.4343C73.0914 33.1358 73.1761 32.8575 73.3455 32.5994C73.5149 32.3386 73.7623 32.141 74.0876 32.0065C74.413 31.8721 74.7746 31.8049 75.1725 31.8049C75.6108 31.8049 75.9967 31.8761 76.3301 32.0186C76.6662 32.1584 76.9243 32.3655 77.1044 32.6397C77.2846 32.914 77.3814 33.2245 77.3948 33.5714L76.6447 33.6279C76.6043 33.2541 76.4672 32.9718 76.2333 32.7809C76.002 32.59 75.6592 32.4945 75.2048 32.4945C74.7316 32.4945 74.3861 32.5819 74.1683 32.7567C73.9532 32.9288 73.8456 33.1372 73.8456 33.3818C73.8456 33.5943 73.9222 33.769 74.0755 33.9062C74.2261 34.0433 74.6186 34.1844 75.2532 34.3296C75.8905 34.4721 76.3274 34.5972 76.564 34.7047C76.9082 34.8634 77.1623 35.065 77.3263 35.3097C77.4903 35.5517 77.5723 35.8313 77.5723 36.1486C77.5723 36.4632 77.4822 36.7603 77.3021 37.04C77.1219 37.3169 76.8625 37.5333 76.5237 37.6893C76.1876 37.8426 75.8084 37.9192 75.3863 37.9192C74.8512 37.9192 74.4022 37.8412 74.0392 37.6853C73.6789 37.5293 73.3952 37.2954 73.1882 36.9835C72.9839 36.6689 72.8763 36.314 72.8655 35.9187ZM78.6088 37.8184V31.9057H79.3913V37.1206H82.3032V37.8184H78.6088ZM82.5896 37.8184L84.8603 31.9057H85.7032L88.1232 37.8184H87.2318L86.5421 36.0276H84.0698L83.4204 37.8184H82.5896ZM84.2956 35.3904H86.3001L85.6831 33.7529C85.4949 33.2555 85.355 32.8468 85.2636 32.5268C85.1883 32.9059 85.0821 33.2824 84.945 33.6561L84.2956 35.3904ZM88.7604 37.8184V31.9057H91.382C91.909 31.9057 92.3096 31.9595 92.5839 32.067C92.8581 32.1719 93.0773 32.3587 93.2413 32.6276C93.4053 32.8965 93.4873 33.1936 93.4873 33.519C93.4873 33.9384 93.3515 34.292 93.08 34.5797C92.8084 34.8674 92.3889 35.0502 91.8216 35.1282C92.0286 35.2277 92.1859 35.3258 92.2935 35.4226C92.522 35.6324 92.7385 35.8945 92.9428 36.2091L93.9713 37.8184H92.9872L92.2048 36.5882C91.9762 36.2333 91.788 35.9617 91.6401 35.7735C91.4922 35.5853 91.3591 35.4536 91.2408 35.3783C91.1252 35.303 91.0069 35.2506 90.8859 35.221C90.7972 35.2022 90.652 35.1927 90.4503 35.1927H89.5428V37.8184H88.7604ZM89.5428 34.5152H91.2247C91.5823 34.5152 91.8619 34.4789 92.0636 34.4063C92.2653 34.331 92.4185 34.2127 92.5234 34.0513C92.6282 33.8873 92.6807 33.7099 92.6807 33.519C92.6807 33.2393 92.5785 33.0094 92.3742 32.8293C92.1725 32.6491 91.8525 32.5591 91.4143 32.5591H89.5428V34.5152ZM94.8505 37.8184V31.9057H95.633V37.8184H94.8505ZM97.0083 37.8184V31.9057H97.8109L100.916 36.5479V31.9057H101.667V37.8184H100.864L97.7585 33.1721V37.8184H97.0083ZM103.119 37.8184V31.9057H103.901V37.8184H103.119ZM107.595 37.8184V31.9057H110.217C110.744 31.9057 111.145 31.9595 111.419 32.067C111.693 32.1719 111.912 32.3587 112.076 32.6276C112.24 32.8965 112.322 33.1936 112.322 33.519C112.322 33.9384 112.187 34.292 111.915 34.5797C111.643 34.8674 111.224 35.0502 110.657 35.1282C110.864 35.2277 111.021 35.3258 111.129 35.4226C111.357 35.6324 111.574 35.8945 111.778 36.2091L112.806 37.8184H111.822L111.04 36.5882C110.811 36.2333 110.623 35.9617 110.475 35.7735C110.327 35.5853 110.194 35.4536 110.076 35.3783C109.96 35.303 109.842 35.2506 109.721 35.221C109.632 35.2022 109.487 35.1927 109.285 35.1927H108.378V37.8184H107.595ZM108.378 34.5152H110.06C110.417 34.5152 110.697 34.4789 110.899 34.4063C111.1 34.331 111.254 34.2127 111.358 34.0513C111.463 33.8873 111.516 33.7099 111.516 33.519C111.516 33.2393 111.414 33.0094 111.209 32.8293C111.008 32.6491 110.688 32.5591 110.249 32.5591H108.378V34.5152ZM113.686 37.8184V31.9057H114.468V37.8184H113.686ZM117.541 37.8184L115.25 31.9057H116.097L117.634 36.201C117.758 36.5452 117.861 36.8679 117.945 37.169C118.036 36.8464 118.142 36.5237 118.263 36.201L119.86 31.9057H120.659L118.344 37.8184H117.541ZM121.123 34.9387C121.123 33.9572 121.386 33.1896 121.913 32.6357C122.44 32.0791 123.121 31.8008 123.954 31.8008C124.5 31.8008 124.992 31.9312 125.43 32.192C125.869 32.4529 126.202 32.8172 126.431 33.285C126.662 33.7502 126.777 34.2786 126.777 34.8701C126.777 35.4697 126.656 36.0061 126.414 36.4793C126.172 36.9526 125.83 37.3115 125.386 37.5562C124.942 37.7982 124.464 37.9192 123.95 37.9192C123.394 37.9192 122.896 37.7847 122.458 37.5159C122.02 37.247 121.687 36.88 121.462 36.4148C121.236 35.9496 121.123 35.4576 121.123 34.9387ZM121.929 34.9508C121.929 35.6633 122.12 36.2252 122.502 36.6366C122.887 37.0453 123.368 37.2497 123.946 37.2497C124.535 37.2497 125.019 37.0426 125.398 36.6286C125.78 36.2145 125.971 35.627 125.971 34.8661C125.971 34.3848 125.889 33.9653 125.725 33.6077C125.563 33.2474 125.325 32.9691 125.011 32.7728C124.699 32.5739 124.348 32.4744 123.958 32.4744C123.404 32.4744 122.927 32.6653 122.526 33.0471C122.128 33.4262 121.929 34.0608 121.929 34.9508ZM127.39 36.1405L128.096 36.0437C128.115 36.4955 128.2 36.8047 128.35 36.9714C128.501 37.1381 128.709 37.2214 128.975 37.2214C129.172 37.2214 129.341 37.1771 129.484 37.0883C129.626 36.9969 129.724 36.8746 129.778 36.7213C129.832 36.5654 129.859 36.318 129.859 35.9792V31.9057H130.641V35.9349C130.641 36.4296 130.581 36.8127 130.46 37.0843C130.341 37.3559 130.152 37.5629 129.891 37.7054C129.633 37.8479 129.329 37.9192 128.98 37.9192C128.461 37.9192 128.063 37.77 127.786 37.4715C127.511 37.173 127.38 36.7294 127.39 36.1405ZM131.887 37.8184V31.9057H132.67V37.1206H135.582V37.8184H131.887ZM135.868 37.8184L138.139 31.9057H138.982L141.402 37.8184H140.51L139.821 36.0276H137.348L136.699 37.8184H135.868ZM137.574 35.3904H139.579L138.962 33.7529C138.773 33.2555 138.634 32.8468 138.542 32.5268C138.467 32.9059 138.361 33.2824 138.224 33.6561L137.574 35.3904ZM142.019 37.8184V31.9057H142.821L145.927 36.5479V31.9057H146.677V37.8184H145.875L142.769 33.1721V37.8184H142.019ZM149.5 37.8184V32.6034H147.552V31.9057H152.239V32.6034H150.283V37.8184H149.5ZM153.179 37.8184V31.9057H153.961V37.8184H153.179ZM155.357 37.8184V31.9057H157.978C158.505 31.9057 158.906 31.9595 159.18 32.067C159.454 32.1719 159.674 32.3587 159.838 32.6276C160.002 32.8965 160.084 33.1936 160.084 33.519C160.084 33.9384 159.948 34.292 159.676 34.5797C159.405 34.8674 158.985 35.0502 158.418 35.1282C158.625 35.2277 158.782 35.3258 158.89 35.4226C159.118 35.6324 159.335 35.8945 159.539 36.2091L160.568 37.8184H159.583L158.801 36.5882C158.572 36.2333 158.384 35.9617 158.236 35.7735C158.088 35.5853 157.955 35.4536 157.837 35.3783C157.721 35.303 157.603 35.2506 157.482 35.221C157.393 35.2022 157.248 35.1927 157.047 35.1927H156.139V37.8184H155.357ZM156.139 34.5152H157.821C158.179 34.5152 158.458 34.4789 158.66 34.4063C158.862 34.331 159.015 34.2127 159.12 34.0513C159.224 33.8873 159.277 33.7099 159.277 33.519C159.277 33.2393 159.175 33.0094 158.97 32.8293C158.769 32.6491 158.449 32.5591 158.01 32.5591H156.139V34.5152ZM161.447 37.8184V31.9057H162.229V37.8184H161.447ZM163.346 35.9187L164.085 35.8542C164.119 36.15 164.2 36.3933 164.326 36.5842C164.456 36.7724 164.655 36.9257 164.923 37.044C165.192 37.1596 165.495 37.2174 165.831 37.2174C166.129 37.2174 166.393 37.173 166.621 37.0843C166.85 36.9956 167.019 36.8746 167.13 36.7213C167.243 36.5654 167.299 36.396 167.299 36.2131C167.299 36.0276 167.245 35.8663 167.138 35.7292C167.03 35.5893 166.853 35.4724 166.605 35.3783C166.447 35.3164 166.096 35.221 165.553 35.0919C165.009 34.9602 164.629 34.8365 164.411 34.7209C164.129 34.573 163.918 34.3901 163.778 34.1723C163.641 33.9519 163.572 33.7058 163.572 33.4343C163.572 33.1358 163.657 32.8575 163.826 32.5994C163.996 32.3386 164.243 32.141 164.568 32.0065C164.894 31.8721 165.255 31.8049 165.653 31.8049C166.092 31.8049 166.478 31.8761 166.811 32.0186C167.147 32.1584 167.405 32.3655 167.585 32.6397C167.765 32.914 167.862 33.2245 167.876 33.5714L167.126 33.6279C167.085 33.2541 166.948 32.9718 166.714 32.7809C166.483 32.59 166.14 32.4945 165.686 32.4945C165.212 32.4945 164.867 32.5819 164.649 32.7567C164.434 32.9288 164.326 33.1372 164.326 33.3818C164.326 33.5943 164.403 33.769 164.556 33.9062C164.707 34.0433 165.1 34.1844 165.734 34.3296C166.371 34.4721 166.808 34.5972 167.045 34.7047C167.389 34.8634 167.643 35.065 167.807 35.3097C167.971 35.5517 168.053 35.8313 168.053 36.1486C168.053 36.4632 167.963 36.7603 167.783 37.04C167.603 37.3169 167.343 37.5333 167.005 37.6893C166.668 37.8426 166.289 37.9192 165.867 37.9192C165.332 37.9192 164.883 37.8412 164.52 37.6853C164.16 37.5293 163.876 37.2954 163.669 36.9835C163.465 36.6689 163.357 36.314 163.346 35.9187ZM169.146 37.8184V31.9057H169.929V34.3337H173.002V31.9057H173.784V37.8184H173.002V35.0314H169.929V37.8184H169.146ZM177.366 37.8184V31.9057H178.544L179.943 36.0921C180.072 36.482 180.166 36.7738 180.225 36.9674C180.293 36.7522 180.397 36.4363 180.54 36.0196L181.956 31.9057H183.008V37.8184H182.254V32.8696L180.536 37.8184H179.83L178.12 32.7849V37.8184H177.366ZM183.621 37.8184L185.892 31.9057H186.735L189.155 37.8184H188.264L187.574 36.0276H185.102L184.452 37.8184H183.621ZM185.327 35.3904H187.332L186.715 33.7529C186.527 33.2555 186.387 32.8468 186.295 32.5268C186.22 32.9059 186.114 33.2824 185.977 33.6561L185.327 35.3904ZM189.792 37.8184V31.9057H192.414C192.941 31.9057 193.341 31.9595 193.616 32.067C193.89 32.1719 194.109 32.3587 194.273 32.6276C194.437 32.8965 194.519 33.1936 194.519 33.519C194.519 33.9384 194.383 34.292 194.112 34.5797C193.84 34.8674 193.421 35.0502 192.853 35.1282C193.06 35.2277 193.218 35.3258 193.325 35.4226C193.554 35.6324 193.77 35.8945 193.975 36.2091L195.003 37.8184H194.019L193.236 36.5882C193.008 36.2333 192.82 35.9617 192.672 35.7735C192.524 35.5853 192.391 35.4536 192.273 35.3783C192.157 35.303 192.039 35.2506 191.918 35.221C191.829 35.2022 191.684 35.1927 191.482 35.1927H190.575V37.8184H189.792ZM190.575 34.5152H192.256C192.614 34.5152 192.894 34.4789 193.095 34.4063C193.297 34.331 193.45 34.2127 193.555 34.0513C193.66 33.8873 193.712 33.7099 193.712 33.519C193.712 33.2393 193.61 33.0094 193.406 32.8293C193.204 32.6491 192.884 32.5591 192.446 32.5591H190.575V34.5152ZM195.717 37.8184V31.9057H196.499V34.8378L199.436 31.9057H200.496L198.016 34.3014L200.605 37.8184H199.573L197.467 34.8257L196.499 35.7695V37.8184H195.717ZM200.609 37.8184L202.88 31.9057H203.723L206.143 37.8184H205.251L204.562 36.0276H202.089L201.44 37.8184H200.609ZM202.315 35.3904H204.32L203.703 33.7529C203.514 33.2555 203.375 32.8468 203.283 32.5268C203.208 32.9059 203.102 33.2824 202.965 33.6561L202.315 35.3904ZM206.296 37.8184V37.0924L209.325 33.3052C209.54 33.0363 209.744 32.8024 209.938 32.6034H206.639V31.9057H210.874V32.6034L207.554 36.7052L207.195 37.1206H210.97V37.8184H206.296ZM211.951 37.8184V31.9057H212.733V37.8184H211.951ZM216.669 35.6888L215.617 33.8497H216.214L217.5 35.6888L216.214 37.528H215.621L216.669 35.6888ZM215.109 35.6888L214.044 33.8497H214.653L215.919 35.6888L214.653 37.528H214.044L215.109 35.6888ZM220.989 37.8184V31.9057H222.167L223.566 36.0921C223.695 36.482 223.789 36.7738 223.849 36.9674C223.916 36.7522 224.021 36.4363 224.163 36.0196L225.579 31.9057H226.631V37.8184H225.877V32.8696L224.159 37.8184H223.453L221.743 32.7849V37.8184H220.989ZM232.113 35.7453L232.895 35.9429C232.731 36.5855 232.435 37.0762 232.008 37.415C231.583 37.7511 231.063 37.9192 230.447 37.9192C229.81 37.9192 229.291 37.7901 228.89 37.532C228.492 37.2712 228.188 36.8948 227.979 36.4027C227.771 35.9107 227.668 35.3823 227.668 34.8177C227.668 34.2019 227.785 33.6655 228.019 33.2084C228.255 32.7486 228.59 32.4004 229.023 32.1638C229.459 31.9245 229.937 31.8049 230.459 31.8049C231.05 31.8049 231.548 31.9554 231.951 32.2566C232.355 32.5577 232.636 32.9812 232.794 33.527L232.024 33.7085C231.887 33.2783 231.688 32.9651 231.427 32.7688C231.166 32.5725 230.838 32.4744 230.443 32.4744C229.988 32.4744 229.608 32.5833 229.301 32.8011C228.998 33.0188 228.784 33.3119 228.66 33.6803C228.536 34.046 228.475 34.4237 228.475 34.8136C228.475 35.3164 228.547 35.756 228.692 36.1325C228.84 36.5062 229.069 36.7859 229.378 36.9714C229.687 37.1569 230.022 37.2497 230.382 37.2497C230.821 37.2497 231.192 37.1233 231.495 36.8706C231.799 36.6178 232.005 36.2427 232.113 35.7453ZM233.887 37.8184V31.9057H234.67V34.3337H237.743V31.9057H238.525V37.8184H237.743V35.0314H234.67V37.8184H233.887ZM239.433 36.1405L240.139 36.0437C240.157 36.4955 240.242 36.8047 240.393 36.9714C240.543 37.1381 240.752 37.2214 241.018 37.2214C241.214 37.2214 241.384 37.1771 241.526 37.0883C241.669 36.9969 241.767 36.8746 241.82 36.7213C241.874 36.5654 241.901 36.318 241.901 35.9792V31.9057H242.684V35.9349C242.684 36.4296 242.623 36.8127 242.502 37.0843C242.384 37.3559 242.194 37.5629 241.933 37.7054C241.675 37.8479 241.371 37.9192 241.022 37.9192C240.503 37.9192 240.105 37.77 239.828 37.4715C239.554 37.173 239.422 36.7294 239.433 36.1405Z" fill="white"/>
</g>
<defs>
<clipPath id="clip0_1107_625">
<rect width="250" height="40" fill="white" transform="translate(0 0.900391)"/>
</clipPath>
</defs>
</svg>
