<svg width="35" height="35" viewBox="0 0 35 35" fill="none" xmlns="http://www.w3.org/2000/svg">
<g clip-path="url(#clip0_2157_423)">
<path fill-rule="evenodd" clip-rule="evenodd" d="M17.5 0C27.165 0 35 7.83501 35 17.5C35 27.165 27.165 35 17.5 35C7.83501 35 0 27.165 0 17.5C0 7.83501 7.83501 0 17.5 0ZM27.7744 25.5962C28.0245 25.3449 28.1648 25.0047 28.1648 24.6502C28.1648 24.2956 28.0245 23.9555 27.7744 23.7042L24.3489 20.2794C24.0974 20.0292 23.7571 19.8887 23.4024 19.8887C23.0477 19.8887 22.7074 20.0292 22.456 20.2794L21.5251 21.2106C21.216 21.5223 20.8145 21.7259 20.3804 21.7909C19.9462 21.8559 19.5027 21.779 19.1158 21.5715C16.6934 20.2884 14.7121 18.3074 13.4288 15.8851C13.2213 15.4982 13.1442 15.0546 13.2091 14.6203C13.274 14.186 13.4774 13.7843 13.789 13.475L14.7217 12.5439C14.9717 12.2925 15.1121 11.9523 15.1121 11.5977C15.1121 11.2431 14.9717 10.9029 14.7217 10.6514L11.2961 7.22695C11.0447 6.97674 10.7044 6.83628 10.3496 6.83628C9.99492 6.83628 9.65462 6.97674 9.40317 7.22695C9.2616 7.36812 9.0825 7.53867 8.89096 7.71914C8.41196 8.17188 7.81437 8.73537 7.57278 9.08961C6.30041 10.9517 6.91059 13.4428 7.6436 15.205C8.61191 17.5276 10.3965 20.0585 12.6705 22.3309C14.9424 24.603 17.4725 26.3878 19.7964 27.3561C21.5582 28.0902 24.0483 28.6988 25.9103 27.4267C26.2644 27.1849 26.8287 26.5888 27.2805 26.1092C27.4617 25.918 27.6324 25.7373 27.7744 25.5962Z" fill="white"/>
<path fill-rule="evenodd" clip-rule="evenodd" d="M17.5 0C27.165 0 35 7.83501 35 17.5C35 27.165 27.165 35 17.5 35C7.83501 35 0 27.165 0 17.5C0 7.83501 7.83501 0 17.5 0ZM27.7744 25.5962C28.0245 25.3449 28.1648 25.0047 28.1648 24.6502C28.1648 24.2956 28.0245 23.9555 27.7744 23.7042L24.3489 20.2794C24.0974 20.0292 23.7571 19.8887 23.4024 19.8887C23.0477 19.8887 22.7074 20.0292 22.456 20.2794L21.5251 21.2106C21.216 21.5223 20.8145 21.7259 20.3804 21.7909C19.9462 21.8559 19.5027 21.779 19.1158 21.5715C16.6934 20.2884 14.7121 18.3074 13.4288 15.8851C13.2213 15.4982 13.1442 15.0546 13.2091 14.6203C13.274 14.186 13.4774 13.7843 13.789 13.475L14.7217 12.5439C14.9717 12.2925 15.1121 11.9523 15.1121 11.5977C15.1121 11.2431 14.9717 10.9029 14.7217 10.6514L11.2961 7.22695C11.0447 6.97674 10.7044 6.83628 10.3496 6.83628C9.99492 6.83628 9.65462 6.97674 9.40317 7.22695C9.2616 7.36812 9.0825 7.53867 8.89096 7.71914C8.41196 8.17188 7.81437 8.73537 7.57278 9.08961C6.30041 10.9517 6.91059 13.4428 7.6436 15.205C8.61191 17.5276 10.3965 20.0585 12.6705 22.3309C14.9424 24.603 17.4725 26.3878 19.7964 27.3561C21.5582 28.0902 24.0483 28.6988 25.9103 27.4267C26.2644 27.1849 26.8287 26.5888 27.2805 26.1092C27.4617 25.918 27.6324 25.7373 27.7744 25.5962Z" fill="url(#paint0_linear_2157_423)"/>
</g>
<defs>
<linearGradient id="paint0_linear_2157_423" x1="36.25" y1="4.22726" x2="9.08769" y2="29.9192" gradientUnits="userSpaceOnUse">
<stop stop-color="#9DE8EE"/>
<stop offset="0.0001" stop-color="#9DE8EE"/>
<stop offset="0.490049" stop-color="#FA7C0B"/>
<stop offset="1" stop-color="#9F8CED"/>
</linearGradient>
<clipPath id="clip0_2157_423">
<rect width="35" height="35" fill="white"/>
</clipPath>
</defs>
</svg>
