<svg width="69" height="68" viewBox="0 0 69 68" fill="none" xmlns="http://www.w3.org/2000/svg">
<g clip-path="url(#clip0_2152_760)">
<path fill-rule="evenodd" clip-rule="evenodd" d="M68.5 34C68.5 52.7777 53.2777 68 34.5 68C15.7223 68 0.5 52.7777 0.5 34C0.5 15.2223 15.7223 0 34.5 0C53.2777 0 68.5 15.2223 68.5 34ZM35.7184 25.1003C32.4114 26.4758 25.8021 29.3227 15.8904 33.6411C14.2809 34.2811 13.4377 34.9073 13.361 35.5195C13.2313 36.5542 14.527 36.9617 16.2915 37.5165C16.5315 37.592 16.7802 37.6702 17.0352 37.7531C18.7711 38.3174 21.1063 38.9775 22.3203 39.0038C23.4215 39.0275 24.6506 38.5736 26.0075 37.6418C35.2683 31.3905 40.0487 28.2308 40.3489 28.1627C40.5606 28.1146 40.854 28.0542 41.0528 28.2309C41.2516 28.4076 41.2321 28.7422 41.211 28.832C41.0827 29.3792 35.9963 34.1079 33.3642 36.555C32.5436 37.3179 31.9615 37.8591 31.8426 37.9826C31.576 38.2595 31.3044 38.5214 31.0433 38.773C29.4305 40.3278 28.2211 41.4937 31.1102 43.3976C32.4986 44.3125 33.6096 45.0691 34.718 45.8239C35.9285 46.6482 37.1358 47.4704 38.6979 48.4944C39.0959 48.7553 39.476 49.0262 39.8462 49.2902C41.2549 50.2944 42.5205 51.1967 44.084 51.0528C44.9925 50.9692 45.931 50.1149 46.4076 47.567C47.5339 41.5456 49.7479 28.499 50.2596 23.1228C50.3044 22.6517 50.2481 22.0489 50.2028 21.7843C50.1575 21.5197 50.0628 21.1426 49.7189 20.8635C49.3115 20.533 48.6826 20.4633 48.4014 20.4682C47.1226 20.4908 45.1606 21.173 35.7184 25.1003Z" fill="white"/>
<path fill-rule="evenodd" clip-rule="evenodd" d="M68.5 34C68.5 52.7777 53.2777 68 34.5 68C15.7223 68 0.5 52.7777 0.5 34C0.5 15.2223 15.7223 0 34.5 0C53.2777 0 68.5 15.2223 68.5 34ZM35.7184 25.1003C32.4114 26.4758 25.8021 29.3227 15.8904 33.6411C14.2809 34.2811 13.4377 34.9073 13.361 35.5195C13.2313 36.5542 14.527 36.9617 16.2915 37.5165C16.5315 37.592 16.7802 37.6702 17.0352 37.7531C18.7711 38.3174 21.1063 38.9775 22.3203 39.0038C23.4215 39.0275 24.6506 38.5736 26.0075 37.6418C35.2683 31.3905 40.0487 28.2308 40.3489 28.1627C40.5606 28.1146 40.854 28.0542 41.0528 28.2309C41.2516 28.4076 41.2321 28.7422 41.211 28.832C41.0827 29.3792 35.9963 34.1079 33.3642 36.555C32.5436 37.3179 31.9615 37.8591 31.8426 37.9826C31.576 38.2595 31.3044 38.5214 31.0433 38.773C29.4305 40.3278 28.2211 41.4937 31.1102 43.3976C32.4986 44.3125 33.6096 45.0691 34.718 45.8239C35.9285 46.6482 37.1358 47.4704 38.6979 48.4944C39.0959 48.7553 39.476 49.0262 39.8462 49.2902C41.2549 50.2944 42.5205 51.1967 44.084 51.0528C44.9925 50.9692 45.931 50.1149 46.4076 47.567C47.5339 41.5456 49.7479 28.499 50.2596 23.1228C50.3044 22.6517 50.2481 22.0489 50.2028 21.7843C50.1575 21.5197 50.0628 21.1426 49.7189 20.8635C49.3115 20.533 48.6826 20.4633 48.4014 20.4682C47.1226 20.4908 45.1606 21.173 35.7184 25.1003Z" fill="url(#paint0_linear_2152_760)"/>
</g>
<defs>
<linearGradient id="paint0_linear_2152_760" x1="70.9286" y1="8.21296" x2="18.1561" y2="58.1287" gradientUnits="userSpaceOnUse">
<stop stop-color="#9DE8EE"/>
<stop offset="0.0001" stop-color="#9DE8EE"/>
<stop offset="0.490049" stop-color="#FA7C0B"/>
<stop offset="1" stop-color="#9F8CED"/>
</linearGradient>
<clipPath id="clip0_2152_760">
<rect width="68" height="68" fill="white" transform="translate(0.5)"/>
</clipPath>
</defs>
</svg>
