<svg width="44" height="45" viewBox="0 0 44 45" fill="none" xmlns="http://www.w3.org/2000/svg">
<path d="M22 35.551C14.85 35.551 9.16667 29.8677 9.16667 22.7177C9.16667 15.5677 14.85 9.88435 22 9.88435C25.6667 9.88435 29.15 11.5344 31.5333 14.101L28.2333 14.651C27.3167 14.8344 26.5833 15.751 26.7667 16.851C26.95 17.7677 27.6833 18.3177 28.6 18.3177H28.9667L36.6667 16.851C37.5833 16.6677 38.3167 15.751 38.1333 14.651L36.6667 7.13435C36.4833 6.21769 35.5667 5.48435 34.4667 5.66769C33.55 5.85102 32.8167 6.76769 33 7.86769L33.55 10.9844C30.4333 8.05102 26.4 6.21769 22 6.21769C15.95 6.21769 10.6333 9.51769 7.7 14.4677C6.23333 17.0344 5.5 19.7844 5.5 22.7177C5.5 25.651 6.23333 28.401 7.7 30.9677C9.16667 33.5344 11.1833 35.551 13.75 37.0177C16.3167 38.4844 19.0667 39.2177 22 39.2177C22.7333 39.2177 23.4667 38.6677 23.65 38.1177C23.8333 37.9344 23.8333 37.5677 23.8333 37.3844C23.8333 37.201 23.8333 36.8344 23.65 36.651C23.4667 36.101 22.7333 35.551 22 35.551Z" fill="#9F9F9F"/>
<path d="M36.6673 24.5511C37.6798 24.5511 38.5007 23.7303 38.5007 22.7177C38.5007 21.7052 37.6798 20.8844 36.6673 20.8844C35.6548 20.8844 34.834 21.7052 34.834 22.7177C34.834 23.7303 35.6548 24.5511 36.6673 24.5511Z" fill="#9F9F9F"/>
<path d="M36.264 31.0121C36.7702 30.1352 36.4698 29.014 35.5929 28.5077C34.7161 28.0015 33.5948 28.3019 33.0885 29.1788C32.5823 30.0556 32.8827 31.1769 33.7596 31.6831C34.6365 32.1894 35.7577 31.889 36.264 31.0121Z" fill="#9F9F9F"/>
<path d="M30.2218 36.9619C31.0987 36.4556 31.3991 35.3344 30.8929 34.4575C30.3866 33.5806 29.2654 33.2802 28.3885 33.7865C27.5116 34.2927 27.2112 35.414 27.7174 36.2908C28.2237 37.1677 29.345 37.4681 30.2218 36.9619Z" fill="#9F9F9F"/>
<path d="M23.8327 21.9844V17.2177C23.8327 16.1177 23.0993 15.3844 21.9993 15.3844C20.8993 15.3844 20.166 16.1177 20.166 17.2177V22.7177C20.166 23.2677 20.3493 23.6344 20.716 24.0011L24.3827 27.6677C24.7493 28.0344 25.2993 28.2177 25.666 28.2177C26.0327 28.2177 26.5827 28.0344 26.9493 27.6677C27.6827 26.9344 27.6827 25.8344 26.9493 25.1011L23.8327 21.9844Z" fill="#9F9F9F"/>
</svg>
