<svg width="188" height="48" viewBox="0 0 188 48" fill="none" xmlns="http://www.w3.org/2000/svg">
<g clip-path="url(#clip0_945_5626)">
<path d="M11.0987 34.8997C9.30694 34.8997 7.86363 34.6508 6.76868 34.2028C5.62399 33.7052 4.7779 32.9586 4.18068 31.9134C3.63315 30.8682 3.33453 29.4747 3.33453 27.7328V17.6294H0V13.1998H3.33453V7.12793H8.36136V13.1998H13.4379V17.6294H8.36136V27.0857C8.36136 28.1807 8.56041 28.977 8.95858 29.5742C9.30694 30.1715 10.2028 30.4204 11.5466 30.4204H13.2886V34.8997H11.0987ZM26.3781 35.1485C23.2426 35.1485 20.8536 34.3521 19.1615 32.7595C17.5191 31.1171 16.673 28.6287 16.673 25.3438V13.1999H21.6997V24.9954C21.6997 26.1401 21.849 27.1355 22.1975 28.0314C22.4961 28.8775 22.9938 29.5245 23.6906 29.9724C24.3874 30.4203 25.2832 30.6194 26.3781 30.6194C27.5228 30.6194 28.4187 30.4203 29.1155 29.9226C29.7625 29.4249 30.2602 28.7779 30.509 27.9318C30.8076 27.0857 30.9072 26.0903 30.9072 24.9953V13.1998H35.934V25.3438C35.934 28.7281 35.0879 31.2166 33.3957 32.8093C31.7035 34.4019 29.3644 35.1485 26.3781 35.1485ZM40.7119 34.8997V13.1999H45.3903L45.6889 15.9373C46.2861 15.1907 46.9331 14.5935 47.7294 14.1455C48.476 13.6976 49.2723 13.399 50.1184 13.1501C51.0142 12.951 51.8106 12.8515 52.5073 12.8515C54.5977 12.8515 56.1903 13.2994 57.3848 14.245C58.5793 15.1409 59.4254 16.3354 59.9231 17.8285C60.4208 19.3714 60.6696 21.0138 60.6696 22.9051V34.8997H55.6428V23.7511C55.6428 22.9549 55.593 22.1585 55.4935 21.4119C55.394 20.6654 55.1949 19.9686 54.8465 19.3714C54.5479 18.7742 54.1 18.2765 53.5027 17.928C52.9552 17.5797 52.1589 17.3806 51.2133 17.3806C50.0188 17.3806 49.0234 17.729 48.2271 18.3262C47.3809 18.9732 46.7837 19.8193 46.3358 20.8645C45.9376 21.9097 45.7385 23.1041 45.7385 24.4479V34.8996H40.7118L40.7119 34.8997ZM75.103 35.1485C72.8634 35.1485 70.9721 34.7006 69.3794 33.7549C67.7868 32.8591 66.5923 31.5153 65.796 29.8729C64.9996 28.2304 64.6015 26.2894 64.6015 24.0996C64.6015 21.9097 64.9996 19.9687 65.8457 18.2765C66.6918 16.5842 67.8863 15.2405 69.4789 14.2949C71.0218 13.3493 72.9628 12.8515 75.1527 12.8515C76.7951 12.8515 78.2385 13.1501 79.4827 13.7474C80.727 14.3446 81.7722 15.1409 82.6182 16.1363C83.4146 17.1815 84.0616 18.3262 84.4598 19.6202C84.8579 20.9142 85.057 22.258 85.057 23.7014C85.0072 24 85.0072 24.3484 84.9575 24.647C84.9575 24.9456 84.9077 25.294 84.8579 25.6424H69.6283C69.6781 26.6378 69.9269 27.4839 70.3748 28.2802C70.773 29.0766 71.42 29.7236 72.1665 30.1715C72.9629 30.6692 73.9583 30.8683 75.103 30.8683C75.7998 30.8683 76.4468 30.8185 77.0938 30.6194C77.7408 30.4204 78.2883 30.1715 78.786 29.8232C79.234 29.4747 79.5824 29.0268 79.7317 28.4794H84.7584C84.41 30.0222 83.7631 31.3162 82.7676 32.3116C81.822 33.2573 80.6773 34.0038 79.3335 34.4518C77.9896 34.9494 76.5961 35.1485 75.103 35.1485V35.1485ZM69.6781 21.9097H80.1298C80.1298 21.0138 79.9307 20.1677 79.5326 19.4709C79.1344 18.7244 78.5372 18.1271 77.7906 17.6792C77.0441 17.281 76.0984 17.082 75.0533 17.082C73.9086 17.082 72.9131 17.2811 72.1666 17.7787C71.3703 18.2267 70.8228 18.8239 70.3749 19.5705C69.9767 20.317 69.7279 21.1133 69.6781 21.9097V21.9097Z" fill="white"/>
<path d="M105.24 13.0647C104.512 13.0647 103.926 12.9555 103.484 12.7372C103.041 12.5188 102.72 12.1791 102.519 11.7182C102.319 11.2572 102.219 10.6749 102.219 9.97138V4.84018H100.654V3.47543H102.219V0.618687H103.766V3.47543H106.331V4.84018H103.766V9.80761C103.766 10.4627 103.884 10.9448 104.121 11.2542C104.357 11.5635 104.839 11.7182 105.567 11.7182H106.277V13.0647H105.24ZM111.153 13.1738C110.717 13.1738 110.295 13.1162 109.889 13.001C109.482 12.8858 109.118 12.7099 108.797 12.4733C108.475 12.2367 108.221 11.9395 108.033 11.5817C107.845 11.2239 107.751 10.8084 107.751 10.3353C107.751 9.78944 107.851 9.32846 108.051 8.95246C108.251 8.57635 108.521 8.27921 108.861 8.06086C109.2 7.84252 109.594 7.68481 110.043 7.58778C110.492 7.49081 110.959 7.44224 111.444 7.44224H114.265C114.265 6.89635 114.189 6.42326 114.037 6.02298C113.886 5.62263 113.64 5.31026 113.3 5.08592C112.961 4.86146 112.512 4.74926 111.954 4.74926C111.614 4.74926 111.299 4.78566 111.008 4.85841C110.717 4.93121 110.468 5.04646 110.262 5.20418C110.055 5.36183 109.904 5.57418 109.807 5.84104H108.151C108.236 5.40435 108.403 5.03129 108.651 4.72198C108.9 4.41266 109.203 4.15786 109.561 3.95775C109.919 3.75758 110.304 3.60898 110.717 3.51195C111.129 3.41498 111.542 3.36641 111.954 3.36641C113.337 3.36641 114.319 3.77275 114.902 4.58549C115.484 5.39823 115.775 6.49606 115.775 7.87898V13.0648H114.483L114.392 11.8457C114.125 12.2097 113.804 12.4886 113.428 12.6828C113.052 12.8768 112.667 13.0072 112.272 13.074C111.878 13.1407 111.505 13.174 111.153 13.174L111.153 13.1738ZM111.299 11.8091C111.905 11.8091 112.43 11.7091 112.873 11.5089C113.315 11.3087 113.658 11.0146 113.901 10.6264C114.143 10.2382 114.265 9.76509 114.265 9.20709V8.734H112.572C112.172 8.734 111.778 8.74006 111.39 8.75223C111.002 8.76435 110.65 8.81292 110.334 8.89778C110.019 8.98269 109.767 9.12829 109.579 9.33446C109.391 9.54069 109.297 9.83789 109.297 10.2261C109.297 10.59 109.391 10.8871 109.579 11.1176C109.767 11.3481 110.016 11.5209 110.325 11.6362C110.635 11.7514 110.959 11.809 111.299 11.809V11.8091ZM118.177 13.0646V3.47537H119.669L119.742 4.96743C119.984 4.59137 120.266 4.28812 120.588 4.05772C120.909 3.8272 121.267 3.65432 121.661 3.53906C122.056 3.42386 122.483 3.36623 122.944 3.36623C123.029 3.36623 123.111 3.36623 123.19 3.36623C123.269 3.36623 123.35 3.36623 123.435 3.36623V4.82189H122.871C122.119 4.82189 121.51 4.9826 121.043 5.30409C120.576 5.62552 120.239 6.05614 120.033 6.59597C119.826 7.1358 119.723 7.73326 119.723 8.38829V13.0646H118.177H118.177ZM128.039 13.1738C127.602 13.1738 127.181 13.1161 126.774 13.0009C126.368 12.8857 126.004 12.7098 125.683 12.4732C125.361 12.2367 125.106 11.9395 124.918 11.5816C124.73 11.2238 124.636 10.8083 124.636 10.3353C124.636 9.78938 124.736 9.3284 124.937 8.95241C125.137 8.57629 125.407 8.27915 125.746 8.06081C126.086 7.84246 126.48 7.68475 126.929 7.58772C127.378 7.49075 127.845 7.44218 128.33 7.44218H131.151C131.151 6.89629 131.075 6.4232 130.923 6.02292C130.771 5.62258 130.526 5.3102 130.186 5.08586C129.847 4.8614 129.398 4.7492 128.84 4.7492C128.5 4.7492 128.185 4.7856 127.894 4.85835C127.602 4.93115 127.354 5.0464 127.147 5.20412C126.941 5.36178 126.79 5.57412 126.693 5.84098H125.037C125.122 5.40429 125.288 5.03123 125.537 4.72192C125.786 4.41261 126.089 4.1578 126.447 3.95769C126.805 3.75752 127.19 3.60892 127.602 3.51189C128.015 3.41492 128.427 3.36635 128.84 3.36635C130.223 3.36635 131.205 3.77269 131.787 4.58543C132.37 5.39818 132.661 6.49601 132.661 7.87892V13.0648H131.369L131.278 11.8456C131.011 12.2096 130.69 12.4886 130.314 12.6827C129.938 12.8768 129.552 13.0072 129.158 13.0739C128.764 13.1406 128.391 13.174 128.039 13.174L128.039 13.1738ZM128.185 11.809C128.791 11.809 129.316 11.709 129.758 11.5088C130.201 11.3087 130.544 11.0145 130.787 10.6263C131.029 10.2381 131.15 9.76503 131.15 9.20703V8.73394H129.458C129.058 8.73394 128.664 8.74 128.276 8.75217C127.887 8.76429 127.536 8.81286 127.22 8.89772C126.905 8.98263 126.653 9.12823 126.465 9.3344C126.277 9.54063 126.183 9.83783 126.183 10.226C126.183 10.5899 126.277 10.8871 126.465 11.1175C126.653 11.3481 126.902 11.5209 127.211 11.6361C127.52 11.7513 127.845 11.809 128.185 11.809V11.809ZM142.068 16.5218V11.6271C141.753 12.1851 141.304 12.5824 140.721 12.8189C140.139 13.0555 139.533 13.1738 138.902 13.1738C138.174 13.1738 137.543 13.0495 137.01 12.8007C136.476 12.5521 136.039 12.2094 135.699 11.7727C135.36 11.3359 135.108 10.8204 134.944 10.2261C134.781 9.63166 134.699 8.98875 134.699 8.29732C134.699 7.37537 134.85 6.5414 135.154 5.79529C135.457 5.04935 135.924 4.45789 136.555 4.0212C137.185 3.58457 137.992 3.36617 138.975 3.36617C139.533 3.36617 140.097 3.46926 140.667 3.67549C141.237 3.88171 141.704 4.21531 142.068 4.67629L142.141 3.47531H143.615V16.5217H142.068L142.068 16.5218ZM139.12 11.809C139.739 11.809 140.27 11.6483 140.712 11.3269C141.155 11.0054 141.495 10.5718 141.731 10.0259C141.968 9.48 142.086 8.87955 142.086 8.22446C142.086 7.55726 141.974 6.96292 141.75 6.44126C141.525 5.91966 141.195 5.5072 140.758 5.204C140.321 4.90074 139.769 4.74909 139.102 4.74909C138.411 4.74909 137.856 4.9068 137.437 5.22217C137.019 5.5376 136.715 5.96212 136.527 6.49589C136.339 7.02966 136.245 7.62406 136.245 8.27909C136.245 8.9584 136.342 9.56492 136.536 10.0987C136.731 10.6325 137.04 11.0509 137.464 11.3542C137.889 11.6574 138.441 11.809 139.12 11.809ZM153.058 16.5218V11.6271C152.743 12.1851 152.294 12.5824 151.712 12.8189C151.13 13.0555 150.523 13.1738 149.892 13.1738C149.164 13.1738 148.534 13.0495 148 12.8007C147.466 12.5521 147.029 12.2094 146.69 11.7727C146.35 11.3359 146.098 10.8204 145.935 10.2261C145.771 9.63166 145.689 8.98875 145.689 8.29732C145.689 7.37537 145.841 6.5414 146.144 5.79529C146.447 5.04935 146.914 4.45789 147.545 4.0212C148.176 3.58457 148.982 3.36617 149.965 3.36617C150.523 3.36617 151.087 3.46926 151.657 3.67549C152.227 3.88171 152.694 4.21531 153.058 4.67629L153.131 3.47531H154.605V16.5217H153.058L153.058 16.5218ZM150.111 11.809C150.729 11.809 151.26 11.6483 151.703 11.3269C152.145 11.0054 152.485 10.5718 152.722 10.0259C152.958 9.48 153.076 8.87955 153.076 8.22446C153.076 7.55726 152.964 6.96292 152.74 6.44126C152.515 5.91966 152.185 5.5072 151.748 5.204C151.312 4.90074 150.76 4.74909 150.092 4.74909C149.401 4.74909 148.846 4.9068 148.427 5.22217C148.009 5.5376 147.706 5.96212 147.518 6.49589C147.33 7.02966 147.236 7.62406 147.236 8.27909C147.236 8.9584 147.333 9.56492 147.527 10.0987C147.721 10.6325 148.03 11.0509 148.455 11.3542C148.879 11.6574 149.431 11.809 150.111 11.809ZM157.043 13.0646V3.47531H158.59V13.0646H157.043ZM157.807 2.05606C157.492 2.05606 157.24 1.95903 157.052 1.76491C156.864 1.5708 156.77 1.32217 156.77 1.01891C156.77 0.715656 156.867 0.469969 157.061 0.282028C157.256 0.0939703 157.504 0 157.807 0C158.086 0 158.332 0.0970282 158.544 0.291084C158.757 0.485258 158.863 0.727829 158.863 1.01891C158.863 1.32217 158.76 1.57086 158.553 1.76491C158.347 1.95903 158.099 2.05606 157.807 2.05606ZM165.25 17.3587C164.51 17.3587 163.797 17.2557 163.111 17.0494C162.426 16.8432 161.81 16.4853 161.265 15.9759L161.938 14.7568C162.411 15.1329 162.917 15.4301 163.457 15.6484C163.997 15.8667 164.564 15.9759 165.158 15.9759C166.153 15.9759 166.866 15.6878 167.297 15.1116C167.727 14.5354 167.942 13.8045 167.942 12.919V11.7727C167.724 12.1002 167.448 12.3701 167.115 12.5824C166.781 12.7947 166.414 12.9524 166.014 13.0555C165.613 13.1585 165.201 13.2101 164.776 13.2101C163.83 13.2101 163.084 13.0221 162.538 12.646C161.992 12.2699 161.604 11.7484 161.374 11.0812C161.143 10.414 161.028 9.64372 161.028 8.77035V3.47531H162.575V8.3336C162.575 8.77035 162.602 9.19792 162.657 9.61643C162.711 10.0349 162.823 10.411 162.993 10.7446C163.163 11.0782 163.412 11.345 163.739 11.5452C164.067 11.7453 164.503 11.8454 165.049 11.8454C165.741 11.8454 166.296 11.6755 166.714 11.3359C167.133 10.9962 167.436 10.5414 167.624 9.9712C167.812 9.40109 167.906 8.77029 167.906 8.07886V3.47525H169.453V13.0645C169.453 13.7559 169.362 14.3686 169.18 14.9023C168.998 15.4361 168.725 15.8849 168.361 16.2489C167.997 16.6127 167.557 16.8887 167.042 17.0768C166.526 17.2648 165.929 17.3587 165.249 17.3587H165.25ZM176.076 13.1737C175.069 13.1737 174.226 12.9644 173.547 12.546C172.868 12.1275 172.361 11.5482 172.027 10.8083C171.694 10.0683 171.527 9.22526 171.527 8.27909C171.527 7.3208 171.697 6.47466 172.037 5.74077C172.376 5.00689 172.886 4.42766 173.565 4.00309C174.244 3.57852 175.094 3.36623 176.112 3.36623C177.119 3.36623 177.959 3.57852 178.633 4.00309C179.306 4.42766 179.809 5.00689 180.143 5.74077C180.476 6.47466 180.643 7.3208 180.643 8.27909C180.643 9.22526 180.473 10.0683 180.134 10.8083C179.794 11.5482 179.288 12.1275 178.614 12.546C177.941 12.9644 177.095 13.1737 176.076 13.1737ZM176.076 11.809C176.78 11.809 177.353 11.6513 177.796 11.3359C178.238 11.0205 178.566 10.596 178.778 10.0622C178.99 9.52846 179.097 8.93406 179.097 8.27903C179.097 7.624 178.99 7.0296 178.778 6.49583C178.566 5.96206 178.238 5.53754 177.796 5.22211C177.353 4.90674 176.78 4.74903 176.076 4.74903C175.385 4.74903 174.818 4.90674 174.375 5.22211C173.932 5.53754 173.605 5.96206 173.392 6.49583C173.18 7.0296 173.074 7.624 173.074 8.27903C173.074 8.93406 173.18 9.52846 173.392 10.0622C173.605 10.596 173.932 11.0205 174.375 11.3359C174.818 11.6513 175.385 11.809 176.076 11.809ZM186.611 13.0645C185.884 13.0645 185.298 12.9553 184.856 12.737C184.413 12.5186 184.091 12.179 183.891 11.718C183.691 11.257 183.591 10.6747 183.591 9.9712V4.84H182.026V3.47525H183.591V0.61851H185.138V3.47525H187.703V4.84H185.138V9.80743C185.138 10.4625 185.256 10.9447 185.492 11.254C185.729 11.5633 186.211 11.718 186.939 11.718H187.649V13.0645H186.611Z" fill="white"/>
<path d="M105.24 31.6669C104.512 31.6669 103.926 31.5577 103.484 31.3394C103.041 31.121 102.72 30.7813 102.519 30.3204C102.319 29.8595 102.219 29.2771 102.219 28.5736V23.4424H100.654V22.0777H102.219V19.2209H103.766V22.0777H106.331V23.4424H103.766V28.4099C103.766 29.0649 103.884 29.5471 104.121 29.8564C104.357 30.1658 104.839 30.3204 105.567 30.3204H106.277V31.6669H105.24ZM111.153 31.7761C110.717 31.7761 110.295 31.7184 109.889 31.6032C109.482 31.488 109.118 31.3121 108.797 31.0755C108.475 30.8389 108.221 30.5418 108.033 30.1839C107.845 29.8261 107.751 29.4106 107.751 28.9375C107.751 28.3916 107.851 27.9307 108.051 27.5547C108.251 27.1786 108.521 26.8815 108.861 26.6631C109.2 26.4447 109.594 26.2871 110.043 26.19C110.492 26.093 110.959 26.0444 111.444 26.0444H114.265C114.265 25.4985 114.189 25.0255 114.037 24.6252C113.886 24.2248 113.64 23.9125 113.3 23.6881C112.961 23.4637 112.512 23.3515 111.954 23.3515C111.614 23.3515 111.299 23.3879 111.008 23.4607C110.717 23.5335 110.468 23.6487 110.262 23.8064C110.055 23.9641 109.904 24.1764 109.807 24.4432H108.151C108.236 24.0065 108.403 23.6335 108.651 23.3242C108.9 23.0149 109.203 22.7601 109.561 22.56C109.919 22.3598 110.304 22.2112 110.717 22.1142C111.129 22.0172 111.542 21.9686 111.954 21.9686C113.337 21.9686 114.319 22.375 114.902 23.1877C115.484 24.0005 115.775 25.0983 115.775 26.4812V31.667H114.483L114.392 30.4479C114.125 30.8119 113.804 31.0908 113.428 31.2849C113.052 31.4791 112.667 31.6094 112.272 31.6762C111.878 31.7429 111.505 31.7763 111.153 31.7763L111.153 31.7761ZM111.299 30.4113C111.905 30.4113 112.43 30.3113 112.873 30.1111C113.315 29.911 113.658 29.6168 113.901 29.2286C114.143 28.8404 114.265 28.3673 114.265 27.8093V27.3363H112.572C112.172 27.3363 111.778 27.3423 111.39 27.3544C111.002 27.3666 110.65 27.4151 110.334 27.5C110.019 27.5849 109.767 27.7305 109.579 27.9367C109.391 28.1429 109.297 28.4401 109.297 28.8283C109.297 29.1922 109.391 29.4894 109.579 29.7199C109.767 29.9503 110.016 30.1232 110.325 30.2384C110.635 30.3537 110.959 30.4113 111.299 30.4113V30.4113ZM121.67 31.7761C121.234 31.7761 120.794 31.7336 120.351 31.6487C119.909 31.5638 119.496 31.4182 119.114 31.212C118.732 31.0058 118.413 30.7268 118.159 30.375C117.904 30.0232 117.74 29.5865 117.667 29.0649H119.232C119.354 29.3924 119.551 29.6562 119.824 29.8564C120.096 30.0566 120.406 30.1991 120.751 30.284C121.097 30.3689 121.428 30.4113 121.743 30.4113C121.937 30.4113 122.162 30.3992 122.416 30.3749C122.671 30.3507 122.917 30.2931 123.153 30.2021C123.39 30.1111 123.584 29.9746 123.736 29.7927C123.887 29.6107 123.963 29.356 123.963 29.0285C123.963 28.7859 123.908 28.5857 123.799 28.428C123.69 28.2704 123.539 28.1399 123.344 28.0368C123.15 27.9337 122.914 27.8579 122.635 27.8093C122.065 27.6881 121.455 27.5728 120.806 27.4636C120.157 27.3544 119.584 27.1482 119.087 26.8449C118.917 26.7358 118.762 26.6114 118.623 26.4719C118.483 26.3324 118.365 26.1747 118.268 25.9989C118.171 25.8229 118.095 25.6288 118.04 25.4166C117.986 25.2043 117.958 24.9708 117.958 24.716C117.958 24.2429 118.052 23.8335 118.24 23.4878C118.428 23.1421 118.692 22.857 119.032 22.6326C119.372 22.4082 119.763 22.2414 120.206 22.1322C120.648 22.023 121.124 21.9684 121.634 21.9684C122.265 21.9684 122.832 22.0685 123.335 22.2687C123.839 22.4689 124.254 22.7599 124.582 23.1421C124.909 23.5242 125.103 23.9943 125.164 24.5523H123.726C123.642 24.2005 123.411 23.9124 123.035 23.6879C122.659 23.4635 122.18 23.3513 121.598 23.3513C121.403 23.3513 121.185 23.3665 120.942 23.3968C120.7 23.4271 120.469 23.4878 120.251 23.5788C120.033 23.6698 119.851 23.8033 119.705 23.9791C119.56 24.155 119.487 24.3885 119.487 24.6797C119.487 24.9465 119.556 25.171 119.696 25.3529C119.836 25.5349 120.033 25.6805 120.287 25.7896C120.542 25.8988 120.833 25.9898 121.161 26.0625C121.585 26.1474 122.052 26.2354 122.562 26.3263C123.071 26.4173 123.472 26.5113 123.763 26.6084C124.151 26.7297 124.475 26.8995 124.736 27.1179C124.997 27.3363 125.191 27.5971 125.319 27.9003C125.446 28.2036 125.51 28.5553 125.51 28.9556C125.51 29.5257 125.397 29.9928 125.173 30.3567C124.948 30.7206 124.648 31.0057 124.272 31.2119C123.896 31.4181 123.481 31.5637 123.026 31.6486C122.571 31.7334 122.119 31.776 121.67 31.776L121.67 31.7761ZM131.624 31.7761C130.617 31.7761 129.774 31.5668 129.094 31.1483C128.415 30.7298 127.909 30.1506 127.575 29.4106C127.241 28.6707 127.075 27.8276 127.075 26.8815C127.075 25.9231 127.244 25.077 127.584 24.3431C127.924 23.6092 128.433 23.03 129.113 22.6054C129.792 22.1809 130.641 21.9685 131.66 21.9685C132.667 21.9685 133.507 22.1809 134.18 22.6054C134.853 23.03 135.357 23.6092 135.69 24.3431C136.024 25.077 136.191 25.9231 136.191 26.8815C136.191 27.8276 136.021 28.6707 135.681 29.4106C135.342 30.1506 134.835 30.7298 134.162 31.1483C133.489 31.5668 132.642 31.7761 131.624 31.7761ZM131.624 30.4113C132.327 30.4113 132.9 30.2536 133.343 29.9383C133.786 29.6229 134.113 29.1983 134.326 28.6646C134.538 28.1308 134.644 27.5364 134.644 26.8814C134.644 26.2263 134.538 25.6319 134.326 25.0982C134.113 24.5644 133.786 24.1399 133.343 23.8245C132.9 23.509 132.327 23.3514 131.624 23.3514C130.932 23.3514 130.365 23.509 129.922 23.8245C129.48 24.1399 129.152 24.5644 128.94 25.0982C128.727 25.6319 128.621 26.2263 128.621 26.8814C128.621 27.5364 128.727 28.1308 128.94 28.6646C129.152 29.1983 129.48 29.6229 129.922 29.9383C130.365 30.2536 130.932 30.4113 131.624 30.4113ZM142.104 31.7761C141.146 31.7761 140.358 31.5607 139.739 31.1301C139.12 30.6995 138.659 30.1172 138.356 29.3833C138.053 28.6494 137.901 27.8215 137.901 26.8996C137.901 25.9777 138.053 25.1437 138.356 24.3976C138.659 23.6516 139.126 23.0602 139.757 22.6235C140.388 22.1868 141.195 21.9684 142.177 21.9684C142.553 21.9684 142.932 22.014 143.314 22.1049C143.697 22.1959 144.057 22.3354 144.397 22.5234C144.737 22.7114 145.028 22.9631 145.271 23.2785V18.8024H146.817V31.6668H145.343L145.27 30.2293C145.052 30.5932 144.776 30.8874 144.443 31.1119C144.109 31.3363 143.742 31.5031 143.342 31.6123C142.941 31.7214 142.529 31.776 142.104 31.776V31.7761ZM142.323 30.4113C142.966 30.4113 143.506 30.2476 143.942 29.92C144.379 29.5925 144.712 29.1559 144.943 28.61C145.173 28.0641 145.289 27.4697 145.289 26.8268C145.289 26.1596 145.177 25.5652 144.952 25.0436C144.728 24.5219 144.397 24.1095 143.96 23.8063C143.524 23.503 142.972 23.3514 142.305 23.3514C141.613 23.3514 141.058 23.509 140.64 23.8245C140.221 24.1399 139.918 24.5674 139.73 25.1073C139.542 25.6471 139.448 26.2506 139.448 26.9178C139.448 27.403 139.499 27.8549 139.603 28.2734C139.706 28.6919 139.869 29.0619 140.094 29.3833C140.318 29.7048 140.612 29.9564 140.976 30.1384C141.34 30.3204 141.789 30.4113 142.323 30.4113H142.323ZM149.255 31.6668V22.0776H150.802V31.6668H149.255ZM150.02 20.6583C149.704 20.6583 149.453 20.5613 149.265 20.3672C149.076 20.1731 148.982 19.9245 148.982 19.6212C148.982 19.318 149.079 19.0723 149.274 18.8843C149.468 18.6963 149.716 18.6023 150.02 18.6023C150.299 18.6023 150.544 18.6993 150.757 18.8934C150.969 19.0875 151.075 19.3301 151.075 19.6212C151.075 19.9245 150.972 20.1732 150.766 20.3672C150.559 20.5613 150.311 20.6583 150.02 20.6583ZM154.168 31.6668V23.4423H152.603V22.0776H154.168V21.0586C154.168 20.3429 154.268 19.7576 154.468 19.3027C154.669 18.8478 154.99 18.5112 155.433 18.2929C155.876 18.0745 156.461 17.9653 157.189 17.9653H158.28V19.33H157.353C156.916 19.33 156.579 19.4028 156.343 19.5484C156.106 19.694 155.942 19.9093 155.851 20.1943C155.76 20.4794 155.715 20.8281 155.715 21.2406V22.0777H158.28V23.4424H155.715V31.6669H154.168V31.6668Z" fill="white"/>
<path d="M105.495 48C104.476 48 103.633 47.7908 102.966 47.3723C102.299 46.9538 101.801 46.3745 101.474 45.6346C101.146 44.8947 100.982 44.0515 100.982 43.1054C100.982 42.1471 101.155 41.3009 101.501 40.567C101.847 39.8332 102.353 39.2539 103.02 38.8294C103.688 38.4048 104.506 38.1925 105.477 38.1925C106.229 38.1925 106.875 38.335 107.415 38.6201C107.955 38.9052 108.4 39.2843 108.752 39.7574C109.104 40.2304 109.359 40.749 109.516 41.3131C109.674 41.8772 109.741 42.4442 109.717 43.0144C109.704 43.1235 109.695 43.2327 109.689 43.3419C109.683 43.4511 109.674 43.5603 109.662 43.6694H102.547C102.596 44.2274 102.735 44.7308 102.966 45.1797C103.196 45.6285 103.524 45.9833 103.948 46.2441C104.373 46.5049 104.901 46.6354 105.531 46.6354C105.847 46.6354 106.165 46.5959 106.487 46.5171C106.808 46.4382 107.099 46.3018 107.36 46.1077C107.621 45.9136 107.806 45.6528 107.915 45.3253H109.498C109.353 45.944 109.08 46.4504 108.679 46.8447C108.279 47.2389 107.8 47.5301 107.242 47.7181C106.684 47.9061 106.102 48.0002 105.495 48.0002L105.495 48ZM102.584 42.3229H108.133C108.121 41.777 108 41.2978 107.77 40.8854C107.539 40.473 107.227 40.1515 106.832 39.9211C106.438 39.6906 105.968 39.5754 105.422 39.5754C104.828 39.5754 104.327 39.7027 103.921 39.9575C103.515 40.2122 103.202 40.5458 102.984 40.9582C102.766 41.3707 102.632 41.8256 102.584 42.323V42.3229ZM111.773 47.8908V38.3016H113.265L113.337 39.448C113.544 39.1568 113.777 38.9203 114.038 38.7383C114.299 38.5563 114.59 38.4199 114.911 38.3289C115.233 38.238 115.576 38.1924 115.94 38.1924C116.607 38.1924 117.147 38.335 117.559 38.6201C117.971 38.9051 118.281 39.2782 118.487 39.7391C118.705 39.4116 118.957 39.1326 119.242 38.9021C119.527 38.6715 119.849 38.4957 120.206 38.3744C120.564 38.2531 120.962 38.1924 121.398 38.1924C122.102 38.1924 122.669 38.344 123.1 38.6473C123.53 38.9506 123.843 39.36 124.037 39.8755C124.231 40.391 124.328 40.9703 124.328 41.6132V47.8907H122.781V42.3956C122.781 42.0802 122.766 41.7587 122.736 41.4312C122.705 41.1037 122.63 40.7974 122.508 40.5124C122.387 40.2273 122.208 39.9968 121.971 39.8209C121.735 39.645 121.404 39.5571 120.98 39.5571C120.579 39.5571 120.243 39.651 119.97 39.8391C119.697 40.0272 119.475 40.2788 119.306 40.5942C119.136 40.9096 119.015 41.2462 118.942 41.6041C118.869 41.962 118.833 42.3168 118.833 42.6685V47.8907H117.286V42.3774C117.286 42.0742 117.271 41.7587 117.24 41.4312C117.21 41.1037 117.143 40.7974 117.04 40.5124C116.937 40.2273 116.767 39.9968 116.531 39.8209C116.294 39.645 115.97 39.5571 115.557 39.5571C114.975 39.5571 114.52 39.7238 114.193 40.0574C113.865 40.391 113.638 40.7974 113.51 41.2765C113.383 41.7557 113.319 42.2258 113.319 42.6867V47.8907H111.773L111.773 47.8908ZM129.75 48C129.313 48 128.892 47.9424 128.486 47.8272C128.079 47.712 127.715 47.536 127.394 47.2994C127.072 47.0629 126.818 46.7657 126.63 46.4079C126.442 46.05 126.348 45.6346 126.348 45.1615C126.348 44.6156 126.448 44.1546 126.648 43.7786C126.848 43.4026 127.118 43.1054 127.457 42.8871C127.797 42.6687 128.191 42.511 128.64 42.414C129.089 42.317 129.556 42.2684 130.041 42.2684H132.862C132.862 41.7225 132.786 41.2494 132.634 40.8491C132.483 40.4488 132.237 40.1364 131.897 39.9121C131.558 39.6876 131.109 39.5755 130.551 39.5755C130.211 39.5755 129.896 39.6118 129.605 39.6846C129.314 39.7574 129.065 39.8726 128.859 40.0303C128.652 40.188 128.501 40.4003 128.404 40.6672H126.748C126.833 40.2305 127 39.8575 127.248 39.5481C127.497 39.2388 127.8 38.984 128.158 38.7839C128.516 38.5838 128.901 38.4352 129.314 38.3382C129.726 38.2411 130.138 38.1926 130.551 38.1926C131.934 38.1926 132.916 38.599 133.499 39.4117C134.081 40.2244 134.372 41.3223 134.372 42.7051V47.891H133.08L132.989 46.6719C132.722 47.0358 132.401 47.3148 132.025 47.5089C131.649 47.703 131.264 47.8334 130.869 47.9001C130.475 47.9669 130.102 48.0002 129.75 48.0002L129.75 48ZM129.896 46.6353C130.502 46.6353 131.027 46.5353 131.47 46.335C131.912 46.1349 132.255 45.8407 132.498 45.4526C132.74 45.0644 132.862 44.5913 132.862 44.0333V43.5602H131.169C130.769 43.5602 130.375 43.5663 129.987 43.5784C129.598 43.5906 129.247 43.6391 128.931 43.7239C128.616 43.8088 128.364 43.9545 128.176 44.1607C127.988 44.3669 127.894 44.664 127.894 45.0522C127.894 45.4162 127.988 45.7134 128.176 45.9438C128.364 46.1743 128.613 46.3472 128.922 46.4624C129.232 46.5776 129.556 46.6352 129.896 46.6352V46.6353ZM140.267 48C139.831 48 139.391 47.9575 138.948 47.8727C138.505 47.7878 138.093 47.6422 137.711 47.436C137.329 47.2298 137.01 46.9507 136.756 46.599C136.501 46.2472 136.337 45.8104 136.264 45.2888H137.829C137.95 45.6164 138.147 45.8802 138.42 46.0804C138.693 46.2805 139.003 46.4231 139.348 46.5079C139.694 46.5928 140.025 46.6353 140.34 46.6353C140.534 46.6353 140.759 46.6232 141.013 46.5989C141.268 46.5746 141.514 46.517 141.75 46.426C141.987 46.335 142.181 46.1986 142.333 46.0166C142.484 45.8347 142.56 45.58 142.56 45.2524C142.56 45.0098 142.505 44.8097 142.396 44.652C142.287 44.4943 142.135 44.3639 141.941 44.2608C141.747 44.1577 141.511 44.0818 141.232 44.0333C140.662 43.912 140.052 43.7967 139.403 43.6875C138.754 43.5784 138.181 43.3722 137.683 43.0689C137.514 42.9598 137.359 42.8354 137.219 42.6959C137.08 42.5564 136.962 42.3987 136.865 42.2228C136.768 42.0469 136.692 41.8528 136.637 41.6406C136.583 41.4282 136.555 41.1948 136.555 40.94C136.555 40.4669 136.649 40.0574 136.837 39.7118C137.025 39.3661 137.289 39.081 137.629 38.8565C137.969 38.6321 138.36 38.4653 138.803 38.3562C139.245 38.247 139.721 38.1924 140.231 38.1924C140.862 38.1924 141.429 38.2925 141.932 38.4926C142.436 38.6928 142.851 38.9839 143.179 39.3661C143.506 39.7482 143.7 40.2183 143.761 40.7762H142.323C142.238 40.4244 142.008 40.1363 141.632 39.9119C141.256 39.6874 140.777 39.5753 140.194 39.5753C140 39.5753 139.782 39.5904 139.539 39.6208C139.297 39.6511 139.066 39.7117 138.848 39.8028C138.63 39.8937 138.448 40.0272 138.302 40.2031C138.156 40.379 138.084 40.6124 138.084 40.9036C138.084 41.1705 138.153 41.3949 138.293 41.5769C138.432 41.7588 138.63 41.9044 138.884 42.0136C139.139 42.1227 139.43 42.2138 139.758 42.2865C140.182 42.3714 140.649 42.4594 141.159 42.5503C141.668 42.6413 142.068 42.7353 142.36 42.8323C142.748 42.9536 143.072 43.1235 143.333 43.3418C143.594 43.5602 143.788 43.821 143.915 44.1243C144.043 44.4275 144.106 44.7793 144.106 45.1796C144.106 45.7497 143.994 46.2168 143.77 46.5806C143.545 46.9446 143.245 47.2296 142.869 47.4359C142.493 47.6421 142.078 47.7876 141.623 47.8726C141.168 47.9574 140.716 47.9999 140.267 47.9999L140.267 48Z" fill="white"/>
<path d="M95.9515 4.30411H95.1186C94.5284 4.30411 94.1292 4.41384 93.9214 4.63318C93.8147 4.74585 93.7285 4.88475 93.6633 5.04958H93.6617C93.5934 5.22188 93.5487 5.42658 93.5279 5.66315C93.5029 5.94706 93.4847 6.23785 93.4736 6.53547C93.4626 6.82802 93.4571 7.16944 93.4571 7.55902V17.5056C93.4571 18.2991 93.3985 19.0386 93.2816 19.7239C93.1641 20.4117 92.9864 21.0446 92.7486 21.6221C92.5017 22.2219 92.1409 22.7549 91.6664 23.2205C91.3686 23.5128 91.0266 23.7781 90.6405 24.0164C90.8264 24.128 91.0011 24.2469 91.1644 24.3728C91.531 24.6554 91.8423 24.9733 92.0981 25.3262C92.5974 26.0148 92.9501 26.7969 93.156 27.6721C93.2558 28.0965 93.331 28.546 93.3814 29.0201C93.4318 29.4953 93.4571 29.9868 93.4571 30.4942V40.4409C93.4571 40.814 93.4626 41.1454 93.4736 41.4343C93.4847 41.7289 93.5029 42.0224 93.5279 42.3142C93.5487 42.558 93.5939 42.7692 93.6633 42.9476C93.7277 43.1134 93.8139 43.2532 93.9214 43.3668C94.1292 43.5861 94.5284 43.6958 95.1186 43.6958H95.9515V44.5254H95.1186C94.2925 44.5254 93.6936 44.3292 93.322 43.9371C93.14 43.7449 92.9966 43.5144 92.8922 43.2457C92.7925 42.9896 92.7289 42.7017 92.7016 42.3823C92.6784 42.1109 92.6602 41.8046 92.6473 41.4635C92.6341 41.1168 92.6275 40.776 92.6275 40.4409V30.4942C92.6275 30.0038 92.6044 29.5415 92.5584 29.1076C92.5122 28.6725 92.4424 28.2565 92.3491 27.8602C92.1688 27.0938 91.8615 26.411 91.4273 25.8123C91.2165 25.5214 90.9602 25.2597 90.659 25.0274C90.3498 24.789 89.994 24.5804 89.592 24.4017L88.7695 24.0361L89.5823 23.6499C90.184 23.3641 90.6855 23.0243 91.0865 22.6308C91.4812 22.2434 91.7805 21.8023 91.984 21.3079C92.1967 20.7911 92.3572 20.2166 92.4651 19.5846C92.5733 18.9503 92.6275 18.2572 92.6275 17.5056V7.55902C92.6275 7.20819 92.6341 6.85736 92.6473 6.50636C92.6602 6.16011 92.6784 5.85521 92.7016 5.592C92.729 5.28174 92.7929 4.99942 92.8935 4.74556L92.8922 4.74503C92.9958 4.48341 93.1391 4.25589 93.322 4.06289C93.6936 3.67072 94.2925 3.47461 95.1186 3.47461H95.9515V4.30417V4.30411Z" fill="#34C925"/>
</g>
<defs>
<clipPath id="clip0_945_5626">
<rect width="187.704" height="48" fill="white"/>
</clipPath>
</defs>
</svg>
