<svg width="503" height="503" viewBox="0 0 503 503" fill="none" xmlns="http://www.w3.org/2000/svg">
<g clip-path="url(#clip0_1_9)">
<path d="M9.45999 76C12.1861 79.6412 15.4188 82.8739 19.06 85.6C28.2127 92.4568 39.5311 95.7828 50.9382 94.9678C62.3454 94.1527 73.0759 89.2512 81.1607 81.1627C89.2455 73.0743 94.1422 62.3415 94.9521 50.934C95.762 39.5265 92.4309 28.2096 85.57 19.06C82.8531 15.4209 79.6305 12.1883 76 9.46C66.8494 2.5789 55.5221 -0.767145 44.1012 0.0372325C32.6804 0.84161 21.9339 5.74232 13.8381 13.8381C5.74231 21.9339 0.841602 32.6804 0.0372249 44.1012C-0.767152 55.5221 2.57889 66.8494 9.45999 76Z" fill="#FDAF0A"/>
<path d="M416.74 76C419.469 79.6358 422.701 82.8648 426.34 85.59C435.492 92.4268 446.8 95.7382 458.194 94.9177C469.588 94.0972 480.305 89.1997 488.382 81.1221C496.46 73.0446 501.357 62.3275 502.178 50.9337C502.998 39.5398 499.687 28.2316 492.85 19.08C490.125 15.4414 486.896 12.209 483.26 9.48C475.042 3.34001 465.058 0.0223999 454.8 0.0223999C444.541 0.0223999 434.558 3.34001 426.34 9.48C422.701 12.209 419.469 15.4413 416.74 19.08C410.6 27.2981 407.282 37.2815 407.282 47.54C407.282 57.7985 410.6 67.7819 416.74 76Z" fill="#FDAF0A"/>
<path d="M54.55 136.28H54.3C49.8002 135.627 45.2297 135.627 40.73 136.28C32.8658 137.414 25.4136 140.509 19.06 145.28C15.4213 148.009 12.189 151.241 9.45998 154.88C4.68898 161.234 1.59391 168.686 0.459978 176.55C-0.193365 181.05 -0.193365 185.62 0.459978 190.12C1.79983 199.423 5.86874 208.119 12.152 215.109C18.4352 222.098 26.6504 227.067 35.7583 229.387C44.8661 231.707 54.4574 231.273 63.3188 228.141C72.1801 225.009 79.9133 219.318 85.54 211.79C89.283 206.796 92.0046 201.113 93.5489 195.066C95.0932 189.019 95.43 182.727 94.54 176.55V176.31C93.2656 168.248 93.902 160 96.3979 152.229C98.8938 144.458 103.18 137.382 108.91 131.57L115.4 125L125 115.41L131.52 108.89C137.329 103.159 144.404 98.8729 152.173 96.3769C159.943 93.8809 168.19 93.2448 176.25 94.52H176.49C180.993 95.1733 185.567 95.1733 190.07 94.52H190.31C198.363 93.2509 206.602 93.889 214.363 96.383C222.125 98.877 229.193 103.157 235 108.88L241.52 115.4L251.12 124.99L257.64 131.51C263.366 137.325 267.65 144.401 270.145 152.171C272.641 159.941 273.28 168.188 272.01 176.25C272.005 176.33 272.005 176.41 272.01 176.49C271.357 180.99 271.357 185.56 272.01 190.06C273.646 201.366 279.301 211.704 287.938 219.181C296.575 226.658 307.616 230.773 319.04 230.773C330.464 230.773 341.505 226.658 350.142 219.181C358.779 211.704 364.434 201.366 366.07 190.06C366.71 185.559 366.71 180.991 366.07 176.49C364.936 168.626 361.841 161.174 357.07 154.82C354.341 151.181 351.109 147.949 347.47 145.22C341.121 140.448 333.672 137.352 325.81 136.22C321.307 135.567 316.733 135.567 312.23 136.22H311.99C303.931 137.494 295.685 136.858 287.916 134.364C280.147 131.87 273.072 127.587 267.26 121.86L251.16 105.8L244.64 99.28C238.912 93.4687 234.627 86.3941 232.131 78.6252C229.636 70.8564 228.998 62.6102 230.27 54.55V54.3C232.06 41.8247 228.822 29.1493 221.27 19.06C218.541 15.4213 215.309 12.189 211.67 9.46C205.32 4.68904 197.871 1.59388 190.01 0.460001C185.507 -0.193332 180.933 -0.193332 176.43 0.460001C168.566 1.59393 161.114 4.68901 154.76 9.46C151.121 12.189 147.889 15.4213 145.16 19.06C140.389 25.4136 137.294 32.8658 136.16 40.73C135.507 45.2297 135.507 49.8003 136.16 54.3C136.155 54.3833 136.155 54.4667 136.16 54.55C137.43 62.6101 136.791 70.8557 134.295 78.6241C131.799 86.3926 127.516 93.4674 121.79 99.28L99.28 121.92C93.4678 127.647 86.3927 131.929 78.6239 134.423C70.8551 136.917 62.6094 137.553 54.55 136.28Z" fill="#FDAF0A"/>
<path d="M281 76C283.726 79.6412 286.959 82.8739 290.6 85.6C295.596 89.3429 301.281 92.0642 307.329 93.6085C313.378 95.1528 319.671 95.4897 325.85 94.6H326.09C334.15 93.3248 342.397 93.9609 350.167 96.4569C357.936 98.9529 365.011 103.239 370.82 108.97L377.34 115.49L386.94 125.08L393.46 131.6C399.186 137.415 403.47 144.491 405.965 152.261C408.461 160.031 409.1 168.278 407.83 176.34C407.825 176.42 407.825 176.5 407.83 176.58C407.177 181.08 407.177 185.65 407.83 190.15C407.824 190.233 407.824 190.317 407.83 190.4C409.076 198.441 408.423 206.663 405.925 214.407C403.426 222.151 399.151 229.203 393.44 235L370.8 257.68C364.988 263.407 357.913 267.69 350.145 270.186C342.376 272.682 334.13 273.32 326.07 272.05H325.83C321.327 271.397 316.753 271.397 312.25 272.05C304.386 273.184 296.934 276.279 290.58 281.05C286.941 283.779 283.709 287.011 280.98 290.65C276.209 297.004 273.114 304.456 271.98 312.32C271.327 316.823 271.327 321.397 271.98 325.9C273.616 337.206 279.271 347.544 287.908 355.021C296.545 362.498 307.586 366.613 319.01 366.613C330.434 366.613 341.475 362.498 350.112 355.021C358.749 347.544 364.404 337.206 366.04 325.9C366.68 321.396 366.68 316.824 366.04 312.32C366.035 312.24 366.035 312.16 366.04 312.08C364.767 304.02 365.404 295.773 367.9 288.004C370.396 280.235 374.681 273.161 380.41 267.35L386.93 260.83L396.53 251.23L403.05 244.71C408.859 238.979 415.934 234.693 423.703 232.197C431.473 229.701 439.72 229.065 447.78 230.34H448.02C460.493 232.14 473.17 228.912 483.263 221.366C493.356 213.819 500.039 202.573 501.84 190.1C502.48 185.599 502.48 181.031 501.84 176.53C500.706 168.666 497.611 161.214 492.84 154.86C490.111 151.221 486.879 147.989 483.24 145.26C476.891 140.488 469.442 137.392 461.58 136.26C457.077 135.607 452.503 135.607 448 136.26H447.76C439.697 137.541 431.447 136.911 423.672 134.421C415.898 131.93 408.817 127.648 403 121.92L386.92 105.8L380.4 99.28C374.666 93.4715 370.376 86.3982 367.875 78.6292C365.374 70.8602 364.732 62.6125 366 54.55C365.995 54.4667 365.995 54.3833 366 54.3C366.64 49.7993 366.64 45.2307 366 40.73C364.866 32.866 361.771 25.4138 357 19.06C354.271 15.4213 351.039 12.189 347.4 9.46C341.051 4.68754 333.602 1.59221 325.74 0.460001C321.237 -0.193332 316.663 -0.193332 312.16 0.460001C304.296 1.59393 296.844 4.68901 290.49 9.46C286.851 12.189 283.619 15.4213 280.89 19.06C276.119 25.4136 273.024 32.8658 271.89 40.73C271.237 45.2297 271.237 49.8003 271.89 54.3C273.052 62.1849 276.185 69.6488 281 76Z" fill="#FDAF0A"/>
<path d="M492.85 290.58C490.121 286.941 486.889 283.709 483.25 280.98C476.901 276.208 469.452 273.112 461.59 271.98C457.083 271.332 452.505 271.339 448 272C440.136 273.134 432.684 276.229 426.33 281C422.691 283.729 419.459 286.961 416.73 290.6C411.963 296.956 408.868 304.407 407.73 312.27C407.077 316.773 407.077 321.347 407.73 325.85C407.725 325.93 407.725 326.01 407.73 326.09C409 334.15 408.361 342.396 405.865 350.164C403.369 357.933 399.086 365.007 393.36 370.82L370.8 393.44C364.988 399.167 357.913 403.451 350.144 405.946C342.376 408.442 334.13 409.08 326.07 407.81H325.83C321.327 407.157 316.753 407.157 312.25 407.81H312.01C303.95 409.08 295.704 408.442 287.935 405.946C280.167 403.451 273.092 399.167 267.28 393.44L251.16 377.32L244.64 370.8C238.912 364.989 234.627 357.914 232.131 350.145C229.636 342.376 228.998 334.13 230.27 326.07V325.83C232.061 313.352 228.824 300.672 221.27 290.58C218.541 286.941 215.309 283.709 211.67 280.98C205.32 276.209 197.871 273.114 190.01 271.98C185.507 271.327 180.933 271.327 176.43 271.98C168.566 273.114 161.114 276.209 154.76 280.98C151.121 283.709 147.889 286.941 145.16 290.58C140.389 296.934 137.294 304.386 136.16 312.25C135.507 316.753 135.507 321.327 136.16 325.83C137.051 332.006 139.15 337.946 142.337 343.311C145.524 348.676 149.737 353.36 154.735 357.096C159.733 360.832 165.418 363.547 171.466 365.085C177.513 366.623 183.804 366.954 189.98 366.06H190.22C198.286 364.776 206.54 365.405 214.318 367.896C222.096 370.386 229.181 374.67 235 380.4L241.52 386.92L251.12 396.52L257.64 403.04C263.367 408.852 267.65 415.927 270.146 423.696C272.642 431.464 273.28 439.71 272.01 447.77C272.005 447.85 272.005 447.93 272.01 448.01C271.357 452.513 271.357 457.087 272.01 461.59C273.476 471.742 278.187 481.147 285.44 488.4C292.693 495.653 302.098 500.364 312.25 501.83C316.754 502.47 321.326 502.47 325.83 501.83C335.98 500.359 345.382 495.646 352.634 488.394C359.886 481.142 364.599 471.74 366.07 461.59C366.71 457.086 366.71 452.514 366.07 448.01C366.065 447.93 366.065 447.85 366.07 447.77C364.786 439.707 365.413 431.454 367.902 423.678C370.391 415.902 374.672 408.819 380.4 403L386.92 396.48L396.52 386.88L403 380.4C408.812 374.66 415.892 370.366 423.669 367.865C431.445 365.363 439.701 364.725 447.77 366H448.01C460.481 367.798 473.156 364.57 483.248 357.026C493.34 349.482 500.024 338.24 501.83 325.77C502.47 321.266 502.47 316.694 501.83 312.19C500.692 304.349 497.604 296.919 492.85 290.58Z" fill="#FDAF0A"/>
<path d="M85.57 426.34C81.8335 421.342 77.1485 417.129 71.783 413.943C66.4175 410.757 60.4766 408.659 54.3 407.77C49.8002 407.117 45.2297 407.117 40.73 407.77C32.8671 408.908 25.4159 412.003 19.06 416.77C15.4213 419.499 12.189 422.731 9.45998 426.37C3.31999 434.588 0.00238037 444.571 0.00238037 454.83C0.00238037 465.088 3.31999 475.072 9.45998 483.29C12.189 486.929 15.4213 490.161 19.06 492.89C25.4159 497.657 32.8671 500.751 40.73 501.89C45.2297 502.543 49.8002 502.543 54.3 501.89C62.4554 500.71 70.1639 497.43 76.6692 492.372C83.1745 487.314 88.2531 480.652 91.4066 473.039C94.5601 465.426 95.6802 457.124 94.657 448.948C93.6337 440.771 90.5023 433.001 85.57 426.4V426.34Z" fill="#FDAF0A"/>
<path d="M221.33 426.34C218.601 422.701 215.369 419.469 211.73 416.74C205.38 411.969 197.931 408.874 190.07 407.74C185.567 407.087 180.993 407.087 176.49 407.74H176.25C168.19 409.01 159.944 408.372 152.175 405.876C144.407 403.38 137.332 399.097 131.52 393.37L115.4 377.32L108.88 370.8C103.15 364.99 98.864 357.916 96.368 350.146C93.872 342.377 93.2356 334.13 94.51 326.07V325.83C95.1633 321.327 95.1633 316.753 94.51 312.25V312.01C93.2348 303.95 93.8709 295.703 96.3669 287.933C98.8629 280.164 103.149 273.089 108.88 267.28L115.4 260.76L125 251.16L131.52 244.64C137.329 238.909 144.404 234.623 152.173 232.127C159.943 229.631 168.19 228.995 176.25 230.27H176.49C185.79 231.609 195.279 230.162 203.756 226.11C212.234 222.058 219.32 215.584 224.119 207.506C228.918 199.427 231.214 190.108 230.718 180.725C230.221 171.342 226.954 162.317 221.33 154.79C218.601 151.151 215.369 147.919 211.73 145.19C205.38 140.419 197.931 137.324 190.07 136.19C185.567 135.537 180.993 135.537 176.49 136.19C168.626 137.324 161.174 140.419 154.82 145.19C151.181 147.919 147.949 151.151 145.22 154.79C140.449 161.144 137.354 168.596 136.22 176.46C135.567 180.96 135.567 185.53 136.22 190.03C136.214 190.113 136.214 190.197 136.22 190.28C137.497 198.333 136.868 206.573 134.385 214.34C131.902 222.106 127.632 229.182 121.92 235L99.28 257.68C93.4673 263.406 86.3926 267.689 78.6241 270.185C70.8557 272.681 62.6101 273.32 54.55 272.05H54.3C49.8002 271.397 45.2297 271.397 40.73 272.05C32.8658 273.184 25.4136 276.279 19.06 281.05C15.4213 283.779 12.189 287.011 9.45997 290.65C4.68898 297.004 1.5939 304.456 0.459971 312.32C-0.193363 316.823 -0.193363 321.397 0.459971 325.9C1.35758 332.072 3.4623 338.008 6.65395 343.366C9.8456 348.725 14.0616 353.403 19.0613 357.132C24.061 360.862 29.7463 363.57 35.7926 365.101C41.8389 366.633 48.1278 366.959 54.3 366.06H54.55C62.6078 364.784 70.8525 365.417 78.6213 367.908C86.39 370.398 93.4659 374.677 99.28 380.4L105.8 386.92L115.4 396.52L121.92 403.04C127.647 408.852 131.93 415.927 134.426 423.695C136.922 431.464 137.56 439.71 136.29 447.77C136.285 447.85 136.285 447.93 136.29 448.01C135.637 452.513 135.637 457.087 136.29 461.59C137.756 471.742 142.467 481.147 149.72 488.4C156.973 495.652 166.378 500.364 176.53 501.83C181.034 502.47 185.606 502.47 190.11 501.83C198.264 500.649 205.972 497.368 212.476 492.309C218.98 487.251 224.057 480.588 227.21 472.975C230.362 465.363 231.481 457.061 230.458 448.885C229.434 440.71 226.302 432.94 221.37 426.34H221.33Z" fill="#FDAF0A"/>
<path d="M492.85 426.34C489.114 421.343 484.431 417.132 479.067 413.946C473.704 410.759 467.765 408.661 461.59 407.77C457.087 407.117 452.513 407.117 448.01 407.77C440.147 408.909 432.696 412.003 426.34 416.77C422.701 419.499 419.469 422.731 416.74 426.37C410.6 434.588 407.282 444.572 407.282 454.83C407.282 465.088 410.6 475.072 416.74 483.29C419.469 486.929 422.701 490.161 426.34 492.89C432.696 497.657 440.147 500.752 448.01 501.89C452.513 502.543 457.087 502.543 461.59 501.89C469.745 500.709 477.452 497.428 483.956 492.369C490.46 487.311 495.537 480.648 498.69 473.035C501.842 465.423 502.961 457.121 501.938 448.945C500.914 440.77 497.782 433 492.85 426.4V426.34Z" fill="#FDAF0A"/>
</g>
<defs>
<clipPath id="clip0_1_9">
<rect width="502.31" height="502.32" fill="white"/>
</clipPath>
</defs>
</svg>
