<svg width="175" height="27" viewBox="0 0 175 27" fill="none" xmlns="http://www.w3.org/2000/svg">
<g clip-path="url(#clip0_2119_2734)">
<path fill-rule="evenodd" clip-rule="evenodd" d="M8.46303 14.764L12.9999 21.3114C13.1573 21.5505 13.3639 21.7579 13.6076 21.9217C13.8513 22.0853 14.1272 22.202 14.4195 22.265C14.7116 22.3279 15.0143 22.3358 15.3098 22.2883C15.6053 22.2407 15.8878 22.1387 16.1409 21.988C16.3939 21.8373 16.6125 21.641 16.784 21.4105C16.9555 21.18 17.0764 20.9198 17.1398 20.6452C17.2031 20.3706 17.2076 20.0868 17.1531 19.8105C17.0985 19.5342 16.9859 19.2708 16.8219 19.0356L11.368 11.1646C11.2929 11.056 11.2074 10.9539 11.1126 10.8597L16.5589 2.82654L29.9614 22.5904C30.2446 22.9907 30.4164 23.451 30.4612 23.9294C30.5059 24.4079 30.4222 24.8892 30.2178 25.3295C29.9774 25.8269 29.5894 26.2489 29.1001 26.5453C28.6108 26.8417 28.0409 26.9998 27.4584 27.0009H0.164062L8.46303 14.764Z" fill="white"/>
<path fill-rule="evenodd" clip-rule="evenodd" d="M32.9948 21.4033L18.4797 0L17.209 1.8718L30.9036 22.0623C31.0418 22.2592 31.1593 22.4682 31.2548 22.6863C31.4653 23.1621 31.5727 23.6725 31.5706 24.1876C31.5684 24.7028 31.4568 25.2123 31.2423 25.6866L31.675 25.5065C31.8105 25.4496 31.9415 25.3837 32.0669 25.3092C32.4015 25.11 32.6909 24.851 32.9187 24.547C33.1463 24.243 33.308 23.8999 33.3942 23.5373C33.4805 23.1747 33.4896 22.7998 33.4212 22.4339C33.3528 22.068 33.2082 21.7184 32.9956 21.4048" fill="white"/>
<path fill-rule="evenodd" clip-rule="evenodd" d="M6.76343 9.74593C7.17314 9.4957 7.65279 9.36507 8.14178 9.37053C8.63076 9.37603 9.10696 9.51735 9.51015 9.77666C9.91335 10.036 10.2254 10.4016 10.4067 10.8273C10.5881 11.2529 10.6306 11.7194 10.5289 12.1677C10.4271 12.616 10.1858 13.0259 9.83528 13.3455C9.48486 13.6651 9.04104 13.8801 8.56018 13.9632C8.07926 14.0463 7.5829 13.9937 7.13384 13.8122C6.68484 13.6307 6.30337 13.3284 6.03782 12.9436C5.68336 12.4289 5.56072 11.8037 5.69669 11.2045C5.83266 10.6053 6.21619 10.0809 6.76343 9.74593Z" fill="white"/>
<path d="M47.9121 7.50354V15.0968C47.8642 15.9738 48.1381 16.8398 48.6885 17.5505C49.3794 18.1432 50.2827 18.471 51.2195 18.4691C52.1561 18.4673 53.0579 18.1358 53.7462 17.5403C54.3136 16.8401 54.6 15.9751 54.5551 15.0968V7.50354H56.712V15.2988C56.7705 15.9803 56.6781 16.6657 56.4405 17.3121C56.203 17.9585 55.8253 18.5518 55.3315 19.0549C54.1362 19.8576 52.7022 20.2883 51.2318 20.2865C49.7614 20.2846 48.3287 19.8504 47.1357 19.0448C46.6374 18.5462 46.2555 17.9558 46.0141 17.3113C45.7727 16.6668 45.6771 15.9822 45.7335 15.3012V7.50354H47.9121Z" fill="white"/>
<path d="M59.4082 7.01917L67.8639 14.632C67.9354 14.6998 68.0005 14.7638 68.0575 14.8238C68.1151 14.8839 68.1802 14.9486 68.2517 15.0157C68.3381 15.0968 68.4211 15.181 68.5011 15.2684C68.5841 15.3557 68.6677 15.447 68.7506 15.5406C68.8509 15.6349 68.9482 15.7363 69.041 15.844C69.1343 15.9516 69.2317 16.0592 69.3325 16.1669V7.50349H71.3163V20.4681L62.6871 12.7142C62.4457 12.5021 62.2187 12.276 62.0078 12.0372C61.7987 11.8016 61.5936 11.556 61.3931 11.3002V20.0032H59.4082V7.01917Z" fill="white"/>
<path d="M74.1182 7.50354H76.2972V20.0033H74.1182V7.50354Z" fill="white"/>
<path d="M87.9005 9.47294C87.2206 9.22335 86.4958 9.09656 85.7652 9.09937C85.5924 9.09937 85.4167 9.10639 85.2369 9.11962C85.0571 9.1329 84.8658 9.15315 84.6653 9.17967C84.1076 9.25618 83.5729 9.43795 83.0924 9.714C82.6125 9.99004 82.1971 10.3546 81.8715 10.7855C81.2395 11.5947 80.8759 12.5603 80.8258 13.562V14.03C80.8863 14.9549 81.2101 15.8476 81.7638 16.6154C82.3382 17.4275 83.2082 18.016 84.2119 18.2712C84.3266 18.2985 84.4424 18.3211 84.557 18.3414C84.6717 18.3617 84.7944 18.3859 84.924 18.4124L85.2692 18.4529C85.3838 18.4663 85.4985 18.4731 85.6137 18.4732C86.3857 18.4732 87.148 18.3134 87.8463 18.0053C88.5579 17.6962 89.2285 17.3099 89.8439 16.8541V19.1564C89.4158 19.424 88.9566 19.6441 88.4749 19.8123C88.003 19.9787 87.515 20.1038 87.0184 20.1859C86.7885 20.2134 86.5586 20.2371 86.3287 20.2568C86.0988 20.2766 85.877 20.2868 85.6632 20.2873C83.9584 20.2896 82.3048 19.7403 80.982 18.7322C80.2802 18.2108 79.7046 17.5563 79.2915 16.8115C78.879 16.0667 78.6393 15.2485 78.588 14.4106V14.0877C78.573 14.042 78.5655 13.9944 78.5667 13.9466V13.7851C78.554 12.4805 78.9625 11.2029 79.738 10.1195C80.2923 9.31807 81.0344 8.64582 81.9078 8.15394C82.7813 7.6621 83.7631 7.36365 84.7783 7.28135C84.8221 7.28146 84.8653 7.27811 84.9085 7.27125C84.9436 7.26504 84.9793 7.26164 85.0156 7.2611C85.1412 7.24792 85.2674 7.24117 85.3936 7.2408H85.7261C86.467 7.23745 87.2033 7.34998 87.9051 7.57381C88.6247 7.80877 89.3126 8.12294 89.9533 8.50974L89.8456 10.5492C89.2602 10.0984 88.6045 9.73527 87.9005 9.47294Z" fill="white"/>
<path d="M103.226 19.2366C102.042 19.9203 100.679 20.2836 99.289 20.2863C99.1738 20.2863 99.0626 20.2863 98.956 20.2762C98.8494 20.2661 98.7364 20.2591 98.6229 20.2458C98.1637 20.2051 97.7092 20.1268 97.2644 20.0118C96.8161 19.8971 96.3823 19.7381 95.9703 19.5376C94.8214 18.972 93.8616 18.1193 93.1984 17.0739C92.5416 16.0636 92.1947 14.9032 92.1953 13.7202C92.1959 13.5313 92.2063 13.3426 92.2282 13.1548C92.2967 12.6289 92.4229 12.1112 92.605 11.6097C92.7306 11.2905 92.8746 10.9781 93.0371 10.6739C93.6518 9.60099 94.5841 8.71749 95.722 8.12975C96.8248 7.54747 98.0693 7.24151 99.3345 7.24146C99.5506 7.24146 99.7724 7.25155 100.001 7.27186C100.224 7.29081 100.446 7.321 100.666 7.36231C101.129 7.44401 101.583 7.56221 102.025 7.71563C102.464 7.86823 102.883 8.06819 103.273 8.31146C104.259 8.91076 105.059 9.74311 105.592 10.7246C106.134 11.6859 106.42 12.7565 106.424 13.8442C106.424 14.258 106.38 14.6708 106.294 15.0765C106.207 15.4823 106.085 15.8807 105.927 16.2674C105.401 17.5093 104.451 18.5533 103.226 19.2366ZM102.29 17.4763C102.882 17.0341 103.36 16.4725 103.688 15.8332C104.016 15.1939 104.186 14.4935 104.185 13.7841C104.192 13.1736 104.069 12.5679 103.823 12.0026C103.576 11.4373 103.212 10.9238 102.751 10.4921C102.31 10.0458 101.774 9.69122 101.178 9.4513C100.581 9.21132 99.9377 9.09139 99.289 9.09922H98.8361C98.2225 9.15252 97.6268 9.32235 97.0858 9.59829C96.5442 9.87423 96.0683 10.2505 95.6874 10.7043C94.8848 11.5777 94.4418 12.6915 94.4389 13.8442C94.4389 13.9117 94.4423 13.9791 94.4498 14.0462C94.4573 14.1141 94.4683 14.1812 94.4821 14.2482C94.4821 14.2856 94.4855 14.323 94.493 14.3597C94.5005 14.3962 94.5046 14.4333 94.504 14.4705C94.5167 14.5071 94.5276 14.5443 94.5362 14.5821C94.5432 14.6118 94.5472 14.642 94.5472 14.6725C94.7684 15.7223 95.3705 16.6679 96.2515 17.3484C96.8167 17.8083 97.4896 18.1367 98.2156 18.3066C98.9416 18.4766 99.7004 18.4833 100.43 18.3264C101.118 18.1992 101.76 17.9062 102.29 17.4763Z" fill="white"/>
<path d="M109.082 7.01917L117.538 14.632C117.609 14.6998 117.674 14.7638 117.731 14.8238C117.789 14.8839 117.853 14.9486 117.925 15.0157C118.012 15.0968 118.095 15.181 118.175 15.2684C118.258 15.3557 118.336 15.447 118.424 15.5406C118.525 15.6349 118.621 15.7363 118.716 15.844C118.81 15.9516 118.906 16.0592 119.007 16.1669V7.50349H120.992V20.4681L112.364 12.7142C112.122 12.5021 111.895 12.276 111.684 12.0372C111.475 11.8016 111.27 11.556 111.069 11.3002V20.0032H109.085L109.082 7.01917Z" fill="white"/>
<path d="M129.388 16.7197C129.507 17.118 129.725 17.484 130.025 17.7874C130.339 18.0924 130.752 18.291 131.2 18.3521L131.283 18.3716C131.312 18.3756 131.339 18.3824 131.366 18.3919C131.449 18.4051 131.542 18.4191 131.636 18.4324C131.732 18.446 131.83 18.4528 131.927 18.4527H132.078C132.129 18.4534 132.18 18.4466 132.229 18.4324C132.519 18.4054 132.8 18.3304 133.061 18.2109C133.317 18.0984 133.537 17.9247 133.698 17.7071C133.772 17.5816 133.837 17.4513 133.892 17.3171C133.949 17.178 133.986 17.032 134 16.8835C134.013 16.8479 134.021 16.8105 134.022 16.7727V16.6589C134.022 16.595 134.018 16.5313 134.011 16.4678C134.003 16.4075 133.993 16.3435 133.979 16.2759C133.965 16.1739 133.944 16.073 133.914 15.9741C133.886 15.8809 133.842 15.7924 133.785 15.7121C133.619 15.4628 133.39 15.2553 133.119 15.1076C132.809 14.9291 132.485 14.7742 132.149 14.6443C131.918 14.5367 131.687 14.4392 131.458 14.3519C131.25 14.2749 131.048 14.1842 130.855 14.0805C130.839 14.0806 130.825 14.0771 130.812 14.0703C130.795 14.0625 130.78 14.0522 130.768 14.0399C130.145 13.7276 129.562 13.3489 129.031 12.9114C128.493 12.4699 128.144 11.8601 128.05 11.1956C128.041 11.1456 128.037 11.1113 128.029 11.0638C128.022 11.0162 128.012 10.9858 128.007 10.9351C128.002 10.8844 127.996 10.8469 127.992 10.7994C127.988 10.7518 127.985 10.7112 127.985 10.6707C127.985 10.5927 127.985 10.5061 127.996 10.418C128.007 10.3298 128.014 10.2401 128.029 10.1458C128.088 9.81787 128.193 9.49872 128.342 9.19659C128.483 8.89976 128.677 8.62679 128.913 8.38865C129.265 8.0255 129.7 7.74243 130.185 7.56115C130.694 7.36124 131.233 7.23877 131.782 7.19849H132.236C132.292 7.19849 132.323 7.20313 132.413 7.20783C133.134 7.2506 133.834 7.45121 134.457 7.79357C135.093 8.12534 135.583 8.6587 135.837 9.29801L134.173 10.1263C133.95 9.79734 133.661 9.51255 133.321 9.28785C132.98 9.07488 132.577 8.96591 132.168 8.9759H132.103C131.628 8.97865 131.173 9.15204 130.831 9.46022C130.51 9.72644 130.303 10.0924 130.248 10.4905V10.6114C130.248 10.6586 130.252 10.7058 130.259 10.7526C130.264 10.8008 130.275 10.8485 130.291 10.8945C130.322 11.0756 130.396 11.2481 130.507 11.3991C130.624 11.5624 130.769 11.7059 130.938 11.8234C131.228 12.0665 131.551 12.2729 131.898 12.4372C132.25 12.6057 132.606 12.757 132.966 12.8911L133.03 12.9207L133.095 12.9512C133.367 13.0588 133.637 13.1695 133.904 13.2834C134.163 13.3931 134.412 13.5236 134.648 13.6734C135.094 13.9556 135.466 14.3289 135.737 14.7652C135.994 15.1713 136.159 15.6226 136.223 16.0911C136.237 16.1691 136.248 16.2526 136.255 16.3329C136.263 16.4132 136.266 16.4943 136.266 16.5747C136.264 17.3051 136.036 18.0192 135.607 18.6297C135.171 19.2727 134.513 19.756 133.742 19.9993C133.598 20.0398 133.447 20.0773 133.29 20.1201C133.133 20.1589 132.974 20.1849 132.814 20.1982C132.642 20.2247 132.475 20.2449 132.315 20.259C132.157 20.2723 132.005 20.2785 131.862 20.2785C130.932 20.2845 130.019 20.041 129.231 19.5766C128.418 19.0966 127.837 18.3374 127.613 17.4614L129.388 16.7197Z" fill="white"/>
<path d="M149.22 19.2358C148.037 19.9199 146.675 20.2833 145.284 20.2856C145.169 20.2856 145.058 20.2856 144.951 20.2763C144.845 20.2669 144.732 20.2591 144.618 20.2459C144.159 20.2047 143.705 20.1264 143.26 20.0119C142.812 19.8965 142.378 19.7373 141.966 19.5369C140.817 18.9716 139.858 18.1191 139.194 17.0739C138.537 16.0636 138.19 14.9033 138.191 13.7203C138.191 13.5314 138.202 13.3427 138.224 13.1549C138.246 12.9649 138.278 12.7762 138.321 12.5894C138.381 12.2553 138.474 11.9273 138.6 11.6098C138.726 11.2907 138.87 10.9782 139.033 10.6739C139.647 9.60101 140.58 8.71757 141.717 8.12983C142.82 7.54701 144.065 7.24078 145.331 7.24072C145.547 7.24072 145.768 7.25087 145.997 7.27112C146.22 7.29083 146.442 7.32129 146.662 7.36238C147.125 7.44382 147.58 7.56202 148.021 7.71571C148.461 7.86804 148.88 8.06806 149.269 8.31154C150.256 8.91062 151.055 9.74303 151.588 10.7246C152.131 11.6859 152.417 12.7566 152.42 13.8443C152.42 14.2578 152.377 14.6703 152.291 15.0758C152.204 15.4818 152.081 15.8804 151.924 16.2675C151.398 17.5097 150.447 18.5535 149.22 19.2358ZM148.289 17.4756C148.881 17.0336 149.359 16.472 149.687 15.8327C150.016 15.1934 150.186 14.4929 150.185 13.7835C150.192 13.1729 150.068 12.5673 149.822 12.0022C149.576 11.437 149.211 10.9236 148.75 10.4922C148.309 10.0457 147.773 9.69097 147.177 9.45089C146.581 9.2108 145.937 9.09076 145.289 9.09849H144.836C144.221 9.15211 143.625 9.32248 143.082 9.59923C142.54 9.87598 142.064 10.2533 141.682 10.7082C140.879 11.5816 140.437 12.6954 140.434 13.8482C140.434 13.9157 140.437 13.9831 140.445 14.0502C140.451 14.1181 140.462 14.1855 140.477 14.2522C140.476 14.2893 140.48 14.3264 140.488 14.3629C140.495 14.3997 140.499 14.437 140.499 14.4745C140.512 14.5108 140.523 14.5477 140.531 14.5852C140.538 14.6153 140.541 14.6458 140.541 14.6765C140.762 15.7259 141.365 16.6711 142.245 17.3516C142.81 17.8114 143.483 18.1397 144.209 18.3097C144.935 18.4798 145.694 18.4869 146.424 18.3304C147.114 18.2032 147.758 17.9084 148.289 17.4756Z" fill="white"/>
<path d="M154.97 7.50354H162.41V9.25994H157.126V12.35H162.41V14.1071H157.126V20.0033H154.97V7.50354Z" fill="white"/>
<path d="M170.568 20.0033H168.39V9.25994H164.849V7.50354H174.086V9.25994H170.57L170.568 20.0033Z" fill="white"/>
</g>
<defs>
<clipPath id="clip0_2119_2734">
<rect width="174" height="27" fill="white" transform="translate(0.165039)"/>
</clipPath>
</defs>
</svg>
