<svg width="700" height="361" viewBox="0 0 700 361" fill="none" xmlns="http://www.w3.org/2000/svg">
<path d="M446.751 102.666L446.76 102.666C446.775 102.667 446.789 102.663 446.802 102.657L446.809 102.653C448.013 102.043 449.249 101.499 450.512 101.024C451.765 100.548 453.063 100.087 454.325 99.7171L454.222 99.732L454.241 99.7325C454.272 99.7334 454.304 99.7294 454.334 99.7204L454.359 99.7127C461.028 97.6208 467.953 96.4545 474.939 96.2465C478.421 96.1433 481.906 96.2544 485.374 96.5792L495.886 97.4673C502.897 98.0329 509.921 98.4372 516.941 98.8841C523.963 99.3096 530.982 99.771 537.991 100.355L537.841 99.8178C536.601 100.719 535.466 101.757 534.459 102.913C533.462 104.082 532.612 105.37 531.929 106.746C531.268 108.131 530.744 109.578 530.365 111.065C530.005 112.556 529.775 114.075 529.675 115.605C529.505 118.663 529.711 121.73 530.288 124.737C530.834 127.758 531.69 130.715 532.844 133.56L533.679 132.485C528.747 131.554 523.817 130.614 518.879 129.718L504.071 127L504.88 127.729L504.773 127.411L504.805 127.497C504.089 125.231 502.613 123.28 500.627 121.974C498.653 120.671 496.311 120.039 493.95 120.171C491.578 120.324 489.328 121.275 487.566 122.87C487.336 123.054 487.128 123.265 486.947 123.498L486.375 124.17C486.032 124.644 485.715 125.137 485.427 125.646C485.153 126.151 484.966 126.67 484.734 127.182C484.625 127.44 484.507 127.695 484.408 127.954L484.163 128.748C482.985 132.946 482.532 137.314 482.824 141.664C483.018 145.955 483.62 150.219 484.622 154.396L485.363 153.653L475.408 151.571L465.433 149.577C465.408 149.572 465.382 149.577 465.36 149.591C465.338 149.605 465.323 149.626 465.318 149.651C465.312 149.676 465.316 149.702 465.329 149.724C465.343 149.746 465.364 149.762 465.389 149.768L475.227 152.349L485.083 154.855C485.182 154.88 485.286 154.88 485.385 154.854C485.484 154.829 485.575 154.779 485.65 154.709C485.724 154.639 485.78 154.551 485.812 154.454C485.844 154.356 485.85 154.253 485.831 154.152L485.824 154.112C485.028 149.99 484.574 145.809 484.465 141.612C484.286 137.47 484.813 133.327 486.023 129.361L486.256 128.637C486.349 128.403 486.459 128.178 486.559 127.948C486.772 127.498 486.95 127.014 487.187 126.592C487.455 126.2 487.666 125.763 487.97 125.402L488.437 124.869C488.58 124.682 488.749 124.514 488.937 124.372C490.364 123.115 492.173 122.375 494.072 122.273C495.98 122.163 497.873 122.671 499.47 123.72C501.061 124.769 502.251 126.325 502.849 128.134L502.882 128.221C502.887 128.246 502.894 128.27 502.904 128.293L502.97 128.443C503.037 128.593 503.14 128.725 503.27 128.826C503.399 128.927 503.552 128.994 503.714 129.023L518.558 131.536C523.505 132.384 528.459 133.188 533.412 134.001C533.549 134.023 533.69 134.008 533.82 133.957C533.949 133.907 534.063 133.822 534.149 133.712C534.234 133.602 534.288 133.471 534.305 133.332C534.323 133.194 534.302 133.054 534.247 132.926C533.07 130.207 532.152 127.382 531.505 124.49C530.833 121.594 530.531 118.624 530.606 115.652C530.654 114.17 530.83 112.696 531.131 111.244C531.45 109.798 531.929 108.392 532.559 107.052C533.202 105.719 534.006 104.47 534.953 103.332C535.914 102.203 537 101.185 538.189 100.299L538.198 100.293C538.245 100.256 538.28 100.206 538.298 100.149C538.317 100.092 538.317 100.031 538.3 99.9735C538.283 99.9161 538.249 99.8652 538.202 99.8276C538.156 99.7899 538.099 99.7671 538.04 99.7623C531.029 99.1928 524.029 98.5052 517.032 97.7738C510.034 97.0651 503.039 96.3138 496.03 95.7237L485.514 94.8785C481.975 94.5765 478.419 94.5221 474.871 94.7155C471.326 94.9119 467.8 95.3751 464.324 96.1013C460.851 96.804 457.44 97.783 454.123 99.0289L454.241 99.0092L454.222 99.0097L454.195 99.0105C454.169 99.0113 454.144 99.0161 454.12 99.0246C452.805 99.4941 451.575 100.016 450.324 100.575C449.079 101.131 447.872 101.768 446.711 102.482L446.76 102.469L446.751 102.469C446.725 102.47 446.701 102.481 446.684 102.499C446.666 102.518 446.656 102.542 446.656 102.568C446.656 102.593 446.666 102.617 446.684 102.636C446.701 102.654 446.725 102.665 446.751 102.666L446.751 102.666Z" fill="url(#paint0_linear_2126_336)"/>
<path d="M403.763 128.866C404.323 126.06 405.447 123.396 407.068 121.037C407.876 119.906 408.806 118.867 409.841 117.939C410.889 117.023 412.013 116.198 413.199 115.47C415.637 114.045 418.238 112.919 420.945 112.118C423.691 111.286 426.499 110.675 429.341 110.289L429.396 110.284C430.368 110.013 431.336 109.724 432.301 109.416C431.289 109.466 430.281 109.538 429.277 109.627L429.331 109.621C426.363 109.492 423.391 109.775 420.5 110.462C417.564 111.123 414.756 112.258 412.185 113.823C409.564 115.402 407.382 117.615 405.84 120.258C404.356 122.877 403.637 125.859 403.763 128.866Z" fill="url(#paint1_linear_2126_336)"/>
<path d="M496.812 120.772C495.1 120.109 493.369 119.532 491.626 119.009C489.885 118.479 488.134 117.989 486.374 117.54C484.62 117.067 482.846 116.681 481.079 116.264C479.303 115.892 477.53 115.502 475.74 115.189L475.326 115.116L475.066 115.315C474.332 115.882 473.655 116.519 473.044 117.216C472.438 117.88 471.881 118.588 471.377 119.333C470.873 120.068 470.42 120.838 470.022 121.637C469.622 122.427 469.283 123.247 469.009 124.09C469.521 123.372 470.049 122.677 470.593 122.006C471.144 121.335 471.7 120.666 472.28 120.059C472.872 119.443 473.477 118.848 474.107 118.287C474.721 117.746 475.365 117.24 476.035 116.769L475.362 116.895C477.116 117.366 478.888 117.76 480.654 118.178C482.431 118.551 484.201 118.954 485.99 119.27C487.773 119.613 489.566 119.912 491.368 120.168C493.169 120.434 494.981 120.646 496.812 120.772Z" fill="url(#paint2_linear_2126_336)"/>
<path d="M521.734 98.7195C519.636 100.66 517.984 103.034 516.895 105.677C515.755 108.319 515.037 111.123 514.764 113.988C514.537 116.845 514.712 119.72 515.285 122.529C515.354 122.878 515.407 123.23 515.49 123.575L515.783 124.601L516.399 126.634C516.896 127.96 517.478 129.252 518.087 130.513C517.889 129.107 517.561 127.758 517.333 126.394L517.045 124.343L516.886 123.326C516.843 122.987 516.83 122.643 516.801 122.302C516.754 121.618 516.699 120.939 516.627 120.262C516.577 119.583 516.603 118.901 516.587 118.222C516.556 116.868 516.601 115.514 516.72 114.164C516.969 111.467 517.506 108.803 518.322 106.22C519.144 103.588 520.29 101.068 521.734 98.7195Z" fill="url(#paint3_linear_2126_336)"/>
<path d="M468.478 119.164C467.009 118.616 465.532 118.077 464.045 117.566C464.127 118.173 464.171 118.784 464.175 119.397C465.448 119.796 466.731 120.177 468.022 120.549C468.896 120.8 469.769 121.051 470.652 121.302C470.773 121.116 470.894 120.939 471.015 120.772C471.135 120.595 471.265 120.428 471.377 120.27C470.411 119.889 469.444 119.527 468.478 119.164Z" fill="url(#paint4_linear_2126_336)"/>
<path d="M453.831 116.023C454.964 116.414 456.08 116.804 457.213 117.185H457.223C457.576 116.626 457.987 116.106 458.449 115.633L458.031 115.494C456.777 115.085 455.522 114.676 454.267 114.276C454.119 114.908 453.961 115.494 453.831 116.023Z" fill="url(#paint5_linear_2126_336)"/>
<path d="M460.217 109.9C458.349 109.295 456.481 108.691 454.604 108.106C454.807 108.73 454.904 109.383 454.892 110.039C456.462 110.596 458.051 111.126 459.631 111.665C463.135 112.808 466.656 113.933 470.206 114.945C471.851 115.429 473.505 115.89 475.169 116.33C477.083 116.841 478.997 117.324 480.939 117.743C480.168 117.399 479.397 117.055 478.616 116.72C478.607 116.72 478.607 116.72 478.598 116.711C475.977 115.596 473.319 114.564 470.662 113.57C467.205 112.269 463.711 111.08 460.217 109.9Z" fill="url(#paint6_linear_2126_336)"/>
<path d="M445.599 106.61C445.757 106.675 445.915 106.74 446.073 106.796C446.479 106.456 446.937 106.183 447.43 105.987C446.928 105.848 446.426 105.708 445.924 105.569C445.803 105.959 445.692 106.312 445.599 106.61Z" fill="url(#paint7_linear_2126_336)"/>
<path d="M533.543 133.239C554.523 114.091 538.011 100.062 538.011 100.062C523.348 110.68 533.543 133.239 533.543 133.239Z" fill="url(#paint8_linear_2126_336)"/>
<path d="M485.224 154.25C502.536 159.414 503.891 128.01 503.891 128.01C503.87 127.945 503.85 127.881 503.829 127.818C501.226 119.822 490.069 118.788 486.22 126.264C481.004 136.395 485.224 154.25 485.224 154.25Z" fill="url(#paint9_linear_2126_336)"/>
<path d="M472.166 150.5C475.033 157.565 477.967 164.557 480.666 171.614C483.425 178.584 485.749 185.718 487.627 192.975C488.07 194.756 488.41 196.561 488.646 198.381C488.902 200.143 488.894 201.933 488.622 203.692C488.479 204.52 488.199 205.318 487.791 206.052C487.376 206.75 486.8 207.339 486.112 207.77C484.541 208.567 482.755 208.834 481.019 208.532C477.334 207.893 473.787 206.615 470.54 204.758C469.715 204.301 468.889 203.85 468.075 203.373L465.667 201.875C464.042 200.911 462.52 199.783 460.961 198.724C459.408 197.654 457.931 196.475 456.416 195.36L454.217 193.587C453.485 192.997 452.732 192.435 452.026 191.813C450.606 190.579 449.128 189.421 447.748 188.146L445.643 186.277L443.592 184.349C440.869 181.769 438.249 179.086 435.733 176.302C433.199 173.539 430.767 170.684 428.393 167.781C423.633 161.961 419.2 155.881 415.116 149.568C413.067 146.406 411.101 143.184 409.218 139.904C407.332 136.627 405.527 133.288 403.883 129.866L403.513 129.998C405.737 137.344 408.734 144.434 412.455 151.147C416.128 157.913 420.367 164.356 425.127 170.406C429.938 176.433 435.279 182.017 441.087 187.091L443.267 188.986L445.508 190.809C446.992 192.034 448.546 193.174 450.099 194.309C451.654 195.44 453.27 196.49 454.87 197.55C456.519 198.544 458.123 199.596 459.799 200.534C461.472 201.475 463.123 202.445 464.83 203.316C466.521 204.211 468.208 205.112 469.937 205.948C473.379 207.727 477.051 209.021 480.848 209.795C482.873 210.222 484.981 210.01 486.879 209.187C487.86 208.695 488.708 207.976 489.353 207.088C489.959 206.211 490.423 205.243 490.725 204.22C491.261 202.259 491.496 200.228 491.422 198.196C491.369 196.226 491.171 194.262 490.831 192.321C490.137 188.506 489.119 184.757 487.789 181.114C486.514 177.48 485.057 173.928 483.476 170.44C482.701 168.689 481.859 166.97 481.011 165.256C480.17 163.539 479.284 161.845 478.371 160.166C476.552 156.806 474.635 153.5 472.512 150.314L472.166 150.5Z" fill="url(#paint10_linear_2126_336)"/>
<path d="M518.354 104.132C513.002 103.327 507.636 102.715 502.265 102.171C496.894 101.614 491.515 101.173 486.135 100.753C480.752 100.37 475.367 100.012 469.973 99.7679C464.581 99.5114 459.183 99.3246 453.771 99.3324C459.122 100.14 464.489 100.753 469.86 101.297C475.23 101.853 480.609 102.294 485.989 102.711C491.373 103.092 496.758 103.45 502.151 103.694C507.544 103.95 512.942 104.138 518.354 104.132Z" fill="url(#paint11_linear_2126_336)"/>
<path d="M452.625 194.286C453.394 187.461 454.134 180.625 454.797 173.782L455.051 171.216L455.178 169.933C455.191 169.833 455.195 169.703 455.215 169.627C455.238 169.566 455.257 169.504 455.271 169.441C455.335 169.269 455.409 169.101 455.49 168.937C456.249 167.5 457.244 166.063 458.167 164.628C460.051 161.756 461.869 158.812 463.493 155.747C464.297 154.209 465.054 152.641 465.716 151.023C466.371 149.384 466.92 147.752 467.488 146.141C468.63 142.906 469.762 139.668 470.851 136.415L472.505 131.542L472.918 130.324C473.079 129.863 473.187 129.385 473.24 128.9C473.355 127.912 473.216 126.912 472.836 125.993C472.457 125.015 471.737 124.208 470.809 123.72C469.85 123.299 468.766 123.255 467.776 123.599C466.074 124.237 464.52 125.218 463.211 126.481L464.233 127.055C464.469 125.397 464.621 123.729 464.687 122.057C464.719 121.222 464.724 120.378 464.691 119.543C464.62 118.7 464.586 117.844 464.444 117.008C464.322 116.118 464.004 115.266 463.514 114.513C463.221 114.09 462.789 113.783 462.293 113.647C461.817 113.549 461.324 113.576 460.862 113.726C459.192 114.293 457.792 115.457 456.928 116.994L457.225 116.832H457.216L457.023 116.833L456.921 116.991C456.35 117.906 455.834 118.853 455.374 119.829C455.16 120.292 454.91 120.738 454.625 121.162C454.449 121.37 454.451 121.367 454.201 121.382C454.123 121.39 454.044 121.374 453.975 121.335C453.906 121.297 453.85 121.239 453.815 121.168C453.642 120.723 453.572 120.244 453.612 119.768C453.625 119.246 453.666 118.726 453.735 118.208C453.868 117.162 454.074 116.126 454.351 115.109C454.634 114.073 454.862 113.022 455.034 111.962C455.229 110.878 455.244 109.769 455.078 108.68C454.974 108.115 454.765 107.576 454.46 107.089C454.14 106.597 453.704 106.191 453.189 105.909C452.174 105.412 451.044 105.194 449.917 105.278L449.975 105.281C449.494 105.234 449.009 105.25 448.532 105.328C448.061 105.404 447.599 105.535 447.157 105.717C446.264 106.091 445.489 106.703 444.917 107.485L444.953 107.443C444.879 107.522 444.836 107.625 444.831 107.733L444.838 109.317L445.565 107.907L445.574 107.889L445.584 107.871L445.599 107.827C446.901 104.377 447.777 100.782 448.21 97.12C448.302 96.1714 448.289 95.2155 448.171 94.2697C448.084 93.2151 447.627 92.2252 446.881 91.4742C446.446 91.0975 445.914 90.8503 445.345 90.7605C444.794 90.6961 444.236 90.753 443.709 90.9272C442.768 91.28 441.908 91.8195 441.181 92.5132C439.815 93.8112 438.615 95.2728 437.607 96.8649C436.591 98.4118 435.658 100.011 434.811 101.656C433.047 104.919 431.654 108.369 430.661 111.943C429.714 115.481 428.82 118.987 427.605 122.37C426.38 125.711 424.902 129.073 422.55 131.51C421.459 132.705 419.997 133.498 418.399 133.759C417.579 133.845 416.751 133.811 415.94 133.659C415.077 133.54 414.222 133.365 413.381 133.134C411.694 132.677 410.067 132.022 408.535 131.181C407.02 130.353 405.62 129.329 404.371 128.137L403.368 127.14L402.834 128.359C402.254 129.729 401.902 131.183 401.792 132.666C401.671 134.104 401.723 135.55 401.945 136.976C402.418 139.796 403.438 142.496 404.949 144.924C405.699 146.157 406.612 147.284 407.662 148.273C408.731 149.223 409.898 150.055 411.144 150.756C412.37 151.445 413.627 152.017 414.778 152.659C415.902 153.203 416.864 154.033 417.567 155.065C418.153 156.184 418.463 157.427 418.471 158.69C418.561 160.034 418.612 161.389 418.628 162.749C418.662 165.468 418.61 168.196 418.513 170.922C418.408 173.649 418.302 176.377 418.125 179.102C417.932 181.822 417.782 184.561 417.324 187.241L417.505 187.283C418.089 184.593 418.359 181.868 418.675 179.149C418.963 176.427 419.226 173.701 419.406 170.968C419.587 168.235 419.724 165.498 419.775 162.751C419.801 161.377 419.79 159.998 419.742 158.613C419.766 157.136 419.432 155.674 418.769 154.353C417.963 153.094 416.839 152.068 415.512 151.38C414.288 150.669 413.063 150.084 411.918 149.411C410.792 148.75 409.74 147.971 408.779 147.087C407.855 146.182 407.058 145.156 406.408 144.038C405.065 141.785 404.173 139.292 403.783 136.699C403.589 135.42 403.547 134.124 403.66 132.836C403.759 131.588 404.052 130.364 404.526 129.206L402.988 129.428C405.76 132.091 409.16 134.008 412.872 135.003C413.788 135.258 414.721 135.453 415.663 135.587C416.144 135.639 416.585 135.73 417.1 135.749L417.873 135.772C418.131 135.757 418.39 135.727 418.649 135.702C420.687 135.4 422.559 134.404 423.948 132.881C426.653 129.992 428.095 126.453 429.343 122.983C430.557 119.484 431.428 115.902 432.33 112.388C432.559 111.512 432.789 110.64 433.066 109.814C433.348 108.972 433.667 108.132 434 107.298C434.667 105.628 435.403 103.979 436.206 102.367C436.999 100.754 437.877 99.184 438.835 97.6636C439.756 96.1559 440.85 94.7612 442.095 93.5082C442.673 92.9209 443.361 92.4539 444.119 92.1342C444.458 92.0112 444.818 91.9606 445.177 91.9856C445.514 92.0308 445.833 92.1677 446.098 92.3815C446.647 92.9371 446.988 93.665 447.063 94.4426C447.193 95.305 447.228 96.1791 447.168 97.0491C446.83 100.648 446.054 104.193 444.857 107.604L444.881 107.542L444.872 107.561L445.606 107.735C445.607 107.782 445.598 107.829 445.581 107.873C445.563 107.916 445.536 107.956 445.502 107.989L445.539 107.947C446.014 107.256 446.671 106.71 447.437 106.368C448.207 106.03 449.047 105.887 449.885 105.951L449.922 105.954L449.944 105.953C450.95 105.866 451.961 106.046 452.876 106.475C453.3 106.717 453.664 107.052 453.94 107.455C454.217 107.857 454.398 108.318 454.471 108.8C454.632 109.82 454.625 110.86 454.449 111.877C454.289 112.921 454.074 113.956 453.805 114.977C453.521 116.015 453.302 117.069 453.149 118.133C453.072 118.671 453.023 119.212 453.002 119.755C452.948 120.343 453.039 120.936 453.269 121.48C453.365 121.639 453.497 121.771 453.656 121.865C453.814 121.96 453.994 122.014 454.178 122.022C454.363 122.03 454.546 121.993 454.713 121.913C454.879 121.833 455.023 121.714 455.132 121.565C455.451 121.111 455.731 120.631 455.969 120.13C456.428 119.184 456.943 118.266 457.51 117.38L457.216 117.538L457.225 117.538L457.416 117.539L457.521 117.376C458.293 116.002 459.56 114.973 461.063 114.499C461.369 114.367 461.712 114.348 462.031 114.444C462.35 114.541 462.624 114.747 462.806 115.027C463.19 115.68 463.43 116.408 463.507 117.162C463.617 117.958 463.621 118.759 463.667 119.562C463.675 120.377 463.645 121.185 463.589 121.999C463.475 123.624 463.28 125.243 463.004 126.849L462.719 128.504L464.026 127.423C465.225 126.327 466.632 125.482 468.164 124.94C468.816 124.721 469.527 124.756 470.155 125.038C470.742 125.392 471.188 125.938 471.418 126.583C471.69 127.262 471.784 127.999 471.691 128.724C471.648 129.092 471.562 129.454 471.436 129.803L471.011 131.019L469.31 135.882C468.164 139.12 467.06 142.373 465.966 145.629C465.411 147.261 464.882 148.891 464.28 150.446C463.66 152.013 462.941 153.548 462.173 155.061C460.627 158.087 458.834 160.991 457.034 163.91C456.145 165.388 455.21 166.801 454.41 168.424C454.306 168.647 454.216 168.876 454.141 169.109C454.106 169.255 454.075 169.402 454.048 169.549C454.028 169.683 454.03 169.77 454.02 169.883L453.929 171.165L453.748 173.729C453.25 180.568 452.83 187.413 452.439 194.27L452.625 194.286Z" fill="url(#paint12_linear_2126_336)"/>
<path d="M441.427 117.742L445.65 107.901L444.781 107.572L441.427 117.742Z" fill="url(#paint13_linear_2126_336)"/>
<path d="M303.83 84.1235C307.255 85.575 310.826 86.7954 314.401 87.9151C317.995 89.0233 321.648 89.9316 325.342 90.6357C329.057 91.3962 332.839 91.7731 336.631 91.7605C338.555 91.743 340.473 91.5462 342.36 91.1727C344.304 90.8022 346.165 90.0819 347.852 89.0467L347.77 89.0938C350.607 87.6784 353.459 86.2929 356.28 84.8462L357.221 84.3635L356.654 83.5483C356.586 83.4388 356.501 83.3411 356.402 83.2587C356.354 83.2139 356.303 83.1729 356.249 83.1361C356.163 83.0773 356.063 83.0004 355.987 82.9606C355.831 82.8746 355.663 82.7683 355.514 82.7046C355.207 82.5531 354.905 82.4232 354.606 82.3099C354.006 82.0762 353.411 81.869 352.814 81.6918C351.622 81.3138 350.422 81.0279 349.224 80.7475C346.826 80.1944 344.42 79.7266 342.005 79.3441C339.593 78.9386 337.177 78.5827 334.758 78.2544C332.341 77.912 329.918 77.6267 327.498 77.3235L327.826 77.504L322.876 71.8394C321.224 69.9487 319.631 68.0293 317.923 66.1596C314.472 62.4603 310.474 59.3123 306.068 56.8257C303.858 55.5965 301.561 54.5294 299.195 53.633C296.82 52.761 294.39 52.0479 291.92 51.4983C286.971 50.2397 281.844 49.8332 276.758 50.2965C271.611 50.9326 266.704 52.8453 262.483 55.8605C258.286 58.9201 254.866 62.9239 252.5 67.5486C251.329 69.8592 250.416 72.2917 249.777 74.8023L249.363 76.7C249.248 77.3285 249.137 77.9524 249.041 78.5825C248.84 79.8393 248.677 81.1032 248.552 82.3741C248.28 84.9253 248.218 87.4946 248.366 90.056C248.504 92.6565 248.978 95.2283 249.777 97.7071L250.098 98.671L251.068 98.3793L264.178 94.4384L277.324 90.6114C281.706 89.3359 286.098 88.0982 290.51 86.9427C292.712 86.3479 294.922 85.7872 297.139 85.2604C298.252 85.0296 299.359 84.7318 300.48 84.5554L302.159 84.2545L303.83 84.1235ZM303.875 83.9226L302.125 83.9408L300.415 84.1362C299.27 84.2569 298.153 84.4966 297.019 84.6714C294.768 85.0846 292.521 85.5267 290.288 86.0201C285.821 87.0113 281.376 88.0845 276.942 89.1954C272.506 90.3034 268.095 91.5024 263.682 92.6933C259.273 93.899 254.863 95.0903 250.471 96.3732L251.762 97.0453C250.289 92.4761 250.3 87.4668 250.743 82.5897C250.861 81.3649 251.017 80.1424 251.21 78.9223C251.302 78.3128 251.409 77.702 251.519 77.0976L251.905 75.3206C252.476 72.9618 253.303 70.6722 254.371 68.4923C256.537 64.1215 259.699 60.3207 263.604 57.3962C267.543 54.4947 272.131 52.6001 276.97 51.8773C281.881 51.297 286.855 51.5355 291.689 52.5832C296.593 53.4574 301.327 55.1052 305.715 57.4648C310.102 59.8428 314.064 62.9313 317.441 66.6049C320.725 70.3533 323.855 74.3032 327.027 78.178L327.148 78.3247L327.356 78.3587C329.757 78.7498 332.161 79.1262 334.555 79.5532C336.951 79.9662 339.342 80.4065 341.719 80.8941C344.097 81.3763 346.466 81.8921 348.806 82.4712C349.974 82.7637 351.136 83.0826 352.267 83.4375C352.837 83.6083 353.393 83.806 353.926 84.0157C354.197 84.1195 354.452 84.2312 354.692 84.3508C354.823 84.4072 354.91 84.4713 355.022 84.5292C355.062 84.5533 355.101 84.5795 355.139 84.6077C355.161 84.6212 355.177 84.6335 355.165 84.626C355.152 84.604 355.2 84.6799 355.074 84.4977L355.448 83.2001C352.609 84.6107 349.801 86.0827 346.978 87.5247L346.933 87.5477L346.896 87.5719C343.965 89.4811 340.219 90.0312 336.594 90.1613C334.754 90.2063 332.913 90.1518 331.079 89.9983C329.236 89.8655 327.395 89.6429 325.561 89.3569C321.888 88.8074 318.254 87.9738 314.636 87.0775C311.012 86.1675 307.45 85.1097 303.875 83.9226Z" fill="url(#paint14_linear_2126_336)"/>
<path d="M281.184 55.8331C282.944 57.9004 284.746 59.9098 286.557 61.9084L291.986 67.8947C293.795 69.8866 295.59 71.8909 297.369 73.9076C299.137 75.9368 300.885 77.9778 302.621 80.0667C301.332 77.6741 299.854 75.3883 298.201 73.2312C296.575 71.0553 294.808 68.9952 293.003 66.9728C291.175 64.9718 289.288 63.0261 287.322 61.1628C285.37 59.281 283.321 57.502 281.184 55.8331Z" fill="url(#paint15_linear_2126_336)"/>
<path d="M271.789 56.8221C270.334 59.4629 269.047 62.193 267.936 64.9962C266.806 67.7917 265.82 70.6418 264.976 73.5463C264.14 76.4526 263.487 79.4088 263.023 82.3973C262.562 85.3886 262.433 88.4219 262.64 91.4415C262.965 88.4678 263.445 85.5129 264.078 82.5891C264.72 79.6779 265.475 76.7937 266.296 73.9257C267.106 71.0536 268.024 68.2106 268.939 65.3618C269.882 62.5222 270.811 59.6714 271.789 56.8221Z" fill="url(#paint16_linear_2126_336)"/>
<path d="M327.426 77.8411C325.802 77.8635 324.181 77.9771 322.57 78.1812C320.964 78.3619 319.372 78.6216 317.783 78.8967C316.198 79.1969 314.617 79.5142 313.049 79.9102C311.469 80.2858 309.912 80.7509 308.385 81.303C310.009 81.2823 311.63 81.1694 313.241 80.9649C314.847 80.7839 316.439 80.5241 318.028 80.2475C319.612 79.9455 321.194 79.6282 322.761 79.2319C324.341 78.8559 325.898 78.3916 327.426 77.8411Z" fill="url(#paint17_linear_2126_336)"/>
<path d="M327.428 90.313C327.402 91.692 327.475 93.0686 327.573 94.4474C327.661 95.839 327.86 97.2214 328.166 98.5817C328.318 99.3166 328.595 100.02 328.985 100.661C329.337 101.185 329.679 101.798 330.019 102.382C330.706 103.561 331.369 104.761 332.03 105.959C333.368 108.35 334.683 110.752 335.976 113.166C336.611 114.377 337.268 115.578 337.875 116.796C338.181 117.404 338.471 118.018 338.754 118.627C338.893 118.933 339.025 119.239 339.139 119.541C339.19 119.689 339.251 119.845 339.281 119.977C339.3 120.033 339.313 120.091 339.319 120.149C339.321 120.16 339.331 120.216 339.33 120.191C339.33 120.168 339.336 120.145 339.347 120.125C339.359 120.105 339.375 120.088 339.394 120.076L339.647 119.899C339.178 120.01 338.696 120.056 338.214 120.034C337.7 120.013 337.189 119.944 336.687 119.828C336.177 119.708 335.674 119.557 335.182 119.375C334.686 119.186 334.2 118.969 333.727 118.727L333.657 118.692L333.611 118.701C333.129 118.792 332.676 119.002 332.295 119.311C331.93 119.618 331.669 120.031 331.549 120.492C331.729 120.075 332.035 119.723 332.423 119.486C332.792 119.253 333.213 119.113 333.648 119.078L333.533 119.053C334.444 119.685 335.44 120.186 336.491 120.541C337.031 120.715 337.585 120.837 338.148 120.907C338.743 120.99 339.348 120.97 339.936 120.848L340.105 120.811L340.189 120.671C340.254 120.559 340.3 120.436 340.324 120.308C340.332 120.237 340.332 120.165 340.326 120.094C340.323 119.981 340.308 119.869 340.281 119.759C340.244 119.573 340.196 119.388 340.139 119.206C340.032 118.858 339.912 118.525 339.786 118.197C339.536 117.541 339.253 116.906 338.967 116.275C338.39 115.015 337.793 113.77 337.154 112.548C335.899 110.093 334.557 107.689 333.174 105.307C332.471 104.121 331.757 102.944 331.019 101.774C330.643 101.187 330.275 100.623 329.828 100.029C329.482 99.5069 329.221 98.9332 329.054 98.3294C328.32 95.6999 327.776 93.0208 327.428 90.313Z" fill="url(#paint18_linear_2126_336)"/>
<path d="M323.966 123.918C327.922 117.818 333.63 120.492 333.63 120.492C333.63 120.492 335.835 150.789 322.317 151.613C312.03 152.241 303.178 145.993 296.954 139.266C293.73 135.764 291.69 131.337 291.122 126.611C290.278 119.711 289.009 109.286 288.687 106.278C288.193 101.662 286.322 89.5764 279.62 90.313C279.62 90.313 265.608 90.4524 272.861 114.686C272.861 114.686 274.839 129.853 261.981 128.039C261.981 128.039 264.618 120.456 261.157 114.686C257.695 108.916 253.143 101.622 253.358 96.614C253.358 96.614 298.743 83.1988 303.854 84.0231C300.708 85.6835 298.178 88.3089 296.635 91.5135C295.092 94.7181 294.618 98.3331 295.281 101.827C296.789 111.627 304.041 124.778 307.407 130.48C307.94 131.39 308.71 132.138 309.635 132.645C310.56 133.151 311.605 133.398 312.658 133.359C314.607 133.28 316.844 132.995 317.908 132.16C320.009 130.512 323.966 123.918 323.966 123.918Z" fill="url(#paint19_linear_2126_336)"/>
<path d="M324.451 94.8546C323.488 94.1127 322.385 93.5718 321.208 93.2642C320.011 92.9275 318.76 92.8231 317.524 92.9569C316.26 93.108 315.058 93.5872 314.036 94.3467C313.044 95.0881 312.282 96.0959 311.839 97.2531C312.672 96.4701 313.604 95.7978 314.609 95.2529C315.574 94.7605 316.619 94.4443 317.695 94.3192C318.796 94.1971 319.907 94.1951 321.009 94.3133C322.135 94.431 323.273 94.6158 324.451 94.8546Z" fill="url(#paint20_linear_2126_336)"/>
<path d="M285.555 111.719C283.345 112.585 280.787 112.487 279.15 111.037C278.325 110.305 277.666 109.405 277.218 108.397C276.735 107.361 276.349 106.283 276.063 105.176C275.426 102.945 275.049 100.647 274.94 98.3291C274.889 97.1655 274.919 95.9999 275.028 94.8404C275.082 94.2574 275.167 93.6776 275.281 93.1033C275.332 92.813 275.406 92.5302 275.483 92.2453C275.543 91.9571 275.661 91.6838 275.828 91.4417C275.414 91.8859 275.103 92.4158 274.916 92.9938C274.695 93.5584 274.511 94.1365 274.363 94.7246C274.082 95.907 273.917 97.1138 273.868 98.3281C273.78 100.765 274.074 103.2 274.741 105.545C275.402 107.824 276.362 110.346 278.505 111.887C279.559 112.642 280.842 113.006 282.135 112.919C283.363 112.838 284.545 112.423 285.555 111.719Z" fill="url(#paint21_linear_2126_336)"/>
<path d="M301.547 143.666C300.739 144.159 299.991 144.746 299.321 145.415C298.646 146.065 298.025 146.767 297.462 147.516C296.891 148.272 296.399 149.084 295.993 149.94C295.52 150.802 295.329 151.791 295.446 152.767C295.842 151.952 296.335 151.187 296.913 150.49C297.457 149.774 298.027 149.07 298.562 148.338C299.106 147.611 299.635 146.867 300.142 146.098C300.669 145.323 301.139 144.51 301.547 143.666Z" fill="url(#paint22_linear_2126_336)"/>
<path d="M261.98 128.039C261.107 129.39 260.311 130.79 259.597 132.232C259.236 132.921 258.879 133.602 258.477 134.25C258.08 134.933 257.595 135.56 257.035 136.117C257.907 135.995 258.71 135.575 259.307 134.928C259.918 134.329 260.426 133.634 260.812 132.871C261.2 132.13 261.499 131.345 261.702 130.533C261.924 129.721 262.018 128.88 261.98 128.039Z" fill="url(#paint23_linear_2126_336)"/>
<path d="M241.865 124.573C241.865 124.573 257.765 125.734 260.451 132.081L259.968 132.992L258.193 132.081C249.662 127.835 244.839 133.475 250.768 134.47C256.706 135.455 292.065 151.652 292.065 151.652C307.398 155.992 316.384 179.307 316.384 179.307C313.912 178.248 311.394 177.3 308.894 176.287C306.329 175.46 303.783 174.568 301.19 173.834C295.985 172.364 290.676 171.286 285.309 170.609C279.933 169.917 274.502 169.749 269.093 170.107C267.746 170.256 266.398 170.34 265.051 170.535C263.722 170.767 262.374 170.925 261.055 171.241C258.401 171.763 255.816 172.589 253.351 173.704C255.914 172.937 258.543 172.412 261.204 172.133C262.523 171.929 263.861 171.864 265.181 171.743C266.51 171.659 267.839 171.613 269.167 171.548C274.488 171.467 279.808 171.768 285.086 172.449L289.045 172.96L292.985 173.657L294.955 173.983L296.906 174.41C298.217 174.698 299.518 174.977 300.828 175.246C303.43 175.85 306.013 176.538 308.625 177.161C311.208 177.867 313.773 178.648 316.384 179.307C356.603 185.905 395.847 210.633 398.476 209.973C401.116 209.314 403.429 188.544 403.429 183.201C403.429 177.867 404.414 167.766 412.332 167.766C420.24 167.766 419.255 174.689 419.255 174.689C404.414 178.648 438.705 181.621 448.927 182.931C459.149 184.251 453.545 180.302 453.545 180.302C453.545 180.302 456.51 177.133 459.688 181.073C460.68 182.344 461.348 183.836 461.636 185.423C461.925 187.009 461.824 188.641 461.342 190.18C460.329 193.562 458.833 198.692 457.829 202.716C456.175 209.314 450.246 256.79 448.267 261.409C446.288 266.018 405.409 278.22 318.363 271.956C311.31 270.85 304.285 269.68 297.26 268.509C290.243 267.31 283.227 266.083 276.267 264.661C272.782 263.964 269.298 263.24 265.85 262.413C262.384 261.623 258.945 260.746 255.535 259.783C252.123 258.824 248.761 257.695 245.462 256.4C242.121 255.198 239.01 253.435 236.262 251.187C237.473 252.512 238.861 253.663 240.388 254.607C241.898 255.582 243.468 256.46 245.09 257.236C248.345 258.752 251.691 260.065 255.108 261.167C261.93 263.335 268.87 265.11 275.895 266.483C282.911 267.877 289.962 269.029 297.046 269.94C304.127 270.878 311.236 271.566 318.363 271.956C318.363 271.956 321.532 291.22 323.186 308.551H199.202C199.332 291.629 199.36 269.206 198.84 249.04C197.855 210.141 198.84 191.834 198.84 191.834C200.622 191.637 202.383 191.276 204.099 190.756C205.819 190.264 207.501 189.678 209.183 189.074C212.537 187.866 215.808 186.454 219.061 185.004C222.295 183.526 225.491 181.984 228.642 180.32C231.792 178.675 234.905 176.938 237.916 175.023C234.561 176.25 231.281 177.616 228.019 179.019C224.757 180.404 221.533 181.872 218.29 183.313L208.634 187.736C205.391 189.167 202.222 190.71 198.84 191.834C198.84 191.834 182.522 199.259 181.035 180.46C179.557 161.67 197.362 121.116 241.865 124.573ZM235.016 185.626C233.377 187.175 231.946 188.93 230.761 190.849C230.175 191.806 229.673 192.819 229.144 193.823C228.688 194.854 228.317 195.913 227.889 196.964C227.687 197.49 227.526 198.03 227.406 198.58L226.978 200.216C226.69 201.303 226.479 202.408 226.346 203.524L226.123 205.197L226.012 206.033L225.975 206.87L225.863 210.224L225.835 211.061L225.891 211.897L226.012 213.57C226.086 214.685 226.161 215.791 226.281 216.897C226.653 219.09 227.006 221.283 227.48 223.448C228.084 225.585 228.67 227.713 229.339 229.813C229.069 227.611 228.725 225.446 228.382 223.281C228.121 221.106 227.973 218.922 227.722 216.757L227.638 213.495L227.592 211.869L227.564 211.061L227.62 210.252L227.787 207.009L227.824 206.201L227.945 205.401L228.186 203.803C228.732 199.531 230.024 195.388 232.006 191.564C233.032 189.669 234.259 187.89 235.667 186.258C237.072 184.588 238.716 183.135 240.546 181.946C238.493 182.825 236.619 184.072 235.016 185.626ZM211.59 147.991C212.255 149.39 213.394 150.51 214.805 151.15C215.503 151.469 216.236 151.706 216.989 151.856C217.74 151.963 218.497 152.028 219.256 152.052C220.009 152.014 220.771 152.014 221.514 151.921L223.726 151.559C224.46 151.41 225.166 151.197 225.891 151.011L227.982 150.444C229.345 150.088 230.734 149.84 232.136 149.7C234.976 149.436 237.834 149.426 240.676 149.673C246.419 150.191 252.11 151.179 257.691 152.628C260.497 153.334 263.304 154.096 266.082 154.923C268.879 155.713 271.63 156.624 274.399 157.544C269.134 155.007 263.674 152.897 258.072 151.234C252.457 149.501 246.677 148.358 240.825 147.823C237.863 147.588 234.885 147.632 231.931 147.953C230.444 148.145 228.975 148.452 227.536 148.873L223.401 150.147L221.328 150.593C220.631 150.713 219.934 150.741 219.237 150.834C218.54 150.881 217.844 150.825 217.156 150.806C216.474 150.715 215.804 150.55 215.158 150.314C213.843 149.862 212.733 148.956 212.026 147.758C211.661 147.15 211.386 146.493 211.208 145.807C210.999 145.113 210.887 144.394 210.874 143.669C210.712 145.148 210.96 146.643 211.589 147.991H211.59Z" fill="url(#paint24_linear_2126_336)"/>
<path d="M375.4 308.554C357.102 308.023 338.803 307.667 320.504 307.486C311.355 307.36 302.205 307.332 293.056 307.257L265.608 307.181L238.159 307.253C229.01 307.33 219.861 307.354 210.711 307.482C192.412 307.662 174.114 308.019 155.815 308.554C174.114 309.088 192.412 309.446 210.711 309.626C219.861 309.754 229.01 309.778 238.159 309.855L265.608 309.927L293.056 309.851C302.205 309.777 311.355 309.749 320.504 309.622C338.803 309.441 357.102 309.085 375.4 308.554Z" fill="url(#paint25_linear_2126_336)"/>
<path d="M321.37 104.806C317.782 104.806 317.776 99.2303 321.37 99.2303C324.957 99.2303 324.963 104.806 321.37 104.806Z" fill="url(#paint26_linear_2126_336)"/>
<defs>
<linearGradient id="paint0_linear_2126_336" x1="472.577" y1="108.186" x2="496.149" y2="154.387" gradientUnits="userSpaceOnUse">
<stop stop-color="#9DE8EE"/>
<stop offset="0.0001" stop-color="#9DE8EE"/>
<stop offset="0.490049" stop-color="#FA7C0B"/>
<stop offset="1" stop-color="#9F8CED"/>
</linearGradient>
<linearGradient id="paint1_linear_2126_336" x1="411.823" y1="113.8" x2="419.586" y2="128.487" gradientUnits="userSpaceOnUse">
<stop stop-color="#9DE8EE"/>
<stop offset="0.0001" stop-color="#9DE8EE"/>
<stop offset="0.490049" stop-color="#FA7C0B"/>
<stop offset="1" stop-color="#9F8CED"/>
</linearGradient>
<linearGradient id="paint2_linear_2126_336" x1="476.872" y1="117.139" x2="478.914" y2="125.296" gradientUnits="userSpaceOnUse">
<stop stop-color="#9DE8EE"/>
<stop offset="0.0001" stop-color="#9DE8EE"/>
<stop offset="0.490049" stop-color="#FA7C0B"/>
<stop offset="1" stop-color="#9F8CED"/>
</linearGradient>
<linearGradient id="paint3_linear_2126_336" x1="516.666" y1="105.885" x2="524.798" y2="108.214" gradientUnits="userSpaceOnUse">
<stop stop-color="#9DE8EE"/>
<stop offset="0.0001" stop-color="#9DE8EE"/>
<stop offset="0.490049" stop-color="#FA7C0B"/>
<stop offset="1" stop-color="#9F8CED"/>
</linearGradient>
<linearGradient id="paint4_linear_2126_336" x1="466.118" y1="118.408" x2="467.352" y2="121.529" gradientUnits="userSpaceOnUse">
<stop stop-color="#9DE8EE"/>
<stop offset="0.0001" stop-color="#9DE8EE"/>
<stop offset="0.490049" stop-color="#FA7C0B"/>
<stop offset="1" stop-color="#9F8CED"/>
</linearGradient>
<linearGradient id="paint5_linear_2126_336" x1="455.137" y1="114.932" x2="456.245" y2="117.2" gradientUnits="userSpaceOnUse">
<stop stop-color="#9DE8EE"/>
<stop offset="0.0001" stop-color="#9DE8EE"/>
<stop offset="0.490049" stop-color="#FA7C0B"/>
<stop offset="1" stop-color="#9F8CED"/>
</linearGradient>
<linearGradient id="paint6_linear_2126_336" x1="462.052" y1="110.278" x2="464.498" y2="118.893" gradientUnits="userSpaceOnUse">
<stop stop-color="#9DE8EE"/>
<stop offset="0.0001" stop-color="#9DE8EE"/>
<stop offset="0.490049" stop-color="#FA7C0B"/>
<stop offset="1" stop-color="#9F8CED"/>
</linearGradient>
<linearGradient id="paint7_linear_2126_336" x1="446.117" y1="105.846" x2="446.602" y2="106.778" gradientUnits="userSpaceOnUse">
<stop stop-color="#9DE8EE"/>
<stop offset="0.0001" stop-color="#9DE8EE"/>
<stop offset="0.490049" stop-color="#FA7C0B"/>
<stop offset="1" stop-color="#9F8CED"/>
</linearGradient>
<linearGradient id="paint8_linear_2126_336" x1="534.079" y1="107.539" x2="547.58" y2="114.931" gradientUnits="userSpaceOnUse">
<stop stop-color="#9DE8EE"/>
<stop offset="0.0001" stop-color="#9DE8EE"/>
<stop offset="0.490049" stop-color="#FA7C0B"/>
<stop offset="1" stop-color="#9F8CED"/>
</linearGradient>
<linearGradient id="paint9_linear_2126_336" x1="489.347" y1="128.777" x2="505.087" y2="141.012" gradientUnits="userSpaceOnUse">
<stop stop-color="#9DE8EE"/>
<stop offset="0.0001" stop-color="#9DE8EE"/>
<stop offset="0.490049" stop-color="#FA7C0B"/>
<stop offset="1" stop-color="#9F8CED"/>
</linearGradient>
<linearGradient id="paint10_linear_2126_336" x1="428.378" y1="147.928" x2="464.879" y2="199.54" gradientUnits="userSpaceOnUse">
<stop stop-color="#9DE8EE"/>
<stop offset="0.0001" stop-color="#9DE8EE"/>
<stop offset="0.490049" stop-color="#FA7C0B"/>
<stop offset="1" stop-color="#9F8CED"/>
</linearGradient>
<linearGradient id="paint11_linear_2126_336" x1="472.035" y1="100.414" x2="472.302" y2="105.036" gradientUnits="userSpaceOnUse">
<stop stop-color="#9DE8EE"/>
<stop offset="0.0001" stop-color="#9DE8EE"/>
<stop offset="0.490049" stop-color="#FA7C0B"/>
<stop offset="1" stop-color="#9F8CED"/>
</linearGradient>
<linearGradient id="paint12_linear_2126_336" x1="421.964" y1="114.072" x2="471.649" y2="158.321" gradientUnits="userSpaceOnUse">
<stop stop-color="#9DE8EE"/>
<stop offset="0.0001" stop-color="#9DE8EE"/>
<stop offset="0.490049" stop-color="#FA7C0B"/>
<stop offset="1" stop-color="#9F8CED"/>
</linearGradient>
<linearGradient id="paint13_linear_2126_336" x1="442.622" y1="109.864" x2="446.709" y2="112.052" gradientUnits="userSpaceOnUse">
<stop stop-color="#9DE8EE"/>
<stop offset="0.0001" stop-color="#9DE8EE"/>
<stop offset="0.490049" stop-color="#FA7C0B"/>
<stop offset="1" stop-color="#9F8CED"/>
</linearGradient>
<linearGradient id="paint14_linear_2126_336" x1="279.095" y1="61.055" x2="293.587" y2="102.956" gradientUnits="userSpaceOnUse">
<stop stop-color="#9DE8EE"/>
<stop offset="0.0001" stop-color="#9DE8EE"/>
<stop offset="0.490049" stop-color="#FA7C0B"/>
<stop offset="1" stop-color="#9F8CED"/>
</linearGradient>
<linearGradient id="paint15_linear_2126_336" x1="287.247" y1="61.2946" x2="298.853" y2="74.5269" gradientUnits="userSpaceOnUse">
<stop stop-color="#9DE8EE"/>
<stop offset="0.0001" stop-color="#9DE8EE"/>
<stop offset="0.490049" stop-color="#FA7C0B"/>
<stop offset="1" stop-color="#9F8CED"/>
</linearGradient>
<linearGradient id="paint16_linear_2126_336" x1="265.159" y1="64.6243" x2="275.451" y2="68.1668" gradientUnits="userSpaceOnUse">
<stop stop-color="#9DE8EE"/>
<stop offset="0.0001" stop-color="#9DE8EE"/>
<stop offset="0.490049" stop-color="#FA7C0B"/>
<stop offset="1" stop-color="#9F8CED"/>
</linearGradient>
<linearGradient id="paint17_linear_2126_336" x1="313.77" y1="78.6213" x2="314.233" y2="81.9005" gradientUnits="userSpaceOnUse">
<stop stop-color="#9DE8EE"/>
<stop offset="0.0001" stop-color="#9DE8EE"/>
<stop offset="0.490049" stop-color="#FA7C0B"/>
<stop offset="1" stop-color="#9F8CED"/>
</linearGradient>
<linearGradient id="paint18_linear_2126_336" x1="331.073" y1="97.2192" x2="343.486" y2="103.958" gradientUnits="userSpaceOnUse">
<stop stop-color="#9DE8EE"/>
<stop offset="0.0001" stop-color="#9DE8EE"/>
<stop offset="0.490049" stop-color="#FA7C0B"/>
<stop offset="1" stop-color="#9F8CED"/>
</linearGradient>
<linearGradient id="paint19_linear_2126_336" x1="276.092" y1="99.2375" x2="306.019" y2="145.073" gradientUnits="userSpaceOnUse">
<stop stop-color="#9DE8EE"/>
<stop offset="0.0001" stop-color="#9DE8EE"/>
<stop offset="0.490049" stop-color="#FA7C0B"/>
<stop offset="1" stop-color="#9F8CED"/>
</linearGradient>
<linearGradient id="paint20_linear_2126_336" x1="315.406" y1="93.8814" x2="316.456" y2="97.8051" gradientUnits="userSpaceOnUse">
<stop stop-color="#9DE8EE"/>
<stop offset="0.0001" stop-color="#9DE8EE"/>
<stop offset="0.490049" stop-color="#FA7C0B"/>
<stop offset="1" stop-color="#9F8CED"/>
</linearGradient>
<linearGradient id="paint21_linear_2126_336" x1="277.162" y1="96.2849" x2="286.925" y2="103.136" gradientUnits="userSpaceOnUse">
<stop stop-color="#9DE8EE"/>
<stop offset="0.0001" stop-color="#9DE8EE"/>
<stop offset="0.490049" stop-color="#FA7C0B"/>
<stop offset="1" stop-color="#9F8CED"/>
</linearGradient>
<linearGradient id="paint22_linear_2126_336" x1="297.147" y1="145.717" x2="301.501" y2="149.498" gradientUnits="userSpaceOnUse">
<stop stop-color="#9DE8EE"/>
<stop offset="0.0001" stop-color="#9DE8EE"/>
<stop offset="0.490049" stop-color="#FA7C0B"/>
<stop offset="1" stop-color="#9F8CED"/>
</linearGradient>
<linearGradient id="paint23_linear_2126_336" x1="258.435" y1="129.86" x2="262.232" y2="132.86" gradientUnits="userSpaceOnUse">
<stop stop-color="#9DE8EE"/>
<stop offset="0.0001" stop-color="#9DE8EE"/>
<stop offset="0.490049" stop-color="#FA7C0B"/>
<stop offset="1" stop-color="#9F8CED"/>
</linearGradient>
<linearGradient id="paint24_linear_2126_336" x1="260.376" y1="165.875" x2="332.297" y2="307.219" gradientUnits="userSpaceOnUse">
<stop stop-color="#9DE8EE"/>
<stop offset="0.0001" stop-color="#9DE8EE"/>
<stop offset="0.490049" stop-color="#FA7C0B"/>
<stop offset="1" stop-color="#9F8CED"/>
</linearGradient>
<linearGradient id="paint25_linear_2126_336" x1="217.916" y1="307.8" x2="217.941" y2="310.453" gradientUnits="userSpaceOnUse">
<stop stop-color="#9DE8EE"/>
<stop offset="0.0001" stop-color="#9DE8EE"/>
<stop offset="0.490049" stop-color="#FA7C0B"/>
<stop offset="1" stop-color="#9F8CED"/>
</linearGradient>
<linearGradient id="paint26_linear_2126_336" x1="320.2" y1="100.487" x2="322.83" y2="103.761" gradientUnits="userSpaceOnUse">
<stop stop-color="#9DE8EE"/>
<stop offset="0.0001" stop-color="#9DE8EE"/>
<stop offset="0.490049" stop-color="#FA7C0B"/>
<stop offset="1" stop-color="#9F8CED"/>
</linearGradient>
</defs>
</svg>
