<svg width="68" height="67" viewBox="0 0 68 67" fill="none" xmlns="http://www.w3.org/2000/svg">
<g clip-path="url(#clip0_2152_766)">
<path d="M29.3535 38.9041L38.6454 33.5132L29.3535 28.0959V38.9041Z" fill="white"/>
<path d="M29.3535 38.9041L38.6454 33.5132L29.3535 28.0959V38.9041Z" fill="url(#paint0_linear_2152_766)"/>
<path d="M34 0C27.3743 0 20.8975 1.96474 15.3884 5.64577C9.87937 9.3268 5.58559 14.5588 3.05005 20.6801C0.514515 26.8014 -0.148897 33.5372 1.14371 40.0355C2.43631 46.5339 5.62688 52.503 10.3119 57.1881C14.997 61.8731 20.9661 65.0637 27.4645 66.3563C33.9629 67.6489 40.6986 66.9855 46.8199 64.45C52.9412 61.9144 58.1732 57.6207 61.8543 52.1116C65.5353 46.6026 67.5 40.1257 67.5 33.5C67.5 24.6152 63.9706 16.0944 57.6881 9.81192C51.4056 3.52945 42.8848 0 34 0ZM51.6316 39.4286C51.6322 40.3048 51.4601 41.1725 51.1252 41.9821C50.7903 42.7918 50.2991 43.5275 49.6798 44.1473C49.0605 44.767 48.3251 45.2587 47.5156 45.5941C46.7062 45.9295 45.8386 46.1022 44.9625 46.1022H23.0376C22.1614 46.1022 21.2938 45.9295 20.4844 45.5941C19.675 45.2587 18.9396 44.767 18.3202 44.1473C17.7009 43.5275 17.2097 42.7918 16.8748 41.9821C16.5399 41.1725 16.3679 40.3048 16.3684 39.4286V27.5714C16.3679 26.6952 16.5399 25.8275 16.8748 25.0179C17.2097 24.2082 17.7009 23.4725 18.3202 22.8527C18.9396 22.233 19.675 21.7413 20.4844 21.4059C21.2938 21.0705 22.1614 20.8978 23.0376 20.8978H44.9625C45.8386 20.8978 46.7062 21.0705 47.5156 21.4059C48.3251 21.7413 49.0605 22.233 49.6798 22.8527C50.2991 23.4725 50.7903 24.2082 51.1252 25.0179C51.4601 25.8275 51.6322 26.6952 51.6316 27.5714V39.4286Z" fill="white"/>
<path d="M34 0C27.3743 0 20.8975 1.96474 15.3884 5.64577C9.87937 9.3268 5.58559 14.5588 3.05005 20.6801C0.514515 26.8014 -0.148897 33.5372 1.14371 40.0355C2.43631 46.5339 5.62688 52.503 10.3119 57.1881C14.997 61.8731 20.9661 65.0637 27.4645 66.3563C33.9629 67.6489 40.6986 66.9855 46.8199 64.45C52.9412 61.9144 58.1732 57.6207 61.8543 52.1116C65.5353 46.6026 67.5 40.1257 67.5 33.5C67.5 24.6152 63.9706 16.0944 57.6881 9.81192C51.4056 3.52945 42.8848 0 34 0ZM51.6316 39.4286C51.6322 40.3048 51.4601 41.1725 51.1252 41.9821C50.7903 42.7918 50.2991 43.5275 49.6798 44.1473C49.0605 44.767 48.3251 45.2587 47.5156 45.5941C46.7062 45.9295 45.8386 46.1022 44.9625 46.1022H23.0376C22.1614 46.1022 21.2938 45.9295 20.4844 45.5941C19.675 45.2587 18.9396 44.767 18.3202 44.1473C17.7009 43.5275 17.2097 42.7918 16.8748 41.9821C16.5399 41.1725 16.3679 40.3048 16.3684 39.4286V27.5714C16.3679 26.6952 16.5399 25.8275 16.8748 25.0179C17.2097 24.2082 17.7009 23.4725 18.3202 22.8527C18.9396 22.233 19.675 21.7413 20.4844 21.4059C21.2938 21.0705 22.1614 20.8978 23.0376 20.8978H44.9625C45.8386 20.8978 46.7062 21.0705 47.5156 21.4059C48.3251 21.7413 49.0605 22.233 49.6798 22.8527C50.2991 23.4725 50.7903 24.2082 51.1252 25.0179C51.4601 25.8275 51.6322 26.6952 51.6316 27.5714V39.4286Z" fill="url(#paint1_linear_2152_766)"/>
</g>
<defs>
<linearGradient id="paint0_linear_2152_766" x1="38.9772" y1="29.4013" x2="30.7529" y2="36.0891" gradientUnits="userSpaceOnUse">
<stop stop-color="#9DE8EE"/>
<stop offset="0.0001" stop-color="#9DE8EE"/>
<stop offset="0.490049" stop-color="#FA7C0B"/>
<stop offset="1" stop-color="#9F8CED"/>
</linearGradient>
<linearGradient id="paint1_linear_2152_766" x1="69.8929" y1="8.09218" x2="17.8964" y2="57.2739" gradientUnits="userSpaceOnUse">
<stop stop-color="#9DE8EE"/>
<stop offset="0.0001" stop-color="#9DE8EE"/>
<stop offset="0.490049" stop-color="#FA7C0B"/>
<stop offset="1" stop-color="#9F8CED"/>
</linearGradient>
<clipPath id="clip0_2152_766">
<rect width="67" height="67" fill="white" transform="translate(0.5)"/>
</clipPath>
</defs>
</svg>
